<?xml version="1.0" encoding="utf-8"?>
<!-- Generator: Adobe Illustrator 16.2.0, SVG Export Plug-In . SVG Version: 6.00 Build 0)  -->
<!DOCTYPE svg PUBLIC "-//W3C//DTD SVG 1.1//EN" "http://www.w3.org/Graphics/SVG/1.1/DTD/svg11.dtd">
<svg version="1.1" id="Layer_1" xmlns="http://www.w3.org/2000/svg" xmlns:xlink="http://www.w3.org/1999/xlink" x="0px" y="0px"
	 width="800px" height="740px" viewBox="0 0 800 740" enable-background="new 0 0 800 740" xml:space="preserve">
<path fill="#FFFFFF" d="M700.996,458.889H293.85l9.09,44.444h372.803c21.39,0,37.244,19.862,32.504,40.721l-7.662,33.717
	c25.96,12.602,43.859,39.212,43.859,70.007c0,43.336-35.443,78.395-78.922,77.77c-41.421-0.596-75.486-34.21-76.604-75.621
	c-0.611-22.621,8.451-43.123,23.338-57.705H321.078c14.413,14.119,23.367,33.787,23.367,55.557
	c0,44.185-36.844,79.766-81.486,77.691c-39.639-1.84-71.876-33.868-73.96-73.496c-1.608-30.603,14.495-57.576,38.96-71.646
	l-97.565-476.993h-97.06C14.924,103.333,0,88.409,0,70V47.778c0-18.409,14.924-33.333,33.333-33.333h142.401
	c15.834,0,29.483,11.14,32.657,26.652l12.73,62.236h545.53c21.391,0,37.245,19.862,32.505,40.721L733.5,432.943
	C730.052,448.119,716.56,458.889,700.996,458.889z M559.763,281.112H500v-83.334c0-9.204-7.463-16.666-16.667-16.666H450
	c-9.204,0-16.667,7.462-16.667,16.666v83.334h-59.762c-14.849,0-22.285,17.952-11.785,28.451l93.096,93.096
	c6.509,6.508,17.062,6.508,23.571,0l93.096-93.096C582.047,299.064,574.611,281.112,559.763,281.112L559.763,281.112z"/>
</svg>
