<?xml version="1.0" encoding="utf-8"?>
<!-- Generator: Adobe Illustrator 16.2.0, SVG Export Plug-In . SVG Version: 6.00 Build 0)  -->
<!DOCTYPE svg PUBLIC "-//W3C//DTD SVG 1.1//EN" "http://www.w3.org/Graphics/SVG/1.1/DTD/svg11.dtd">
<svg version="1.1" id="Layer_1" xmlns="http://www.w3.org/2000/svg" xmlns:xlink="http://www.w3.org/1999/xlink" x="0px" y="0px"
	 width="46px" height="24px" viewBox="0 0 46 24" enable-background="new 0 0 46 24" xml:space="preserve">
<path fill="none" stroke="#8BDCFC" stroke-miterlimit="10" d="M0,0.5c5.75,0,5.75,6,11.5,6s5.75-6,11.5-6s5.75,6,11.5,6
	s5.75-6,11.5-6"/>
<path fill="none" stroke="#8BDCFC" stroke-miterlimit="10" d="M0,6.5c5.75,0,5.75,6,11.5,6s5.75-6,11.5-6s5.75,6,11.5,6
	s5.75-6,11.5-6"/>
<path fill="none" stroke="#8BDCFC" stroke-miterlimit="10" d="M0,11.833c5.75,0,5.75,6,11.5,6s5.75-6,11.5-6s5.75,6,11.5,6
	s5.75-6,11.5-6"/>
<path fill="none" stroke="#8BDCFC" stroke-miterlimit="10" d="M0,17.5c5.75,0,5.75,6,11.5,6s5.75-6,11.5-6s5.75,6,11.5,6
	s5.75-6,11.5-6"/>
<g>
</g>
<g>
</g>
<g>
</g>
<g>
</g>
<g>
</g>
<g>
</g>
<g>
</g>
<g>
</g>
<g>
</g>
<g>
</g>
<g>
</g>
<g>
</g>
<g>
</g>
<g>
</g>
<g>
</g>
</svg>
