<?xml version="1.0" encoding="utf-8"?>
<!-- Generator: Adobe Illustrator 16.2.0, SVG Export Plug-In . SVG Version: 6.00 Build 0)  -->
<!DOCTYPE svg PUBLIC "-//W3C//DTD SVG 1.1//EN" "http://www.w3.org/Graphics/SVG/1.1/DTD/svg11.dtd">
<svg version="1.1" id="Layer_1" xmlns="http://www.w3.org/2000/svg" xmlns:xlink="http://www.w3.org/1999/xlink" x="0px" y="0px"
	 width="72px" height="72px" viewBox="0 0 72 72" enable-background="new 0 0 72 72" xml:space="preserve">
<g>
	<defs>
		<rect id="SVGID_1_" width="72" height="72"/>
	</defs>
	<clipPath id="SVGID_2_">
		<use xlink:href="#SVGID_1_"  overflow="visible"/>
	</clipPath>
	<path clip-path="url(#SVGID_2_)" fill="none" stroke="#8BDCFC" d="M68.25,75.5c2.25-0.5,7,0,6,1.75s4,7,4.5,5.5s-2-4.5,0.75-4.75
		s5.75,3,7.5,3.25s5.5-1.5,3.25-3s-2.75-4.5-5.5-4.25s-7-0.25-6-3"/>
	<path clip-path="url(#SVGID_2_)" fill="none" stroke="#8BDCFC" d="M69.25,73c1.75,0.5,5.5,0.25,6,1.75S78,77.5,78,76.25
		s-1.75-2.75-1.75-2.75s-4-3.5-2-4"/>
	<path clip-path="url(#SVGID_2_)" fill="none" stroke="#8BDCFC" d="M71,80.25c1.5,1.5,3.5,2.75,5.5,3.75s5,2,5.25,0.75
		s-2.75-3.25-1-3.25s3.25,2,6.5,1.75s9.25-4,7.25-4.75S90.75,75,89,74s-2.75-1-4-1s-4-1.25-2-2"/>
	<path clip-path="url(#SVGID_2_)" fill="none" stroke="#8BDCFC" d="M-3.75,75.5c2.25-0.5,7,0,6,1.75s4,7,4.5,5.5s-2-4.5,0.75-4.75
		s5.75,3,7.5,3.25s5.5-1.5,3.25-3s-2.75-4.5-5.5-4.25s-7-0.25-6-3"/>
	<path clip-path="url(#SVGID_2_)" fill="none" stroke="#8BDCFC" d="M23.75,71C25,71.5,28,74,27,75.75s-0.5,3.25,1,3.5
		s6.25-2,5.75-3.25s-1.75-3.25,0-4.5"/>
	<path clip-path="url(#SVGID_2_)" fill="none" stroke="#8BDCFC" d="M45.75,68.75c1.75,1,1.75,2,0.5,3.25s-6.5,1.25-5.75,2.5
		s5,4,7.75,4s3-3.5,4.75-4"/>
	<path clip-path="url(#SVGID_2_)" fill="none" stroke="#8BDCFC" d="M54,73.25c0.75-0.5,0.75-1,0.5-3"/>
	<path clip-path="url(#SVGID_2_)" fill="none" stroke="#8BDCFC" d="M56.25,66.25c0,1.5-0.375,5.601-0.375,6.875
		c0,1.375,0.5,1.875,0.5,1.875"/>
	<path clip-path="url(#SVGID_2_)" fill="none" stroke="#8BDCFC" d="M-2.75,73c1.75,0.5,5.5,0.25,6,1.75S6,77.5,6,76.25
		S4.25,73.5,4.25,73.5s-4-3.5-2-4"/>
	<path clip-path="url(#SVGID_2_)" fill="none" stroke="#8BDCFC" d="M26,70.25c1.75,0.5,3.75,1,3.5,2.75s0.25,4,0.75,2.75s0-4,1.5-5"
		/>
	<path clip-path="url(#SVGID_2_)" fill="none" stroke="#8BDCFC" d="M48.75,65.5c1.25,2.25,1.5,6.25-0.25,7.5s-3,3-1.5,2.75
		s4-0.75,4.75-3S54,64,52.5,63.25"/>
	<path clip-path="url(#SVGID_2_)" fill="none" stroke="#8BDCFC" d="M58,65.5c-1,1.5-1,4.5,0.25,5.75S60.75,72,61,73.5
		s1.5,3.25,2.5,3.25s2.5-2,3.25-2.75c1-1,2.5-1,2.5-1c1.75,0.5,5.5,0.25,6,1.75"/>
	<path clip-path="url(#SVGID_2_)" fill="none" stroke="#8BDCFC" d="M-1,80.25C0.5,81.75,2.5,83,4.5,84s5,2,5.25,0.75
		S7,81.5,8.75,81.5s3.25,2,6.5,1.75s9.25-4,7.25-4.75S18.75,75,17,74s-2.75-1-4-1s-4-1.25-2-2"/>
	<path clip-path="url(#SVGID_2_)" fill="none" stroke="#8BDCFC" d="M22.25,71.5c1,2,2.25,3.25,2.5,5s-0.5,4.75,2,4.75
		c0.634,0,1.316-0.049,2.014-0.156"/>
	<path clip-path="url(#SVGID_2_)" fill="none" stroke="#8BDCFC" d="M30.812,80.594c1.375-0.469,2.688-1.219,3.688-2.344
		c2-2.25,0.25-2.75,0.5-4s6-4,7-3.25s-1.25,0-2.25,1.75s-4.25,6.25,1,6.5s6.25,1.25,6.5,2.25s5,0.75,5-0.5s1.5-6,2-4.75s2,3.5,5,5"
		/>
	<path clip-path="url(#SVGID_2_)" fill="none" stroke="#8BDCFC" d="M61.25,70.75c1.25,1.25,1.5,3.75,2.75,3s2.75-2.25,3.5-2.75"/>
	<path clip-path="url(#SVGID_2_)" fill="none" stroke="#8BDCFC" d="M-14,65.5c-1,1.5-1,4.5,0.25,5.75S-11.25,72-11,73.5
		s1.5,3.25,2.5,3.25s2.5-2,3.25-2.75c1-1,2.5-1,2.5-1c1.75,0.5,5.5,0.25,6,1.75"/>
	<path clip-path="url(#SVGID_2_)" fill="none" stroke="#8BDCFC" d="M66.75,68.75c3.863-2.44,6.032-7.021,10.5-8.5
		c-0.151,1.054-0.104,2.299,0.616,2.848c1.178,0.9,2.416,0.625,3.884,0.152c0.969-3.206,3.09-7.295,6.977-6.402
		c1.391,0.319,1.32,1.988,2.145,2.776c0.854,0.816,2.232,1.673,3.267,0.964c1.189-0.816,2.373-1.207,3.634-1.792
		c0.728-0.338,0.198-1.305,0.972-1.566c1.88-0.637,2.174,1.36,3.507,2.021c-0.106,1.858-0.029,3.673,0.512,5.497
		c0.694,2.336,3.374,1.622,4.988,0.503c-0.314-0.261,0.625-1.75,0.5-3.375c0.513-3.658-1.721-6.91,2.098-8.367
		c3.719-1.418,7.868-0.392,11.874-0.953c1.155-0.162,2.447-0.378,3.434-0.963c1.359-0.809,2.558-1.909,4.095-2.342
		c0.199,0.784,1.378,0.199,1.459,1.005c0.22,2.177,1.654,3.67,2.755,5.354c0.194,0.298,0.514,1.065,1.174,1.377
		c0.872,0.413,0.74,2.107,1.112,3.264"/>
	<path clip-path="url(#SVGID_2_)" fill="none" stroke="#8BDCFC" d="M69.375,62.375c1.508-0.742,3.13-1.227,4.5-2.25
		c0.087-0.859,0.825-1.39,1.026-2.243c0.047-0.199,0.381-0.256,0.396-0.291c0.706-1.565,2.286-2.378,3.824-1.71
		c0.374,0.162,0.177,0.871,0.753,0.744c0,0.251,0.082,0.605-0.042,0.69c-1.252,0.86-1.343,2.354-1.07,3.527
		c0.189,0.815,1.123,1.553,2.112,0.782c-0.23-2.832,1.053-5.251,3.33-6.889c1.202-0.863,2.723-0.696,4.17-0.611
		c-0.07,0.557,0.369,0.094,0.5,0.25"/>
	<path clip-path="url(#SVGID_2_)" fill="none" stroke="#8BDCFC" d="M69.75,58.75c1.75-0.25,3.75-2.5,5.25-4s3-2.5,4.5-2.25
		s1,3.25,3.25,0.25s3.75-2,5.25-1.75s5,2,6.25,0.5s-2-6,0.25-6.25s3.25,3.25,5.25,4.5s3,2.75,4.25,0.75s3.25-3.75,5.5-3
		s3,0.75,5,0.75"/>
	<path clip-path="url(#SVGID_2_)" fill="none" stroke="#8BDCFC" d="M89.257,41.88C88.292,41.94,87.352,42,86.5,42
		c-3.5,0-4,2.5-1.5,3s4.5,2.5,6.5,4S90,50,88,49s-3,0-5.5,2s-1.5-0.5-3-1s-3,0.5-4.5,2s-3.5,0.5-7.5-0.5"/>
	<path clip-path="url(#SVGID_2_)" fill="none" stroke="#8BDCFC" d="M68.75,48.25C70.25,49,72,50.5,74,49.5s3.25-2.5,4.5-2
		s2.5,2.25,4,1.25s3.25-0.75,1.5-2.5s-5.25-3-4-4S83.75,39,86.5,39s15-2.25,14.5,0.25s-1.75,8.25,0,7.25s3.25-2.75,4.75-2.75
		S108.5,43.5,109,41s3-3.75,4-2.75s2.5,2.25,2.25,0.5s0.5-4.5,4-4.25c0.481,0.034,1.071,0.078,1.739,0.133"/>
	<path clip-path="url(#SVGID_2_)" fill="none" stroke="#8BDCFC" d="M69.25,69.25c1-1.25,2.75-3,4.5-4.75s2.75-1.25,3,0.25
		S77.5,67.25,79,67s5.5-3,6-5.25S86.75,58,88,59s2,4,4.25,4s7.5-4.75,7.75-3s-0.5,4,0.25,6.5s2.5,2.5,5,1.5s4.5-2,4.75-3.5"/>
	<path clip-path="url(#SVGID_2_)" fill="none" stroke="#8BDCFC" d="M68.25,3.5c2.25-0.5,7,0,6,1.75s4,7,4.5,5.5s-2-4.5,0.75-4.75
		s5.75,3,7.5,3.25s5.5-1.5,3.25-3S87.5,1.75,84.75,2s-7-0.25-6-3"/>
	<path clip-path="url(#SVGID_2_)" fill="none" stroke="#8BDCFC" d="M70.5,44.75c1.75,1,2,2,4,1.25s2.5-1,2.5-1c2,1,3.5,1.5,3.25,0.5
		c-0.858-3.431-5.773-3.014-5-4.25C76.5,39.25,80.5,39,82,37s-0.5-3.75,1.75-4.75s5.5,1,6.25,2.25s4.5,2.25,7.5,1.5s7.25-2,6.75,0.5
		S103,42.25,104.5,41s5.25-8.5,7.5-8.25s3.25,0,6.25-0.25s9.5,0.5,9.25-2s-4.75-8.25-1-8.25c1.704,0,3.615,0.568,5.24,1.517"/>
	<path clip-path="url(#SVGID_2_)" fill="none" stroke="#8BDCFC" d="M69.25,1c1.75,0.5,5.5,0.25,6,1.75S78,5.5,78,4.25
		S76.25,1.5,76.25,1.5s-4-3.5-2-4"/>
	<path clip-path="url(#SVGID_2_)" fill="none" stroke="#8BDCFC" d="M69.5,36c1.25,0.5,3.25,2.25,4,1.25s-8-3-0.5-4.75
		s6.25-1,7.25-3.5s-6.5-3.25-4.5-4.5s9.331-2.959,11.75-1.75c3,1.5,1.5,3.75,1.75,4.5s-1,4.75,2.5,6s5,2.5,8,0.75s7-3.25,7-2
		s-0.25,2,2.5,0.25s7.25-3.25,9.75-3s5-0.5,4-2.25s-3.75-2.75-5-4.75s0.75-3.25,3.25-3.5s12,0.75,13.75,2.25s2.25,5.5,2.25,8
		s-1,3.25,1.75,5.25"/>
	<path clip-path="url(#SVGID_2_)" fill="none" stroke="#8BDCFC" d="M69.75,30C72,30.5,74,30,75,29.5s-2.5-3-4.75-3.75"/>
	<path clip-path="url(#SVGID_2_)" fill="none" stroke="#8BDCFC" d="M70.25,20.75c3.75-0.5,7.25-1.5,9.75-1s7.75-0.5,9.75,3"/>
	<path clip-path="url(#SVGID_2_)" fill="none" stroke="#8BDCFC" d="M70.5,16.75c3.5,0.5,10.75,2,12.5,2c0.554,0,1.784,0,3.247,0.056
		"/>
	<path clip-path="url(#SVGID_2_)" fill="none" stroke="#8BDCFC" d="M71,8.25c1.5,1.5,3.5,2.75,5.5,3.75s5,2,5.25,0.75
		S79,9.5,80.75,9.5s3.25,2,6.5,1.75s9.25-4,7.25-4.75S90.75,3,89,2s-2.75-1-4-1s-4-1.25-2-2"/>
	<path clip-path="url(#SVGID_2_)" fill="none" stroke="#8BDCFC" d="M70.5,14.25c1.75,0.5,10.25,2.75,14.25,2.5S95.5,16.25,96.5,17
		s0.25,2,0.5,3.25s1,2.25,2.25,1s3.75-2,5-1.5s3.5,1.25,3.25,0s-2.75-3.25-1.5-5.5s7-6.5,6.5-4.25s-1.25,5.25,0.5,4.5s5-2,8-1.5"/>
	<path clip-path="url(#SVGID_2_)" fill="none" stroke="#8BDCFC" d="M70.75,11.5c3,1.5,9.5,4,16,3.75S93,13.5,91.5,13.5
		s0.25-2.5,2.25-2.5s4.5,1.5,4.75,3.25s1,3,2.25,2.75s1-1,2.75-4s2.5-3,4-4.75s1.5,0,2.25,0.25S116,7.75,116,9s-3.75,3-2,3
		s9.75-1.5,11.5-0.75"/>
	<path clip-path="url(#SVGID_2_)" fill="none" stroke="#8BDCFC" d="M-5.25,68.75c3.863-2.44,6.032-7.021,10.5-8.5
		c-0.151,1.054-0.104,2.299,0.616,2.848c1.178,0.9,2.416,0.625,3.884,0.152c0.969-3.206,3.09-7.295,6.977-6.402
		c1.391,0.319,1.32,1.988,2.145,2.776c0.854,0.816,2.232,1.673,3.267,0.964c1.189-0.816,2.373-1.207,3.634-1.792
		c0.728-0.338,0.198-1.305,0.972-1.566c1.88-0.637,2.174,1.36,3.507,2.021c-0.106,1.858-0.029,3.673,0.512,5.497
		c0.694,2.336,3.374,1.622,4.988,0.503c-0.314-0.261,0.625-1.75,0.5-3.375c0.513-3.658-1.721-6.91,2.098-8.367
		c3.719-1.418,7.868-0.392,11.874-0.953c1.155-0.162,2.447-0.378,3.434-0.963c1.359-0.809,2.558-1.909,4.095-2.342
		c0.199,0.784,1.378,0.199,1.459,1.005c0.22,2.177,1.654,3.67,2.755,5.354c0.194,0.298,0.514,1.065,1.174,1.377
		c0.872,0.413,0.74,2.107,1.112,3.264"/>
	<path clip-path="url(#SVGID_2_)" fill="none" stroke="#8BDCFC" d="M77.25,60.25c-4.468,1.479-6.637,6.06-10.5,8.5
		c-1.516,0.958-2.624,1.114-3.934,0.757c-1.233-0.338-0.398-2.072-0.547-3.259c-0.183-1.469,1.57-0.876,2.175-1.882
		c0.603-1.006,0.806-1.491,0.556-2.741"/>
	<path clip-path="url(#SVGID_2_)" fill="none" stroke="#8BDCFC" d="M-2.625,62.375c1.508-0.742,3.13-1.227,4.5-2.25
		c0.087-0.859,0.825-1.39,1.026-2.243c0.047-0.199,0.381-0.256,0.396-0.291c0.706-1.565,2.286-2.378,3.824-1.71
		c0.374,0.162,0.177,0.871,0.753,0.744c0,0.251,0.082,0.605-0.042,0.69c-1.252,0.86-1.343,2.354-1.07,3.527
		c0.189,0.815,1.123,1.553,2.112,0.782c-0.23-2.832,1.053-5.251,3.33-6.889c1.202-0.863,2.723-0.696,4.17-0.611
		c-0.07,0.557,0.369,0.094,0.5,0.25"/>
	<path clip-path="url(#SVGID_2_)" fill="none" stroke="#8BDCFC" d="M69.375,62.375c1.508-0.742,3.13-1.227,4.5-2.25"/>
	<path clip-path="url(#SVGID_2_)" fill="none" stroke="#8BDCFC" d="M68.375,63.875c-0.845,0.455-1.071,1.446-1.593,2.185
		c-0.111,0.158-0.455,0.185-0.407,0.565c-0.535-0.122-0.975,0.413-1.494,0.23c-0.334-0.118-0.396-0.521-0.214-0.684
		c0.358-0.324,0.262-0.893,0.482-0.946c0.729-0.182,0.267-1.142,0.976-1.101c0.363-1.485,0.5-3.031,0.117-4.465
		c-0.501-1.876-1.628-3.489-2.367-5.285"/>
	<path clip-path="url(#SVGID_2_)" fill="none" stroke="#8BDCFC" d="M63,53c-1.75-2.25-3-3.5-3.25-4.75S59.25,46,58,46
		s-2.25,1.5-4.25,2.5s-9.25,2.25-11.25,2s-6-1-7-0.25s-1.75,4.25-1.75,6.25s0.25,4.75,0,5.75s-1.75,2.75-2-0.5s-0.5-4.75-2.25-6.5
		s-4.75-2.75-5-1.5s0.75,2.25,0.25,2.75s-2.25,1.25-3.25,1s-1.5-1-2.25-1.5"/>
	<path clip-path="url(#SVGID_2_)" fill="none" stroke="#8BDCFC" d="M-2.25,58.75c1.75-0.25,3.75-2.5,5.25-4s3-2.5,4.5-2.25
		s1,3.25,3.25,0.25s3.75-2,5.25-1.75s5,2,6.25,0.5s-2-6,0.25-6.25s3.25,3.25,5.25,4.5s3,2.75,4.25,0.75s3.25-3.75,5.5-3
		s3,0.75,5,0.75"/>
	<path clip-path="url(#SVGID_2_)" fill="none" stroke="#8BDCFC" d="M45.75,48c1.5-0.25,6.25-1,7.5-2.25s-1.75-5-0.25-5.5
		s5.5,0.25,7,1.5s2.75,5,3.25,7.25s3.75,4.75,4.25,6.5s0,4.5,0.5,5s1-1.5,1.75-1.75c1.677-0.56,3.75-2.5,5.25-4"/>
	<path clip-path="url(#SVGID_2_)" fill="none" stroke="#8BDCFC" d="M75,52c-1.5,1.5-3.5,0.5-7.5-0.5c0,0-2.25-1-2.5-6.5
		s-3.75-6.75-6.25-7.5S46,35.5,45.25,37s3.75,3.5,4.5,5s-0.25,3.75-2,3.5S46,42.75,44.5,42s-5.5-1-5.75,1.25S34.5,45.5,34.5,45.5
		c-2.5-0.5-3,4-5,4S27,45,25,43c-1-1-2.75-1.25-4.688-1.25"/>
	<path clip-path="url(#SVGID_2_)" fill="none" stroke="#8BDCFC" d="M17.257,41.88C16.292,41.94,15.352,42,14.5,42
		c-3.5,0-4,2.5-1.5,3s4.5,2.5,6.5,4S18,50,16,49s-3,0-5.5,2s-1.5-0.5-3-1s-3,0.5-4.5,2s-3.5,0.5-7.5-0.5"/>
	<path clip-path="url(#SVGID_2_)" fill="none" stroke="#8BDCFC" d="M-3.25,48.25C-1.75,49,0,50.5,2,49.5s3.25-2.5,4.5-2
		s2.5,2.25,4,1.25s3.25-0.75,1.5-2.5s-5.25-3-4-4S11.75,39,14.5,39s15-2.25,14.5,0.25s-1.75,8.25,0,7.25s3.25-2.75,4.75-2.75
		S36.5,43.5,37,41s3-3.75,4-2.75s2.5,2.25,2.25,0.5s0.5-4.5,4-4.25c0.481,0.034,1.071,0.078,1.739,0.133"/>
	<path clip-path="url(#SVGID_2_)" fill="none" stroke="#8BDCFC" d="M50.994,34.812c4.182,0.404,9.73,1.15,11.756,2.438
		c2.75,1.75,4.5,6,4.75,8.5"/>
	<path clip-path="url(#SVGID_2_)" fill="none" stroke="#8BDCFC" d="M68.75,48.25C70.25,49,72,50.5,74,49.5"/>
	<path clip-path="url(#SVGID_2_)" fill="none" stroke="#8BDCFC" d="M12.75,74c-2.75,0.25-7-0.25-6-3s7.5-4.5,8.25-6
		s2.75-1.75,3.75,0.25s3.75,5.25,5,5.75S28,74,27,75.75"/>
	<path clip-path="url(#SVGID_2_)" fill="none" stroke="#8BDCFC" d="M33.75,76c-0.5-1.25-1.75-3.25,0-4.5s10.25-3.75,12-2.75
		s1.75,2,0.5,3.25s-6.5,1.25-5.75,2.5"/>
	<path clip-path="url(#SVGID_2_)" fill="none" stroke="#8BDCFC" d="M-2.75,69.25c1-1.25,2.75-3,4.5-4.75s2.75-1.25,3,0.25
		S5.5,67.25,7,67s5.5-3,6-5.25S14.75,58,16,59s2,4,4.25,4s7.5-4.75,7.75-3s-0.5,4,0.25,6.5s2.5,2.5,5,1.5s4.5-2,4.75-3.5"/>
	<path clip-path="url(#SVGID_2_)" fill="none" stroke="#8BDCFC" d="M69.25,69.25c1-1.25,2.75-3,4.5-4.75"/>
	<path clip-path="url(#SVGID_2_)" fill="none" stroke="#8BDCFC" d="M4.25,73.5c0,0-4-3.5-2-4s4,0,6-1.25s5.25-3.25,6-4.75
		S16,61,16.75,62s2,2,3.75,2.5s3-1,3.75,0.75s0,4.5,1.75,5s3.75,1,3.5,2.75"/>
	<path clip-path="url(#SVGID_2_)" fill="none" stroke="#8BDCFC" d="M30.25,75.75c0.5-1.25,0-4,1.5-5s6.25-2.75,7-4
		c0.691-1.152,3.931-1.879,6.001-1.986"/>
	<path clip-path="url(#SVGID_2_)" fill="none" stroke="#8BDCFC" d="M46.5,64.75c0.23,0.176,1.937,0.188,2.25,0.75
		c1.25,2.25,1.5,6.25-0.25,7.5"/>
	<path clip-path="url(#SVGID_2_)" fill="none" stroke="#8BDCFC" d="M51.75,72.75C52.5,70.5,54,64,52.5,63.25s-4.75-1.5-2.75-3.5
		S55.5,56,56.5,56.5s4.5,3.5,3.75,5.25S59,64,58,65.5s-1,4.5,0.25,5.75S60.75,72,61,73.5"/>
	<path clip-path="url(#SVGID_2_)" fill="none" stroke="#8BDCFC" d="M38.25,62.75c0-1.25-0.5-2.5,0.25-4.5s2.75-3,3-1.5
		s-1.5,4.75,0,5s2.5,0.5,3.25-1s-1.25-3.25,0-4.25s6.25-2.75,7.75-2.25s2.75-0.25,3.75-0.5"/>
	<path clip-path="url(#SVGID_2_)" fill="none" stroke="#8BDCFC" d="M58,53.75c1-0.25,2.25,1.5,2.5,3s2.25,2.75,2.5,3.75
		s-2.25,5-2.75,6.25s-0.25,2.75,1,4s1.5,3.75,2.75,3s2.75-2.25,3.5-2.75"/>
	<path clip-path="url(#SVGID_2_)" fill="none" stroke="#8BDCFC" d="M54,73.25c0.75-0.5,0.75-1,0.5-3s0.75-6.75,0-7.75s-1.5-3,0-2.5
		c0.824,0.274,2.514-0.086,2.75,1.375c0.192,1.197-1,4.199-1,4.875c0,1.5-0.375,5.601-0.375,6.875"/>
	<path clip-path="url(#SVGID_2_)" fill="none" stroke="#8BDCFC" d="M-3.75,3.5c2.25-0.5,7,0,6,1.75s4,7,4.5,5.5S4.75,6.25,7.5,6
		s5.75,3,7.5,3.25s5.5-1.5,3.25-3S15.5,1.75,12.75,2s-7-0.25-6-3"/>
	<path clip-path="url(#SVGID_2_)" fill="none" stroke="#8BDCFC" d="M23.75-1C25-0.5,28,2,27,3.75S26.5,7,28,7.25s6.25-2,5.75-3.25
		s-1.75-3.25,0-4.5"/>
	<path clip-path="url(#SVGID_2_)" fill="none" stroke="#8BDCFC" d="M45.75-3.25c1.75,1,1.75,2,0.5,3.25s-6.5,1.25-5.75,2.5
		s5,4,7.75,4s3-3.5,4.75-4"/>
	<path clip-path="url(#SVGID_2_)" fill="none" stroke="#8BDCFC" d="M54,1.25c0.75-0.5,0.75-1,0.5-3"/>
	<path clip-path="url(#SVGID_2_)" fill="none" stroke="#8BDCFC" d="M56.25-5.75c0,1.5-0.375,5.601-0.375,6.875
		c0,1.375,0.5,1.875,0.5,1.875"/>
	<path clip-path="url(#SVGID_2_)" fill="none" stroke="#8BDCFC" d="M-1.5,44.75c1.75,1,2,2,4,1.25S5,45,5,45c2,1,3.5,1.5,3.25,0.5
		c-0.858-3.431-5.773-3.014-5-4.25C4.5,39.25,8.5,39,10,37s-0.5-3.75,1.75-4.75s5.5,1,6.25,2.25s4.5,2.25,7.5,1.5s7.25-2,6.75,0.5
		S31,42.25,32.5,41s5.25-8.5,7.5-8.25s3.25,0,6.25-0.25s9.5,0.5,9.25-2s-4.75-8.25-1-8.25c1.704,0,3.615,0.568,5.24,1.517"/>
	<path clip-path="url(#SVGID_2_)" fill="none" stroke="#8BDCFC" d="M62.41,26.047c0.574,0.75,0.965,1.578,1.09,2.453
		c0.5,3.5,0.25,5.75,2.25,7"/>
	<path clip-path="url(#SVGID_2_)" fill="none" stroke="#8BDCFC" d="M70.5,44.75c1.75,1,2,2,4,1.25"/>
	<path clip-path="url(#SVGID_2_)" fill="none" stroke="#8BDCFC" d="M67,36.25c1,1,2,3,2,4s-0.5,2.25,0.25,3.25"/>
	<path clip-path="url(#SVGID_2_)" fill="none" stroke="#8BDCFC" d="M-2.75,1c1.75,0.5,5.5,0.25,6,1.75S6,5.5,6,4.25
		S4.25,1.5,4.25,1.5s-4-3.5-2-4"/>
	<path clip-path="url(#SVGID_2_)" fill="none" stroke="#8BDCFC" d="M26-1.75c1.75,0.5,3.75,1,3.5,2.75s0.25,4,0.75,2.75s0-4,1.5-5"
		/>
	<path clip-path="url(#SVGID_2_)" fill="none" stroke="#8BDCFC" d="M48.75-6.5C50-4.25,50.25-0.25,48.5,1s-3,3-1.5,2.75
		s4-0.75,4.75-3S54-8,52.5-8.75"/>
	<path clip-path="url(#SVGID_2_)" fill="none" stroke="#8BDCFC" d="M58-6.5C57-5,57-2,58.25-0.75S60.75,0,61,1.5s1.5,3.25,2.5,3.25
		s2.5-2,3.25-2.75c1-1,2.5-1,2.5-1c1.75,0.5,5.5,0.25,6,1.75"/>
	<path clip-path="url(#SVGID_2_)" fill="none" stroke="#8BDCFC" d="M-2.5,36c1.25,0.5,3.25,2.25,4,1.25s-8-3-0.5-4.75
		s6.25-1,7.25-3.5s-6.5-3.25-4.5-4.5s9.331-2.959,11.75-1.75c3,1.5,1.5,3.75,1.75,4.5s-1,4.75,2.5,6s5,2.5,8,0.75s7-3.25,7-2
		s-0.25,2,2.5,0.25s7.25-3.25,9.75-3s5-0.5,4-2.25s-3.75-2.75-5-4.75s0.75-3.25,3.25-3.5S61.25,19.5,63,21s2.25,5.5,2.25,8
		s-1,3.25,1.75,5.25"/>
	<path clip-path="url(#SVGID_2_)" fill="none" stroke="#8BDCFC" d="M69.5,36c1.25,0.5,3.25,2.25,4,1.25s-8-3-0.5-4.75"/>
	<path clip-path="url(#SVGID_2_)" fill="none" stroke="#8BDCFC" d="M-2.25,30C0,30.5,2,30,3,29.5s-2.5-3-4.75-3.75"/>
	<path clip-path="url(#SVGID_2_)" fill="none" stroke="#8BDCFC" d="M-1.75,20.75c3.75-0.5,7.25-1.5,9.75-1s7.75-0.5,9.75,3"/>
	<path clip-path="url(#SVGID_2_)" fill="none" stroke="#8BDCFC" d="M69.75,30C72,30.5,74,30,75,29.5s-2.5-3-4.75-3.75s-3.75-4.5,0-5
		s7.25-1.5,9.75-1"/>
	<path clip-path="url(#SVGID_2_)" fill="none" stroke="#8BDCFC" d="M68.5,29.75c-1.25-0.75-2-2.25-2-4s-2-7.5-5-7.75
		s-20.25-2-20.75,0.25s3.25,4.5,4,5.5s0.5,3.25-0.75,3.5s-4,1-3.75-0.5s-1-3.25-2.5-1.5C37,26.125,35.093,26.75,34,27.5"/>
	<path clip-path="url(#SVGID_2_)" fill="none" stroke="#8BDCFC" d="M32.25,28.75c-1.75,1.75-4.75,3-6.75,3s-6.25-0.5-6-2.75
		s0.25-3.25-0.25-4.25"/>
	<path clip-path="url(#SVGID_2_)" fill="none" stroke="#8BDCFC" d="M-1.5,16.75c3.5,0.5,10.75,2,12.5,2c0.554,0,1.784,0,3.247,0.056
		"/>
	<path clip-path="url(#SVGID_2_)" fill="none" stroke="#8BDCFC" d="M18.236,19.105c2,0.249,3.748,0.673,4.264,1.395
		c1.25,1.75-0.25,4.75-0.75,6.25s-1,2.75,0.5,2.75s6.75,0.25,6-1.25S25,26,25.75,24.5s7-2.5,8.25-2.25s3.75,1.25,4.75,0.25
		S38,21,38.5,19"/>
	<path clip-path="url(#SVGID_2_)" fill="none" stroke="#8BDCFC" d="M70.5,16.75c3.5,0.5,10.75,2,12.5,2"/>
	<path clip-path="url(#SVGID_2_)" fill="none" stroke="#8BDCFC" d="M39.5,17.5c2-1,3.25-2.25,7.75-2s17.5,1.25,18,2.25
		s2,1.75,2.5,0.5s1.25-1.5,1.25-1.5"/>
	<path clip-path="url(#SVGID_2_)" fill="none" stroke="#8BDCFC" d="M-1,8.25C0.5,9.75,2.5,11,4.5,12s5,2,5.25,0.75S7,9.5,8.75,9.5
		s3.25,2,6.5,1.75s9.25-4,7.25-4.75S18.75,3,17,2s-2.75-1-4-1s-4-1.25-2-2"/>
	<path clip-path="url(#SVGID_2_)" fill="none" stroke="#8BDCFC" d="M22.25-0.5c1,2,2.25,3.25,2.5,5s-0.5,4.75,2,4.75
		c0.634,0,1.316-0.049,2.014-0.156"/>
	<path clip-path="url(#SVGID_2_)" fill="none" stroke="#8BDCFC" d="M30.812,8.594C32.187,8.125,33.5,7.375,34.5,6.25
		c2-2.25,0.25-2.75,0.5-4s6-4,7-3.25s-1.25,0-2.25,1.75s-4.25,6.25,1,6.5S47,8.5,47.25,9.5s5,0.75,5-0.5s1.5-6,2-4.75s2,3.5,5,5"/>
	<path clip-path="url(#SVGID_2_)" fill="none" stroke="#8BDCFC" d="M71,8.25c1.5,1.5,3.5,2.75,5.5,3.75"/>
	<path clip-path="url(#SVGID_2_)" fill="none" stroke="#8BDCFC" d="M68.25,3.5c2.25-0.5,7,0,6,1.75"/>
	<path clip-path="url(#SVGID_2_)" fill="none" stroke="#8BDCFC" d="M58,4c0.75,1,3.25,2.25,4,3.25s2.25,2.5,3,0.75s-0.25-3.5,1.5-4"
		/>
	<path clip-path="url(#SVGID_2_)" fill="none" stroke="#8BDCFC" d="M70.25,7.5C68.75,6,67,5.25,67,6.25S69.75,8,68.75,9.5
		s-5,2.5-6.5,1.75S60.5,10,60.5,10"/>
	<path clip-path="url(#SVGID_2_)" fill="none" stroke="#8BDCFC" d="M-1.5,14.25c1.75,0.5,10.25,2.75,14.25,2.5S23.5,16.25,24.5,17
		s0.25,2,0.5,3.25s1,2.25,2.25,1s3.75-2,5-1.5s3.5,1.25,3.25,0s-2.75-3.25-1.5-5.5s7-6.5,6.5-4.25s-1.25,5.25,0.5,4.5s5-2,8-1.5"/>
	<path clip-path="url(#SVGID_2_)" fill="none" stroke="#8BDCFC" d="M70.5,14.25c1.75,0.5,10.25,2.75,14.25,2.5"/>
	<path clip-path="url(#SVGID_2_)" fill="none" stroke="#8BDCFC" d="M68.75,14c-1.5-0.5-3.61-0.197-3.25,1c0.75,2.5-3.25-0.25-6-0.75
		s-6-0.75-7-0.75"/>
	<path clip-path="url(#SVGID_2_)" fill="none" stroke="#8BDCFC" d="M-1.25,11.5c3,1.5,9.5,4,16,3.75S21,13.5,19.5,13.5
		s0.25-2.5,2.25-2.5s4.5,1.5,4.75,3.25s1,3,2.25,2.75s1-1,2.75-4s2.5-3,4-4.75s1.5,0,2.25,0.25S44,7.75,44,9s-3.75,3-2,3
		s9.75-1.5,11.5-0.75"/>
	<path clip-path="url(#SVGID_2_)" fill="none" stroke="#8BDCFC" d="M70.75,11.5c3,1.5,9.5,4,16,3.75"/>
	<path clip-path="url(#SVGID_2_)" fill="none" stroke="#8BDCFC" d="M70.25,11.25c-2-0.875-4.25,2.25-7,1.75S58.5,12,57,11.75
		s-2.25-0.25-2.25-0.25"/>
	<path clip-path="url(#SVGID_2_)" fill="none" stroke="#8BDCFC" d="M13,73c-1.25,0-4-1.25-2-2c2.75-2,9.5-2.25,11.25,0.5
		c1,2,2.25,3.25,2.5,5"/>
	<path clip-path="url(#SVGID_2_)" fill="none" stroke="#8BDCFC" d="M35,74.25c0.25-1.25,6-4,7-3.25s-1.25,0-2.25,1.75"/>
	<path clip-path="url(#SVGID_2_)" fill="none" stroke="#8BDCFC" d="M61.25-1.25C62.5,0,62.75,2.5,64,1.75S66.75-0.5,67.5-1"/>
	<path clip-path="url(#SVGID_2_)" fill="none" stroke="#8BDCFC" d="M5.25,60.25c-4.468,1.479-6.637,6.06-10.5,8.5
		c-1.516,0.958-2.624,1.114-3.934,0.757c-1.233-0.338-0.398-2.072-0.547-3.259c-0.183-1.469,1.57-0.876,2.175-1.882
		C-6.953,63.36-6.75,62.875-7,61.625"/>
	<path clip-path="url(#SVGID_2_)" fill="none" stroke="#8BDCFC" d="M-2.625,62.375c1.508-0.742,3.13-1.227,4.5-2.25"/>
	<path clip-path="url(#SVGID_2_)" fill="none" stroke="#8BDCFC" d="M-26.25,48c1.5-0.25,6.25-1,7.5-2.25s-1.75-5-0.25-5.5
		s5.5,0.25,7,1.5s2.75,5,3.25,7.25S-5,53.75-4.5,55.5s0,4.5,0.5,5s1-1.5,1.75-1.75c1.677-0.56,3.75-2.5,5.25-4"/>
	<path clip-path="url(#SVGID_2_)" fill="none" stroke="#8BDCFC" d="M3,52c-1.5,1.5-3.5,0.5-7.5-0.5c0,0-2.25-1-2.5-6.5
		s-3.75-6.75-6.25-7.5s-12.75-2-13.5-0.5s3.75,3.5,4.5,5s-0.25,3.75-2,3.5S-26,42.75-27.5,42s-5.5-1-5.75,1.25s-4.25,2.25-4.25,2.25
		c-2.5-0.5-3,4-5,4S-45,45-47,43c-1-1-2.75-1.25-4.688-1.25"/>
	<path clip-path="url(#SVGID_2_)" fill="none" stroke="#8BDCFC" d="M-3.25,48.25C-1.75,49,0,50.5,2,49.5"/>
	<path clip-path="url(#SVGID_2_)" fill="none" stroke="#8BDCFC" d="M-2.75,69.25c1-1.25,2.75-3,4.5-4.75"/>
	<path clip-path="url(#SVGID_2_)" fill="none" stroke="#8BDCFC" d="M-1.5,44.75c1.75,1,2,2,4,1.25"/>
	<path clip-path="url(#SVGID_2_)" fill="none" stroke="#8BDCFC" d="M-14-6.5C-15-5-15-2-13.75-0.75S-11.25,0-11,1.5
		s1.5,3.25,2.5,3.25S-6,2.75-5.25,2c1-1,2.5-1,2.5-1c1.75,0.5,5.5,0.25,6,1.75"/>
	<path clip-path="url(#SVGID_2_)" fill="none" stroke="#8BDCFC" d="M-2.5,36c1.25,0.5,3.25,2.25,4,1.25s-8-3-0.5-4.75"/>
	<path clip-path="url(#SVGID_2_)" fill="none" stroke="#8BDCFC" d="M-2.25,30C0,30.5,2,30,3,29.5s-2.5-3-4.75-3.75s-3.75-4.5,0-5
		s7.25-1.5,9.75-1"/>
	<path clip-path="url(#SVGID_2_)" fill="none" stroke="#8BDCFC" d="M-1.5,16.75c3.5,0.5,10.75,2,12.5,2"/>
	<path clip-path="url(#SVGID_2_)" fill="none" stroke="#8BDCFC" d="M-1,8.25C0.5,9.75,2.5,11,4.5,12"/>
	<path clip-path="url(#SVGID_2_)" fill="none" stroke="#8BDCFC" d="M-3.75,3.5c2.25-0.5,7,0,6,1.75"/>
	<path clip-path="url(#SVGID_2_)" fill="none" stroke="#8BDCFC" d="M-1.5,14.25c1.75,0.5,10.25,2.75,14.25,2.5"/>
	<path clip-path="url(#SVGID_2_)" fill="none" stroke="#8BDCFC" d="M-1.25,11.5c3,1.5,9.5,4,16,3.75"/>
	<path clip-path="url(#SVGID_2_)" fill="none" stroke="#8BDCFC" d="M12.75,2c-2.75,0.25-7-0.25-6-3s7.5-4.5,8.25-6
		s2.75-1.75,3.75,0.25s3.75,5.25,5,5.75S28,2,27,3.75"/>
	<path clip-path="url(#SVGID_2_)" fill="none" stroke="#8BDCFC" d="M33.75,4c-0.5-1.25-1.75-3.25,0-4.5s10.25-3.75,12-2.75
		s1.75,2,0.5,3.25s-6.5,1.25-5.75,2.5"/>
	<path clip-path="url(#SVGID_2_)" fill="none" stroke="#8BDCFC" d="M4.25,1.5c0,0-4-3.5-2-4s4,0,6-1.25s5.25-3.25,6-4.75
		S16-11,16.75-10s2,2,3.75,2.5s3-1,3.75,0.75s0,4.5,1.75,5s3.75,1,3.5,2.75"/>
	<path clip-path="url(#SVGID_2_)" fill="none" stroke="#8BDCFC" d="M30.25,3.75c0.5-1.25,0-4,1.5-5s6.25-2.75,7-4
		c0.691-1.152,3.931-1.879,6.001-1.986"/>
	<path clip-path="url(#SVGID_2_)" fill="none" stroke="#8BDCFC" d="M46.5-7.25c0.23,0.176,1.937,0.188,2.25,0.75
		C50-4.25,50.25-0.25,48.5,1"/>
	<path clip-path="url(#SVGID_2_)" fill="none" stroke="#8BDCFC" d="M51.75,0.75C52.5-1.5,54-8,52.5-8.75s-4.75-1.5-2.75-3.5
		S55.5-16,56.5-15.5s4.5,3.5,3.75,5.25S59-8,58-6.5S57-2,58.25-0.75S60.75,0,61,1.5"/>
	<path clip-path="url(#SVGID_2_)" fill="none" stroke="#8BDCFC" d="M58-18.25c1-0.25,2.25,1.5,2.5,3s2.25,2.75,2.5,3.75
		s-2.25,5-2.75,6.25s-0.25,2.75,1,4s1.5,3.75,2.75,3S66.75-0.5,67.5-1"/>
	<path clip-path="url(#SVGID_2_)" fill="none" stroke="#8BDCFC" d="M54,1.25c0.75-0.5,0.75-1,0.5-3s0.75-6.75,0-7.75s-1.5-3,0-2.5
		c0.824,0.274,2.514-0.086,2.75,1.375c0.192,1.197-1,4.199-1,4.875c0,1.5-0.375,5.601-0.375,6.875"/>
	<path clip-path="url(#SVGID_2_)" fill="none" stroke="#8BDCFC" d="M13,1c-1.25,0-4-1.25-2-2c2.75-2,9.5-2.25,11.25,0.5
		c1,2,2.25,3.25,2.5,5"/>
	<path clip-path="url(#SVGID_2_)" fill="none" stroke="#8BDCFC" d="M35,2.25c0.25-1.25,6-4,7-3.25s-1.25,0-2.25,1.75"/>
</g>
<g>
</g>
<g>
</g>
<g>
</g>
<g>
</g>
<g>
</g>
<g>
</g>
<g>
</g>
<g>
</g>
<g>
</g>
<g>
</g>
<g>
</g>
<g>
</g>
<g>
</g>
<g>
</g>
<g>
</g>
</svg>
