<?xml version="1.0" encoding="utf-8"?>
<!-- Generator: Adobe Illustrator 16.2.0, SVG Export Plug-In . SVG Version: 6.00 Build 0)  -->
<!DOCTYPE svg PUBLIC "-//W3C//DTD SVG 1.1//EN" "http://www.w3.org/Graphics/SVG/1.1/DTD/svg11.dtd">
<svg version="1.1" id="Layer_1" xmlns="http://www.w3.org/2000/svg" xmlns:xlink="http://www.w3.org/1999/xlink" x="0px" y="0px"
	 width="72px" height="72px" viewBox="0 0 72 72" enable-background="new 0 0 72 72" xml:space="preserve">
<g>
	<defs>
		<rect id="SVGID_1_" width="72" height="72"/>
	</defs>
	<clipPath id="SVGID_2_">
		<use xlink:href="#SVGID_1_"  overflow="visible"/>
	</clipPath>
	<g clip-path="url(#SVGID_2_)">
		<g>
			<g>
				<path fill="#8BDCFC" d="M20.999,3.101c-0.09,0-0.18-0.039-0.25-0.1c-0.06-0.07-0.1-0.16-0.1-0.25s0.04-0.18,0.1-0.25
					c0.141-0.131,0.36-0.131,0.49,0c0.07,0.07,0.11,0.16,0.11,0.25s-0.04,0.18-0.101,0.25C21.18,3.062,21.09,3.101,20.999,3.101z"/>
				<path fill="#8BDCFC" d="M19.999,8.351c-0.09,0-0.18-0.039-0.25-0.1c-0.06-0.07-0.1-0.16-0.1-0.25c0-0.1,0.04-0.189,0.11-0.25
					c0.109-0.12,0.35-0.131,0.489,0c0.061,0.061,0.101,0.15,0.101,0.25c0,0.09-0.04,0.18-0.101,0.25
					C20.18,8.312,20.1,8.351,19.999,8.351z"/>
				<path fill="#8BDCFC" d="M20.249,10.601c-0.09,0-0.18-0.039-0.25-0.1c-0.06-0.07-0.1-0.16-0.1-0.25s0.04-0.18,0.1-0.25
					c0.131-0.131,0.36-0.131,0.5,0c0.061,0.07,0.101,0.16,0.101,0.25s-0.04,0.18-0.101,0.25
					C20.43,10.562,20.34,10.601,20.249,10.601z"/>
				<path fill="#8BDCFC" d="M15.249,10.601c-0.09,0-0.18-0.039-0.25-0.1c-0.06-0.07-0.1-0.16-0.1-0.25c0-0.1,0.04-0.18,0.1-0.25
					c0.12-0.12,0.36-0.131,0.5,0c0.061,0.07,0.101,0.16,0.101,0.25s-0.04,0.18-0.101,0.25C15.43,10.562,15.34,10.601,15.249,10.601z
					"/>
				<path fill="#8BDCFC" d="M22.749,20.101c-0.09,0-0.18-0.039-0.25-0.1c-0.06-0.07-0.1-0.16-0.1-0.25s0.04-0.18,0.1-0.25
					c0.141-0.131,0.36-0.131,0.49,0c0.07,0.07,0.11,0.16,0.11,0.25s-0.04,0.18-0.101,0.25C22.93,20.062,22.84,20.101,22.749,20.101z
					"/>
				<path fill="#8BDCFC" d="M15.249,23.101c-0.09,0-0.18-0.039-0.25-0.1c-0.06-0.07-0.1-0.16-0.1-0.25c0-0.1,0.04-0.189,0.11-0.25
					c0.109-0.12,0.35-0.131,0.489,0c0.061,0.061,0.101,0.15,0.101,0.25c0,0.09-0.04,0.18-0.101,0.25
					C15.43,23.062,15.34,23.101,15.249,23.101z"/>
				<path fill="#8BDCFC" d="M13.999,24.101c-0.09,0-0.18-0.039-0.25-0.1c-0.06-0.07-0.1-0.16-0.1-0.25s0.04-0.18,0.1-0.25
					c0.141-0.131,0.36-0.131,0.49,0c0.07,0.07,0.11,0.16,0.11,0.25s-0.04,0.18-0.101,0.25C14.18,24.062,14.1,24.101,13.999,24.101z"
					/>
				<path fill="#8BDCFC" d="M23.999,27.101c-0.09,0-0.18-0.039-0.25-0.1c-0.06-0.07-0.1-0.16-0.1-0.25c0-0.1,0.04-0.189,0.11-0.25
					c0.109-0.12,0.359-0.131,0.489,0c0.061,0.07,0.101,0.16,0.101,0.25s-0.04,0.18-0.101,0.24
					C24.18,27.062,24.09,27.101,23.999,27.101z"/>
				<path fill="#8BDCFC" d="M30.749,25.851c-0.09,0-0.18-0.039-0.25-0.1c-0.06-0.07-0.1-0.16-0.1-0.25s0.04-0.18,0.1-0.25
					c0.141-0.131,0.36-0.131,0.49,0c0.07,0.07,0.11,0.16,0.11,0.25s-0.04,0.18-0.101,0.25C30.93,25.812,30.84,25.851,30.749,25.851z
					"/>
				<path fill="#8BDCFC" d="M31.249,23.351c-0.09,0-0.18-0.039-0.25-0.1c-0.06-0.07-0.1-0.16-0.1-0.25c0-0.1,0.04-0.189,0.11-0.25
					c0.12-0.131,0.35-0.131,0.489,0c0.061,0.061,0.101,0.15,0.101,0.25c0,0.09-0.04,0.18-0.101,0.25
					C31.43,23.312,31.35,23.351,31.249,23.351z"/>
				<path fill="#8BDCFC" d="M29.249,18.351c-0.09,0-0.18-0.039-0.25-0.1c-0.06-0.07-0.1-0.16-0.1-0.25s0.04-0.18,0.1-0.25
					c0.141-0.131,0.36-0.131,0.49,0c0.07,0.07,0.11,0.16,0.11,0.25s-0.04,0.18-0.101,0.25C29.43,18.312,29.34,18.351,29.249,18.351z
					"/>
				<path fill="#8BDCFC" d="M33.999,19.851c-0.09,0-0.18-0.039-0.25-0.1c-0.06-0.07-0.1-0.16-0.1-0.25s0.04-0.18,0.1-0.25
					c0.141-0.131,0.36-0.131,0.49,0c0.07,0.07,0.11,0.16,0.11,0.25s-0.04,0.18-0.101,0.25C34.18,19.812,34.09,19.851,33.999,19.851z
					"/>
				<path fill="#8BDCFC" d="M31.499,14.851c-0.09,0-0.18-0.039-0.25-0.1c-0.06-0.07-0.1-0.16-0.1-0.25s0.04-0.18,0.1-0.25
					c0.141-0.131,0.36-0.131,0.49,0c0.07,0.07,0.11,0.16,0.11,0.25s-0.04,0.18-0.101,0.25C31.68,14.812,31.59,14.851,31.499,14.851z
					"/>
				<path fill="#8BDCFC" d="M31.749,11.851c-0.09,0-0.18-0.039-0.25-0.1c-0.06-0.07-0.1-0.16-0.1-0.25s0.04-0.18,0.1-0.25
					c0.141-0.131,0.36-0.131,0.5,0c0.061,0.07,0.101,0.16,0.101,0.25s-0.04,0.18-0.101,0.25
					C31.93,11.812,31.84,11.851,31.749,11.851z"/>
				<path fill="#8BDCFC" d="M32.249,7.101c-0.09,0-0.18-0.039-0.25-0.1c-0.06-0.07-0.1-0.16-0.1-0.25s0.04-0.18,0.1-0.25
					c0.141-0.131,0.36-0.131,0.49,0c0.07,0.07,0.11,0.16,0.11,0.25s-0.04,0.18-0.101,0.25C32.43,7.062,32.34,7.101,32.249,7.101z"/>
				<path fill="#8BDCFC" d="M31.999,3.101c-0.09,0-0.18-0.039-0.25-0.1c-0.06-0.07-0.1-0.16-0.1-0.25c0-0.1,0.04-0.189,0.11-0.25
					c0.12-0.131,0.35-0.131,0.489,0c0.061,0.061,0.101,0.15,0.101,0.25c0,0.09-0.04,0.18-0.101,0.25
					C32.18,3.062,32.09,3.101,31.999,3.101z"/>
				<path fill="#8BDCFC" d="M33.999,1.351c-0.09,0-0.18-0.039-0.25-0.109c-0.06-0.051-0.1-0.15-0.1-0.24c0-0.1,0.04-0.189,0.11-0.25
					c0.12-0.131,0.359-0.131,0.489,0c0.061,0.061,0.101,0.15,0.101,0.25c0,0.09-0.04,0.189-0.11,0.25
					C34.18,1.312,34.09,1.351,33.999,1.351z"/>
				<path fill="#8BDCFC" d="M41.499,7.101c-0.09,0-0.18-0.039-0.25-0.1c-0.069-0.07-0.1-0.16-0.1-0.25s0.04-0.18,0.1-0.25
					c0.15-0.141,0.36-0.131,0.49,0c0.07,0.07,0.11,0.16,0.11,0.25s-0.04,0.18-0.101,0.25C41.68,7.062,41.59,7.101,41.499,7.101z"/>
				<path fill="#8BDCFC" d="M45.499,6.851c-0.09,0-0.18-0.039-0.25-0.1c-0.06-0.07-0.1-0.15-0.1-0.25s0.04-0.18,0.1-0.25
					c0.141-0.131,0.36-0.131,0.49,0c0.07,0.07,0.11,0.16,0.11,0.25s-0.04,0.18-0.101,0.25C45.68,6.812,45.59,6.851,45.499,6.851z"/>
				<path fill="#8BDCFC" d="M42.499,13.601c-0.09,0-0.18-0.039-0.25-0.1c-0.06-0.07-0.1-0.16-0.1-0.25c0-0.1,0.04-0.189,0.11-0.25
					c0.12-0.131,0.35-0.131,0.489,0c0.061,0.061,0.101,0.15,0.101,0.25c0,0.09-0.04,0.18-0.101,0.25
					C42.68,13.562,42.59,13.601,42.499,13.601z"/>
				<path fill="#8BDCFC" d="M46.999,14.351c-0.09,0-0.18-0.039-0.25-0.1c-0.06-0.07-0.1-0.16-0.1-0.25c0-0.1,0.04-0.189,0.11-0.25
					c0.12-0.131,0.35-0.131,0.489,0c0.061,0.07,0.101,0.16,0.101,0.25s-0.03,0.17-0.101,0.24
					C47.18,14.312,47.09,14.351,46.999,14.351z"/>
				<path fill="#8BDCFC" d="M46.999,16.351c-0.09,0-0.18-0.039-0.25-0.1c-0.06-0.07-0.1-0.16-0.1-0.25c0-0.1,0.04-0.189,0.11-0.25
					c0.12-0.131,0.359-0.131,0.489,0c0.061,0.07,0.101,0.16,0.101,0.25s-0.04,0.17-0.101,0.24
					C47.18,16.312,47.09,16.351,46.999,16.351z"/>
				<path fill="#8BDCFC" d="M38.999,20.851c-0.09,0-0.18-0.039-0.25-0.1c-0.06-0.07-0.1-0.16-0.1-0.25s0.04-0.18,0.1-0.25
					c0.141-0.131,0.36-0.131,0.49,0c0.07,0.061,0.11,0.16,0.11,0.25s-0.04,0.18-0.101,0.25C39.18,20.812,39.09,20.851,38.999,20.851
					z"/>
				<path fill="#8BDCFC" d="M50.249,13.601c-0.09,0-0.18-0.039-0.25-0.1c-0.069-0.07-0.1-0.16-0.1-0.25s0.03-0.18,0.1-0.25
					c0.141-0.131,0.37-0.131,0.5,0c0.061,0.07,0.101,0.16,0.101,0.25s-0.04,0.18-0.101,0.25
					C50.43,13.562,50.34,13.601,50.249,13.601z"/>
				<path fill="#8BDCFC" d="M52.249,12.101c-0.09,0-0.18-0.039-0.25-0.109c-0.06-0.061-0.1-0.15-0.1-0.24
					c0-0.1,0.04-0.189,0.11-0.25c0.12-0.12,0.35-0.131,0.489,0c0.061,0.061,0.101,0.15,0.101,0.25c0,0.09-0.04,0.18-0.101,0.25
					C52.43,12.062,52.34,12.101,52.249,12.101z"/>
				<path fill="#8BDCFC" d="M54.749,11.101c-0.09,0-0.18-0.039-0.25-0.109c-0.06-0.061-0.1-0.15-0.1-0.24
					c0-0.1,0.04-0.189,0.11-0.25c0.12-0.131,0.35-0.131,0.489,0c0.061,0.061,0.101,0.15,0.101,0.25c0,0.09-0.04,0.18-0.101,0.25
					C54.93,11.062,54.84,11.101,54.749,11.101z"/>
				<path fill="#8BDCFC" d="M56.499,0.851c-0.09,0-0.18-0.039-0.25-0.1c-0.06-0.07-0.1-0.16-0.1-0.25s0.04-0.18,0.1-0.25
					c0.12-0.131,0.37-0.131,0.5,0.01c0.061,0.061,0.101,0.15,0.101,0.24s-0.04,0.18-0.101,0.25
					C56.68,0.812,56.59,0.851,56.499,0.851z"/>
				<path fill="#8BDCFC" d="M67.999,3.101c-0.09,0-0.18-0.039-0.25-0.1c-0.06-0.07-0.1-0.16-0.1-0.25c0-0.1,0.04-0.189,0.11-0.25
					c0.109-0.12,0.35-0.131,0.489,0c0.061,0.061,0.101,0.15,0.101,0.25c0,0.09-0.04,0.18-0.101,0.25
					C68.18,3.062,68.1,3.101,67.999,3.101z"/>
				<path fill="#8BDCFC" d="M67.999,10.351c-0.09,0-0.18-0.039-0.25-0.109c-0.06-0.061-0.1-0.15-0.1-0.24s0.04-0.18,0.1-0.25
					c0.131-0.131,0.36-0.131,0.5,0c0.061,0.07,0.101,0.16,0.101,0.25c0,0.1-0.04,0.18-0.11,0.25
					C68.18,10.312,68.09,10.351,67.999,10.351z"/>
				<path fill="#8BDCFC" d="M64.249,12.351c-0.09,0-0.18-0.039-0.25-0.1c-0.06-0.07-0.1-0.16-0.1-0.25s0.04-0.18,0.1-0.25
					c0.131-0.131,0.36-0.131,0.49,0c0.07,0.07,0.11,0.16,0.11,0.25s-0.04,0.18-0.101,0.25C64.43,12.312,64.34,12.351,64.249,12.351z
					"/>
				<path fill="#8BDCFC" d="M65.249,15.851c-0.09,0-0.18-0.039-0.25-0.1c-0.06-0.07-0.1-0.16-0.1-0.25c0-0.1,0.04-0.18,0.1-0.25
					c0.12-0.12,0.37-0.131,0.5,0c0.061,0.07,0.101,0.16,0.101,0.25s-0.04,0.18-0.101,0.25C65.43,15.812,65.34,15.851,65.249,15.851z
					"/>
				<path fill="#8BDCFC" d="M63.999,19.851c-0.09,0-0.18-0.039-0.25-0.109c-0.06-0.061-0.1-0.15-0.1-0.24s0.04-0.18,0.1-0.25
					c0.131-0.131,0.37-0.131,0.5,0c0.061,0.07,0.101,0.16,0.101,0.25c0,0.1-0.04,0.18-0.11,0.25
					C64.18,19.812,64.09,19.851,63.999,19.851z"/>
				<path fill="#8BDCFC" d="M66.249,19.851c-0.09,0-0.18-0.039-0.25-0.1c-0.06-0.07-0.1-0.16-0.1-0.25c0-0.1,0.04-0.189,0.11-0.25
					c0.109-0.12,0.35-0.131,0.489,0c0.061,0.061,0.101,0.15,0.101,0.25c0,0.09-0.04,0.18-0.101,0.25
					C66.43,19.812,66.34,19.851,66.249,19.851z"/>
				<path fill="#8BDCFC" d="M67.999,21.351c-0.09,0-0.18-0.039-0.25-0.1c-0.06-0.07-0.1-0.16-0.1-0.25s0.04-0.18,0.1-0.25
					c0.131-0.131,0.36-0.131,0.5,0c0.061,0.07,0.101,0.16,0.101,0.25s-0.04,0.18-0.101,0.25
					C68.18,21.312,68.09,21.351,67.999,21.351z"/>
				<path fill="#8BDCFC" d="M6.999,52.351c-0.09,0-0.18-0.039-0.25-0.1c-0.06-0.07-0.1-0.16-0.1-0.25s0.04-0.18,0.1-0.25
					c0.12-0.12,0.36-0.131,0.5,0c0.061,0.07,0.101,0.16,0.101,0.25s-0.04,0.18-0.101,0.25C7.18,52.312,7.09,52.351,6.999,52.351z"/>
				<path fill="#8BDCFC" d="M7.249,54.601c-0.09,0-0.18-0.039-0.25-0.1c-0.06-0.07-0.1-0.16-0.1-0.25s0.04-0.18,0.1-0.25
					c0.12-0.131,0.36-0.131,0.5,0c0.061,0.07,0.101,0.16,0.101,0.25s-0.04,0.18-0.101,0.25C7.43,54.562,7.34,54.601,7.249,54.601z"
					/>
				<path fill="#8BDCFC" d="M2.249,54.601c-0.09,0-0.18-0.039-0.25-0.1c-0.06-0.07-0.1-0.16-0.1-0.25s0.04-0.18,0.1-0.25
					c0.12-0.12,0.36-0.131,0.5,0c0.061,0.07,0.101,0.16,0.101,0.25s-0.04,0.18-0.101,0.25C2.43,54.562,2.34,54.601,2.249,54.601z"/>
				<path fill="#8BDCFC" d="M9.749,64.101c-0.09,0-0.18-0.039-0.25-0.1c-0.06-0.07-0.1-0.16-0.1-0.25s0.04-0.18,0.1-0.25
					c0.131-0.131,0.36-0.131,0.49,0c0.07,0.07,0.11,0.16,0.11,0.25s-0.04,0.18-0.101,0.25C9.93,64.062,9.84,64.101,9.749,64.101z"/>
				<path fill="#8BDCFC" d="M0.999,68.101c-0.09,0-0.18-0.039-0.25-0.1c-0.06-0.07-0.1-0.16-0.1-0.25s0.04-0.18,0.1-0.25
					c0.12-0.12,0.36-0.131,0.5,0c0.061,0.07,0.101,0.16,0.101,0.25s-0.04,0.18-0.101,0.25C1.18,68.062,1.09,68.101,0.999,68.101z"/>
				<path fill="#8BDCFC" d="M10.999,71.101c-0.09,0-0.18-0.039-0.25-0.1c-0.06-0.07-0.1-0.16-0.1-0.25s0.04-0.18,0.1-0.25
					c0.12-0.12,0.37-0.131,0.5,0c0.061,0.07,0.101,0.16,0.101,0.25s-0.04,0.18-0.101,0.25C11.18,71.062,11.09,71.101,10.999,71.101z
					"/>
				<path fill="#8BDCFC" d="M18.249,67.351c-0.09,0-0.18-0.039-0.25-0.1c-0.06-0.07-0.1-0.16-0.1-0.25s0.04-0.189,0.1-0.25
					c0.12-0.12,0.36-0.131,0.49,0c0.07,0.07,0.11,0.16,0.11,0.25s-0.04,0.18-0.101,0.25C18.43,67.312,18.34,67.351,18.249,67.351z"
					/>
				<path fill="#8BDCFC" d="M16.249,62.351c-0.09,0-0.18-0.039-0.25-0.1c-0.06-0.07-0.1-0.16-0.1-0.25s0.04-0.18,0.1-0.25
					c0.12-0.131,0.36-0.131,0.5,0c0.061,0.07,0.101,0.16,0.101,0.25s-0.04,0.18-0.101,0.25C16.43,62.312,16.34,62.351,16.249,62.351
					z"/>
				<path fill="#8BDCFC" d="M19.499,57.851c-0.09,0-0.18-0.039-0.25-0.1c-0.06-0.07-0.1-0.16-0.1-0.25c0-0.1,0.04-0.189,0.11-0.25
					c0.12-0.12,0.359-0.131,0.489,0c0.061,0.061,0.101,0.15,0.101,0.25c0,0.09-0.04,0.18-0.101,0.25
					C19.68,57.812,19.59,57.851,19.499,57.851z"/>
				<path fill="#8BDCFC" d="M18.749,55.851c-0.09,0-0.18-0.039-0.25-0.1c-0.06-0.07-0.1-0.16-0.1-0.25c0-0.1,0.04-0.189,0.11-0.25
					c0.109-0.12,0.35-0.131,0.489,0c0.061,0.061,0.101,0.15,0.101,0.25c0,0.09-0.04,0.18-0.101,0.25
					C18.93,55.812,18.84,55.851,18.749,55.851z"/>
				<path fill="#8BDCFC" d="M16.249,54.851c-0.09,0-0.18-0.039-0.25-0.1c-0.06-0.07-0.1-0.16-0.1-0.25c0-0.1,0.04-0.189,0.11-0.25
					c0.109-0.12,0.35-0.131,0.489,0c0.061,0.061,0.101,0.15,0.101,0.25c0,0.09-0.04,0.18-0.101,0.25
					C16.43,54.812,16.34,54.851,16.249,54.851z"/>
				<path fill="#8BDCFC" d="M19.249,51.101c-0.09,0-0.18-0.039-0.25-0.1c-0.06-0.07-0.1-0.16-0.1-0.25c0-0.1,0.04-0.189,0.11-0.25
					c0.12-0.12,0.359-0.131,0.489,0c0.061,0.061,0.101,0.15,0.101,0.25c0,0.09-0.04,0.18-0.101,0.25
					C19.43,51.062,19.34,51.101,19.249,51.101z"/>
				<path fill="#8BDCFC" d="M18.999,47.101c-0.09,0-0.18-0.039-0.25-0.1c-0.06-0.07-0.1-0.16-0.1-0.25s0.04-0.18,0.1-0.25
					c0.12-0.12,0.36-0.131,0.5,0c0.061,0.07,0.101,0.16,0.101,0.25s-0.04,0.18-0.101,0.25C19.18,47.062,19.09,47.101,18.999,47.101z
					"/>
				<path fill="#8BDCFC" d="M16.249,47.351c-0.09,0-0.18-0.039-0.25-0.1c-0.06-0.07-0.1-0.16-0.1-0.25s0.04-0.18,0.1-0.25
					c0.12-0.131,0.36-0.131,0.5,0c0.061,0.07,0.101,0.16,0.101,0.25s-0.04,0.18-0.101,0.25C16.43,47.312,16.34,47.351,16.249,47.351
					z"/>
				<path fill="#8BDCFC" d="M32.499,50.851c-0.09,0-0.18-0.039-0.25-0.1c-0.06-0.07-0.1-0.16-0.1-0.25c0-0.1,0.04-0.189,0.11-0.25
					c0.12-0.131,0.35-0.131,0.489,0c0.061,0.061,0.101,0.15,0.101,0.25c0,0.09-0.04,0.18-0.101,0.25
					C32.68,50.812,32.59,50.851,32.499,50.851z"/>
				<path fill="#8BDCFC" d="M27.249,54.351c-0.09,0-0.18-0.039-0.25-0.1c-0.06-0.07-0.1-0.16-0.1-0.25s0.04-0.18,0.1-0.25
					c0.131-0.131,0.36-0.131,0.5,0c0.061,0.07,0.101,0.16,0.101,0.25s-0.04,0.18-0.101,0.25
					C27.43,54.312,27.34,54.351,27.249,54.351z"/>
				<path fill="#8BDCFC" d="M31.999,55.851c-0.09,0-0.18-0.039-0.25-0.1c-0.06-0.07-0.1-0.16-0.1-0.25s0.04-0.18,0.1-0.25
					c0.131-0.131,0.36-0.131,0.5,0c0.061,0.07,0.101,0.16,0.101,0.25s-0.04,0.18-0.101,0.25
					C32.18,55.812,32.09,55.851,31.999,55.851z"/>
				<path fill="#8BDCFC" d="M31.999,57.601c-0.09,0-0.18-0.039-0.239-0.1c-0.07-0.07-0.11-0.16-0.11-0.25c0-0.1,0.04-0.189,0.1-0.25
					c0.131-0.131,0.36-0.131,0.5,0c0.061,0.061,0.101,0.15,0.101,0.25c0,0.09-0.04,0.18-0.101,0.25
					C32.18,57.562,32.09,57.601,31.999,57.601z"/>
				<path fill="#8BDCFC" d="M33.999,58.351c-0.09,0-0.18-0.039-0.25-0.1c-0.06-0.07-0.1-0.16-0.1-0.25s0.04-0.18,0.1-0.25
					c0.131-0.131,0.37-0.131,0.5,0c0.061,0.07,0.101,0.16,0.101,0.25s-0.04,0.18-0.101,0.25
					C34.18,58.312,34.09,58.351,33.999,58.351z"/>
				<path fill="#8BDCFC" d="M25.999,64.851c-0.09,0-0.18-0.039-0.25-0.1c-0.06-0.07-0.1-0.16-0.1-0.25s0.04-0.18,0.1-0.25
					c0.141-0.131,0.36-0.131,0.49,0c0.07,0.07,0.11,0.16,0.11,0.25s-0.04,0.18-0.101,0.25C26.18,64.812,26.09,64.851,25.999,64.851z
					"/>
				<path fill="#8BDCFC" d="M35.999,56.351c-0.09,0-0.18-0.039-0.25-0.1c-0.06-0.07-0.1-0.16-0.1-0.25s0.04-0.18,0.1-0.25
					c0.15-0.131,0.36-0.131,0.49,0c0.07,0.07,0.11,0.16,0.11,0.25s-0.04,0.18-0.101,0.25C36.18,56.312,36.09,56.351,35.999,56.351z"
					/>
				<path fill="#8BDCFC" d="M39.249,56.101c-0.09,0-0.18-0.039-0.239-0.1c-0.07-0.07-0.11-0.16-0.11-0.25s0.04-0.18,0.1-0.25
					c0.141-0.131,0.36-0.131,0.5,0c0.061,0.07,0.101,0.16,0.101,0.25s-0.04,0.18-0.101,0.25
					C39.43,56.062,39.34,56.101,39.249,56.101z"/>
				<path fill="#8BDCFC" d="M41.749,50.851c-0.09,0-0.18-0.039-0.25-0.1c-0.06-0.07-0.1-0.16-0.1-0.25s0.04-0.18,0.1-0.25
					c0.141-0.131,0.36-0.131,0.5,0c0.061,0.07,0.101,0.16,0.101,0.25s-0.04,0.18-0.101,0.25
					C41.93,50.812,41.84,50.851,41.749,50.851z"/>
				<path fill="#8BDCFC" d="M43.499,44.851c-0.09,0-0.18-0.039-0.25-0.109c-0.06-0.061-0.1-0.15-0.1-0.24s0.04-0.18,0.1-0.25
					c0.131-0.131,0.36-0.131,0.5,0c0.061,0.07,0.101,0.16,0.101,0.25s-0.04,0.18-0.101,0.25
					C43.68,44.812,43.59,44.851,43.499,44.851z"/>
				<path fill="#8BDCFC" d="M50.999,50.601c-0.09,0-0.18-0.039-0.25-0.1c-0.069-0.08-0.1-0.16-0.1-0.25s0.04-0.18,0.1-0.25
					c0.141-0.141,0.36-0.131,0.5,0c0.061,0.07,0.101,0.16,0.101,0.25s-0.04,0.18-0.101,0.25
					C51.18,50.562,51.09,50.601,50.999,50.601z"/>
				<path fill="#8BDCFC" d="M51.999,46.601c-0.09,0-0.18-0.039-0.25-0.109c-0.06-0.061-0.1-0.15-0.1-0.24
					c0-0.1,0.04-0.189,0.11-0.25c0.109-0.12,0.35-0.131,0.489,0c0.061,0.061,0.101,0.15,0.101,0.25c0,0.09-0.04,0.18-0.101,0.25
					C52.18,46.562,52.09,46.601,51.999,46.601z"/>
				<path fill="#8BDCFC" d="M54.999,47.101c-0.1,0-0.189-0.039-0.25-0.109c-0.06-0.061-0.1-0.15-0.1-0.24s0.04-0.189,0.1-0.25
					c0.131-0.131,0.36-0.131,0.49,0c0.07,0.07,0.11,0.15,0.11,0.25c0,0.09-0.04,0.18-0.101,0.25
					C55.18,47.062,55.09,47.101,54.999,47.101z"/>
				<path fill="#8BDCFC" d="M54.999,54.351c-0.1,0-0.189-0.039-0.25-0.109c-0.06-0.061-0.1-0.15-0.1-0.24
					c0-0.1,0.04-0.189,0.11-0.25c0.109-0.12,0.35-0.131,0.489,0c0.061,0.061,0.101,0.15,0.101,0.25c0,0.09-0.04,0.18-0.101,0.25
					C55.18,54.312,55.09,54.351,54.999,54.351z"/>
				<path fill="#8BDCFC" d="M51.249,56.351c-0.09,0-0.18-0.039-0.25-0.1c-0.06-0.07-0.1-0.16-0.1-0.25s0.04-0.18,0.1-0.25
					c0.131-0.131,0.37-0.131,0.5,0c0.07,0.07,0.101,0.16,0.101,0.25s-0.04,0.18-0.101,0.25C51.43,56.312,51.35,56.351,51.249,56.351
					z"/>
				<path fill="#8BDCFC" d="M50.999,63.851c-0.09,0-0.18-0.039-0.25-0.1c-0.06-0.07-0.1-0.16-0.1-0.25s0.03-0.18,0.1-0.24
					c0.15-0.15,0.36-0.141,0.49-0.01c0.07,0.07,0.11,0.16,0.11,0.25s-0.04,0.18-0.101,0.25C51.18,63.812,51.1,63.851,50.999,63.851z
					"/>
				<path fill="#8BDCFC" d="M53.249,63.851c-0.09,0-0.18-0.039-0.25-0.1c-0.06-0.07-0.1-0.16-0.1-0.25c0-0.1,0.04-0.189,0.11-0.25
					c0.109-0.12,0.359-0.131,0.489,0.01c0.061,0.051,0.101,0.141,0.101,0.24c0,0.09-0.04,0.18-0.101,0.25
					C53.43,63.812,53.34,63.851,53.249,63.851z"/>
				<path fill="#8BDCFC" d="M55.999,63.101c-0.09,0-0.18-0.039-0.25-0.1c-0.06-0.07-0.1-0.16-0.1-0.25s0.04-0.18,0.1-0.25
					c0.131-0.131,0.351-0.131,0.49,0c0.07,0.07,0.11,0.16,0.11,0.25s-0.04,0.18-0.101,0.25C56.18,63.062,56.09,63.101,55.999,63.101
					z"/>
				<path fill="#8BDCFC" d="M58.249,61.601c-0.09,0-0.18-0.039-0.25-0.109c-0.06-0.061-0.1-0.15-0.1-0.24s0.04-0.18,0.1-0.25
					c0.131-0.131,0.36-0.131,0.5,0c0.061,0.07,0.101,0.15,0.101,0.25c0,0.09-0.04,0.18-0.101,0.25
					C58.43,61.562,58.34,61.601,58.249,61.601z"/>
				<path fill="#8BDCFC" d="M20.999,27.101c-0.09,0-0.18-0.039-0.25-0.1c-0.06-0.07-0.1-0.16-0.1-0.25s0.04-0.18,0.1-0.25
					c0.141-0.131,0.36-0.131,0.49,0c0.07,0.07,0.11,0.16,0.11,0.25s-0.04,0.18-0.101,0.25C21.18,27.062,21.09,27.101,20.999,27.101z
					"/>
				<path fill="#8BDCFC" d="M22.749,24.101c-0.09,0-0.18-0.039-0.25-0.1c-0.06-0.07-0.1-0.16-0.1-0.25s0.04-0.18,0.1-0.25
					c0.141-0.131,0.36-0.131,0.5,0c0.061,0.07,0.101,0.16,0.101,0.25s-0.04,0.18-0.101,0.25
					C22.93,24.062,22.84,24.101,22.749,24.101z"/>
				<path fill="#8BDCFC" d="M38.999,24.851c-0.09,0-0.18-0.039-0.25-0.1c-0.06-0.07-0.1-0.16-0.1-0.25s0.04-0.18,0.1-0.25
					c0.131-0.131,0.37-0.131,0.5,0c0.061,0.07,0.101,0.16,0.101,0.25s-0.04,0.18-0.101,0.25
					C39.18,24.812,39.09,24.851,38.999,24.851z"/>
				<path fill="#8BDCFC" d="M46.249,29.101c-0.09,0-0.18-0.039-0.25-0.1c-0.069-0.07-0.1-0.16-0.1-0.25s0.04-0.18,0.1-0.24
					c0.15-0.15,0.36-0.141,0.49-0.01c0.07,0.07,0.11,0.16,0.11,0.25s-0.04,0.18-0.101,0.25C46.43,29.062,46.34,29.101,46.249,29.101
					z"/>
				<path fill="#8BDCFC" d="M55.249,28.101c-0.09,0-0.18-0.039-0.25-0.1c-0.06-0.07-0.1-0.16-0.1-0.25s0.04-0.18,0.1-0.25
					c0.12-0.12,0.36-0.141,0.5,0c0.061,0.07,0.101,0.16,0.101,0.25s-0.04,0.18-0.101,0.25C55.43,28.062,55.34,28.101,55.249,28.101z
					"/>
				<path fill="#8BDCFC" d="M51.249,25.351c-0.09,0-0.18-0.039-0.25-0.1c-0.06-0.07-0.1-0.16-0.1-0.25s0.04-0.18,0.1-0.25
					c0.131-0.131,0.37-0.131,0.5,0c0.07,0.07,0.101,0.16,0.101,0.25s-0.04,0.18-0.101,0.25C51.43,25.312,51.34,25.351,51.249,25.351
					z"/>
				<path fill="#8BDCFC" d="M51.999,29.601c-0.1,0-0.18-0.039-0.25-0.1c-0.06-0.07-0.1-0.16-0.1-0.25s0.04-0.18,0.1-0.25
					c0.141-0.131,0.36-0.131,0.49,0c0.07,0.07,0.11,0.16,0.11,0.25s-0.04,0.18-0.101,0.25C52.18,29.562,52.09,29.601,51.999,29.601z
					"/>
				<path fill="#8BDCFC" d="M62.499,35.601c-0.09,0-0.18-0.039-0.25-0.1c-0.06-0.07-0.1-0.16-0.1-0.25c0-0.1,0.04-0.189,0.11-0.25
					c0.109-0.12,0.359-0.131,0.489,0.01c0.061,0.051,0.101,0.141,0.101,0.24c0,0.09-0.04,0.18-0.101,0.25
					C62.68,35.562,62.59,35.601,62.499,35.601z"/>
				<path fill="#8BDCFC" d="M56.749,39.101c-0.09,0-0.18-0.039-0.25-0.1c-0.06-0.07-0.1-0.16-0.1-0.25s0.04-0.18,0.1-0.25
					c0.131-0.131,0.36-0.131,0.49,0c0.07,0.07,0.11,0.16,0.11,0.25s-0.04,0.18-0.101,0.25C56.93,39.062,56.84,39.101,56.749,39.101z
					"/>
				<path fill="#8BDCFC" d="M48.249,37.351c-0.09,0-0.18-0.039-0.239-0.1c-0.07-0.07-0.11-0.16-0.11-0.25s0.04-0.18,0.1-0.25
					c0.12-0.131,0.37-0.131,0.5,0.01c0.061,0.061,0.101,0.141,0.101,0.24c0,0.09-0.04,0.18-0.101,0.25
					C48.43,37.312,48.34,37.351,48.249,37.351z"/>
				<path fill="#8BDCFC" d="M47.999,41.351c-0.1,0-0.189-0.039-0.25-0.109c-0.06-0.061-0.1-0.15-0.1-0.24s0.04-0.18,0.1-0.25
					c0.12-0.12,0.36-0.131,0.5,0c0.061,0.07,0.101,0.16,0.101,0.25s-0.04,0.18-0.101,0.25C48.18,41.312,48.09,41.351,47.999,41.351z
					"/>
				<path fill="#8BDCFC" d="M53.499,45.101c-0.09,0-0.189-0.039-0.25-0.109c-0.06-0.051-0.1-0.141-0.1-0.24s0.04-0.18,0.11-0.25
					c0.109-0.12,0.35-0.131,0.489,0c0.061,0.07,0.101,0.16,0.101,0.25s-0.04,0.18-0.101,0.25
					C53.68,45.062,53.59,45.101,53.499,45.101z"/>
				<path fill="#8BDCFC" d="M62.249,48.101c-0.09,0-0.18-0.039-0.25-0.1c-0.06-0.07-0.1-0.16-0.1-0.25c0-0.1,0.04-0.189,0.11-0.25
					c0.109-0.12,0.359-0.131,0.489,0.01c0.061,0.051,0.101,0.141,0.101,0.24c0,0.09-0.04,0.18-0.101,0.25
					C62.43,48.062,62.34,48.101,62.249,48.101z"/>
				<path fill="#8BDCFC" d="M64.999,51.851c-0.09,0-0.18-0.039-0.25-0.1c-0.06-0.07-0.1-0.16-0.1-0.25c0-0.1,0.04-0.189,0.11-0.25
					c0.109-0.12,0.35-0.131,0.489,0c0.061,0.061,0.101,0.15,0.101,0.25c0,0.09-0.04,0.18-0.101,0.25
					C65.18,51.812,65.09,51.851,64.999,51.851z"/>
				<path fill="#8BDCFC" d="M69.499,45.101c-0.09,0-0.18-0.039-0.25-0.1c-0.06-0.07-0.1-0.16-0.1-0.25s0.04-0.18,0.1-0.25
					c0.12-0.131,0.36-0.131,0.5,0c0.061,0.07,0.101,0.16,0.101,0.25s-0.04,0.18-0.101,0.25C69.68,45.062,69.59,45.101,69.499,45.101
					z"/>
				<path fill="#8BDCFC" d="M59.999,39.101c-0.1,0-0.189-0.039-0.25-0.109c-0.06-0.061-0.1-0.15-0.1-0.24s0.04-0.189,0.11-0.25
					c0.12-0.131,0.35-0.131,0.489,0c0.061,0.07,0.101,0.16,0.101,0.25s-0.04,0.18-0.101,0.25
					C60.18,39.062,60.1,39.101,59.999,39.101z"/>
				<path fill="#8BDCFC" d="M32.499,47.101c-0.09,0-0.18-0.039-0.25-0.1c-0.06-0.07-0.1-0.16-0.1-0.25s0.04-0.18,0.1-0.25
					c0.141-0.131,0.36-0.131,0.49,0c0.07,0.07,0.11,0.16,0.11,0.25s-0.04,0.18-0.101,0.25C32.68,47.062,32.59,47.101,32.499,47.101z
					"/>
				<path fill="#8BDCFC" d="M26.249,37.851c-0.09,0-0.18-0.039-0.25-0.1c-0.06-0.07-0.1-0.16-0.1-0.25s0.04-0.18,0.1-0.25
					c0.141-0.131,0.36-0.131,0.49,0c0.07,0.07,0.11,0.16,0.11,0.25s-0.04,0.18-0.101,0.25C26.43,37.812,26.34,37.851,26.249,37.851z
					"/>
				<path fill="#8BDCFC" d="M29.749,35.601c-0.09,0-0.18-0.039-0.239-0.1c-0.07-0.07-0.11-0.16-0.11-0.25
					c0-0.1,0.04-0.189,0.11-0.25c0.12-0.12,0.359-0.131,0.489,0c0.061,0.061,0.101,0.15,0.101,0.25c0,0.09-0.04,0.18-0.101,0.25
					C29.93,35.562,29.84,35.601,29.749,35.601z"/>
				<path fill="#8BDCFC" d="M10.499,29.601c-0.09,0-0.18-0.039-0.25-0.1c-0.06-0.07-0.1-0.16-0.1-0.25s0.04-0.18,0.1-0.25
					c0.131-0.12,0.36-0.131,0.49,0c0.07,0.061,0.11,0.15,0.11,0.25c0,0.09-0.04,0.18-0.101,0.25
					C10.68,29.562,10.59,29.601,10.499,29.601z"/>
				<path fill="#8BDCFC" d="M5.999,31.601c-0.09,0-0.18-0.039-0.25-0.1c-0.06-0.07-0.1-0.16-0.1-0.25s0.04-0.18,0.1-0.25
					c0.131-0.131,0.36-0.131,0.49,0c0.07,0.061,0.11,0.15,0.11,0.25s-0.04,0.18-0.101,0.25C6.18,31.562,6.09,31.601,5.999,31.601z"
					/>
				<path fill="#8BDCFC" d="M2.499,35.351c-0.09,0-0.18-0.039-0.25-0.1c-0.06-0.07-0.1-0.16-0.1-0.25s0.04-0.18,0.1-0.25
					c0.12-0.131,0.37-0.131,0.5,0c0.07,0.07,0.101,0.16,0.101,0.25s-0.03,0.17-0.101,0.24C2.68,35.312,2.59,35.351,2.499,35.351z"/>
				<path fill="#8BDCFC" d="M16.999,42.101c-0.09,0-0.18-0.039-0.25-0.1c-0.06-0.07-0.1-0.16-0.1-0.25c0-0.1,0.04-0.189,0.11-0.25
					c0.13-0.131,0.359-0.131,0.489,0c0.061,0.061,0.101,0.15,0.101,0.25c0,0.09-0.04,0.18-0.101,0.25
					C17.18,42.062,17.1,42.101,16.999,42.101z"/>
				<path fill="#8BDCFC" d="M12.749,36.101c-0.09,0-0.18-0.039-0.25-0.1c-0.06-0.07-0.1-0.16-0.1-0.25c0-0.1,0.04-0.189,0.11-0.25
					c0.109-0.12,0.35-0.131,0.489,0c0.061,0.061,0.101,0.15,0.101,0.25c0,0.09-0.04,0.18-0.101,0.25
					C12.93,36.062,12.85,36.101,12.749,36.101z"/>
				<path fill="#8BDCFC" d="M26.499,30.351c-0.09,0-0.18-0.039-0.25-0.1c-0.06-0.07-0.1-0.16-0.1-0.25s0.04-0.18,0.1-0.25
					c0.131-0.131,0.37-0.131,0.5,0c0.061,0.07,0.101,0.16,0.101,0.25s-0.04,0.18-0.101,0.25
					C26.68,30.312,26.59,30.351,26.499,30.351z"/>
				<path fill="#8BDCFC" d="M39.249,30.851c-0.09,0-0.18-0.039-0.25-0.1c-0.06-0.07-0.1-0.16-0.1-0.25s0.04-0.18,0.1-0.25
					c0.131-0.131,0.36-0.131,0.5,0c0.061,0.07,0.101,0.16,0.101,0.25s-0.04,0.18-0.101,0.25
					C39.43,30.812,39.35,30.851,39.249,30.851z"/>
				<path fill="#8BDCFC" d="M38.249,32.851c-0.09,0-0.18-0.039-0.25-0.1c-0.06-0.07-0.1-0.16-0.1-0.25s0.04-0.18,0.1-0.25
					c0.131-0.131,0.37-0.131,0.5,0c0.061,0.07,0.101,0.16,0.101,0.25s-0.04,0.18-0.101,0.25
					C38.43,32.812,38.34,32.851,38.249,32.851z"/>
				<path fill="#8BDCFC" d="M27.999,42.101c-0.09,0-0.18-0.039-0.25-0.1c-0.06-0.07-0.1-0.16-0.1-0.25s0.04-0.18,0.1-0.25
					c0.131-0.131,0.37-0.131,0.5,0c0.061,0.07,0.101,0.16,0.101,0.25s-0.04,0.18-0.101,0.25
					C28.18,42.062,28.09,42.101,27.999,42.101z"/>
				<path fill="#8BDCFC" d="M6.499,20.601c-0.09,0-0.18-0.039-0.25-0.1c-0.06-0.07-0.1-0.16-0.1-0.25s0.04-0.18,0.1-0.25
					c0.12-0.131,0.36-0.131,0.5,0c0.061,0.07,0.101,0.16,0.101,0.25s-0.04,0.18-0.101,0.25C6.68,20.562,6.59,20.601,6.499,20.601z"
					/>
				<path fill="#8BDCFC" d="M9.749,18.851c-0.09,0-0.18-0.039-0.25-0.1c-0.06-0.07-0.1-0.16-0.1-0.25s0.04-0.18,0.1-0.25
					c0.131-0.131,0.36-0.131,0.49,0c0.07,0.07,0.11,0.16,0.11,0.25s-0.04,0.18-0.101,0.25C9.93,18.812,9.84,18.851,9.749,18.851z"/>
				<path fill="#8BDCFC" d="M11.749,23.601c-0.09,0-0.18-0.039-0.25-0.1c-0.06-0.07-0.1-0.16-0.1-0.25c0-0.1,0.04-0.189,0.11-0.25
					c0.109-0.12,0.35-0.131,0.489,0c0.061,0.061,0.101,0.15,0.101,0.25c0,0.09-0.04,0.18-0.101,0.25
					C11.93,23.562,11.85,23.601,11.749,23.601z"/>
				<path fill="#8BDCFC" d="M2.999,25.851c-0.09,0-0.18-0.039-0.25-0.1c-0.06-0.07-0.1-0.16-0.1-0.25s0.04-0.18,0.1-0.25
					c0.12-0.12,0.37-0.131,0.5,0c0.061,0.07,0.101,0.16,0.101,0.25s-0.04,0.18-0.101,0.25C3.18,25.812,3.09,25.851,2.999,25.851z"/>
				<path fill="#8BDCFC" d="M64.249,29.601c-0.09,0-0.18-0.039-0.239-0.1c-0.07-0.07-0.11-0.16-0.11-0.25s0.04-0.18,0.1-0.25
					c0.131-0.131,0.36-0.131,0.49,0c0.07,0.07,0.11,0.16,0.11,0.25s-0.04,0.18-0.101,0.25C64.43,29.562,64.34,29.601,64.249,29.601z
					"/>
				<path fill="#8BDCFC" d="M69.499,29.851c-0.09,0-0.18-0.039-0.25-0.1c-0.06-0.07-0.1-0.16-0.1-0.25s0.04-0.189,0.11-0.25
					c0.109-0.12,0.35-0.131,0.489,0c0.061,0.061,0.101,0.15,0.101,0.25c0,0.09-0.04,0.18-0.101,0.25
					C69.68,29.812,69.6,29.851,69.499,29.851z"/>
				<path fill="#8BDCFC" d="M1.499,9.101c-0.09,0-0.18-0.039-0.25-0.1c-0.06-0.07-0.1-0.16-0.1-0.25s0.04-0.18,0.1-0.25
					c0.12-0.12,0.37-0.131,0.5,0c0.061,0.07,0.101,0.16,0.101,0.25s-0.04,0.18-0.101,0.25C1.68,9.062,1.59,9.101,1.499,9.101z"/>
				<path fill="#8BDCFC" d="M16.499,6.101c-0.09,0-0.18-0.039-0.25-0.1c-0.06-0.07-0.1-0.16-0.1-0.25c0-0.1,0.04-0.18,0.1-0.25
					c0.12-0.12,0.36-0.131,0.5,0c0.061,0.07,0.101,0.16,0.101,0.25s-0.04,0.18-0.101,0.25C16.68,6.062,16.59,6.101,16.499,6.101z"/>
				<path fill="#8BDCFC" d="M3.749,6.101c-0.09,0-0.18-0.039-0.25-0.1c-0.06-0.07-0.1-0.16-0.1-0.25s0.04-0.18,0.1-0.25
					c0.131-0.131,0.36-0.131,0.49,0c0.07,0.07,0.11,0.16,0.11,0.25s-0.04,0.18-0.101,0.25C3.93,6.062,3.84,6.101,3.749,6.101z"/>
				<path fill="#8BDCFC" d="M12.749,14.351c-0.09,0-0.18-0.039-0.25-0.1c-0.06-0.07-0.1-0.16-0.1-0.25s0.04-0.18,0.1-0.25
					c0.131-0.131,0.36-0.131,0.49,0c0.07,0.07,0.11,0.16,0.11,0.25s-0.04,0.18-0.101,0.25C12.93,14.312,12.84,14.351,12.749,14.351z
					"/>
				<path fill="#8BDCFC" d="M18.499,19.351c-0.09,0-0.18-0.039-0.25-0.1c-0.06-0.07-0.1-0.16-0.1-0.25s0.04-0.189,0.1-0.25
					c0.131-0.131,0.36-0.131,0.49,0c0.07,0.07,0.11,0.16,0.11,0.25s-0.04,0.18-0.101,0.25C18.68,19.312,18.59,19.351,18.499,19.351z
					"/>
				<path fill="#8BDCFC" d="M21.249,37.101c-0.09,0-0.18-0.039-0.25-0.1c-0.06-0.07-0.1-0.16-0.1-0.25s0.04-0.189,0.1-0.25
					c0.12-0.12,0.36-0.131,0.49,0c0.07,0.07,0.11,0.16,0.11,0.25s-0.04,0.18-0.101,0.25C21.43,37.062,21.34,37.101,21.249,37.101z"
					/>
				<path fill="#8BDCFC" d="M0.749,44.351c-0.09,0-0.18-0.039-0.25-0.1c-0.06-0.07-0.1-0.16-0.1-0.25c0-0.1,0.04-0.189,0.11-0.25
					c0.109-0.12,0.35-0.131,0.489,0c0.061,0.061,0.101,0.15,0.101,0.25c0,0.09-0.04,0.18-0.101,0.25
					C0.93,44.312,0.84,44.351,0.749,44.351z"/>
				<path fill="#8BDCFC" d="M67.999,66.101c-0.09,0-0.18-0.039-0.25-0.1c-0.06-0.07-0.1-0.16-0.1-0.25c0-0.1,0.04-0.189,0.11-0.25
					c0.109-0.12,0.35-0.131,0.489,0c0.061,0.061,0.101,0.15,0.101,0.25c0,0.09-0.04,0.18-0.101,0.25
					C68.18,66.062,68.09,66.101,67.999,66.101z"/>
				<path fill="#8BDCFC" d="M59.749,69.851c-0.09,0-0.18-0.039-0.25-0.1c-0.069-0.07-0.1-0.16-0.1-0.25s0.04-0.18,0.1-0.25
					c0.141-0.131,0.36-0.131,0.5,0c0.061,0.061,0.101,0.15,0.101,0.25s-0.04,0.18-0.101,0.25
					C59.93,69.812,59.84,69.851,59.749,69.851z"/>
				<path fill="#8BDCFC" d="M40.499,68.101c-0.09,0-0.18-0.039-0.25-0.1c-0.06-0.07-0.1-0.16-0.1-0.25s0.04-0.18,0.1-0.25
					c0.131-0.131,0.37-0.131,0.5,0c0.061,0.07,0.101,0.16,0.101,0.25s-0.04,0.18-0.101,0.25C40.68,68.062,40.6,68.101,40.499,68.101
					z"/>
				<path fill="#8BDCFC" d="M4.499,60.101c-0.09,0-0.18-0.039-0.25-0.1c-0.06-0.07-0.1-0.16-0.1-0.25s0.04-0.18,0.1-0.25
					c0.131-0.131,0.36-0.131,0.49,0c0.07,0.07,0.11,0.16,0.11,0.25s-0.04,0.18-0.101,0.25C4.68,60.062,4.59,60.101,4.499,60.101z"/>
				<path fill="#8BDCFC" d="M26.499,59.601c-0.09,0-0.18-0.039-0.25-0.1c-0.06-0.07-0.1-0.16-0.1-0.25s0.04-0.18,0.1-0.25
					c0.141-0.131,0.36-0.131,0.49,0c0.07,0.07,0.11,0.16,0.11,0.25s-0.04,0.18-0.101,0.25C26.68,59.562,26.59,59.601,26.499,59.601z
					"/>
				<path fill="#8BDCFC" d="M37.249,48.601c-0.09,0-0.18-0.039-0.25-0.1c-0.06-0.07-0.1-0.16-0.1-0.25c0-0.1,0.04-0.18,0.1-0.25
					c0.141-0.131,0.36-0.131,0.5,0c0.061,0.07,0.101,0.16,0.101,0.25s-0.04,0.18-0.101,0.25
					C37.43,48.562,37.35,48.601,37.249,48.601z"/>
				<path fill="#8BDCFC" d="M8.749,40.351c-0.09,0-0.18-0.039-0.25-0.1c-0.06-0.07-0.1-0.16-0.1-0.25s0.04-0.18,0.1-0.25
					c0.131-0.131,0.351-0.131,0.49,0c0.07,0.07,0.11,0.16,0.11,0.25s-0.04,0.18-0.101,0.25C8.93,40.312,8.84,40.351,8.749,40.351z"
					/>
				<path fill="#8BDCFC" d="M52.249,38.101c-0.09,0-0.18-0.039-0.25-0.109c-0.06-0.061-0.1-0.15-0.1-0.24
					c0-0.1,0.04-0.189,0.11-0.25c0.109-0.12,0.35-0.131,0.489,0c0.061,0.061,0.101,0.15,0.101,0.25c0,0.09-0.04,0.18-0.101,0.25
					C52.43,38.062,52.34,38.101,52.249,38.101z"/>
				<path fill="#8BDCFC" d="M60.749,46.101c-0.09,0-0.18-0.039-0.25-0.1c-0.06-0.07-0.1-0.16-0.1-0.25c0-0.1,0.04-0.189,0.11-0.25
					c0.109-0.12,0.35-0.131,0.489,0c0.061,0.061,0.101,0.15,0.101,0.25c0,0.09-0.04,0.18-0.101,0.25
					C60.93,46.062,60.84,46.101,60.749,46.101z"/>
				<path fill="#8BDCFC" d="M51.249,66.351c-0.09,0-0.18-0.039-0.25-0.1c-0.06-0.07-0.1-0.16-0.1-0.25s0.04-0.18,0.1-0.25
					c0.141-0.131,0.36-0.131,0.5,0c0.061,0.07,0.101,0.16,0.101,0.25s-0.03,0.18-0.101,0.25
					C51.43,66.312,51.34,66.351,51.249,66.351z"/>
				<path fill="#8BDCFC" d="M39.999,37.851c-0.09,0-0.18-0.039-0.25-0.1c-0.06-0.07-0.1-0.16-0.1-0.25s0.04-0.18,0.1-0.25
					c0.15-0.131,0.36-0.131,0.49,0c0.07,0.07,0.11,0.16,0.11,0.25s-0.04,0.18-0.101,0.25C40.18,37.812,40.09,37.851,39.999,37.851z"
					/>
				<path fill="#8BDCFC" d="M27.499,13.601c-0.09,0-0.18-0.039-0.25-0.1c-0.06-0.07-0.1-0.16-0.1-0.25s0.04-0.18,0.1-0.25
					c0.141-0.131,0.36-0.131,0.49,0c0.07,0.07,0.11,0.16,0.11,0.25s-0.04,0.18-0.101,0.25C27.68,13.562,27.59,13.601,27.499,13.601z
					"/>
				<path fill="#8BDCFC" d="M19.749,26.601c-0.09,0-0.18-0.039-0.25-0.1c-0.06-0.07-0.1-0.16-0.1-0.25s0.04-0.189,0.1-0.25
					c0.12-0.12,0.36-0.131,0.49,0c0.07,0.07,0.11,0.16,0.11,0.25s-0.04,0.18-0.101,0.25C19.93,26.562,19.84,26.601,19.749,26.601z"
					/>
				<path fill="#8BDCFC" d="M11.749,1.851c-0.09,0-0.18-0.039-0.25-0.1c-0.06-0.07-0.1-0.16-0.1-0.25s0.04-0.18,0.1-0.25
					c0.12-0.12,0.36-0.131,0.5,0c0.061,0.07,0.101,0.16,0.101,0.25s-0.04,0.18-0.101,0.25C11.93,1.812,11.84,1.851,11.749,1.851z"/>
				<path fill="#8BDCFC" d="M55.249,3.851c-0.09,0-0.18-0.039-0.25-0.1c-0.06-0.07-0.1-0.16-0.1-0.25c0-0.1,0.04-0.189,0.11-0.25
					c0.109-0.12,0.35-0.131,0.489,0c0.061,0.061,0.101,0.15,0.101,0.25c0,0.09-0.04,0.18-0.101,0.25
					C55.43,3.812,55.34,3.851,55.249,3.851z"/>
				<path fill="#8BDCFC" d="M47.249,69.851c-0.09,0-0.18-0.039-0.25-0.1c-0.06-0.07-0.1-0.15-0.1-0.25c0-0.09,0.04-0.18,0.1-0.25
					c0.141-0.131,0.36-0.131,0.49,0c0.07,0.07,0.11,0.16,0.11,0.25s-0.04,0.18-0.101,0.25C47.43,69.812,47.34,69.851,47.249,69.851z
					"/>
				<path fill="#8BDCFC" d="M4.749,40.351c-0.09,0-0.18-0.039-0.25-0.1c-0.06-0.07-0.1-0.16-0.1-0.25c0-0.1,0.04-0.189,0.11-0.25
					c0.109-0.12,0.35-0.131,0.489,0c0.061,0.061,0.101,0.15,0.101,0.25c0,0.09-0.04,0.18-0.101,0.25
					C4.93,40.312,4.84,40.351,4.749,40.351z"/>
				<path fill="#8BDCFC" d="M68.749,13.351c-0.09,0-0.18-0.039-0.25-0.1c-0.06-0.07-0.1-0.16-0.1-0.25s0.04-0.18,0.1-0.25
					c0.131-0.131,0.36-0.131,0.5,0c0.061,0.07,0.101,0.15,0.101,0.25s-0.04,0.18-0.101,0.25
					C68.93,13.312,68.84,13.351,68.749,13.351z"/>
				<path fill="#8BDCFC" d="M23.249,14.101c-0.09,0-0.18-0.039-0.25-0.1c-0.06-0.07-0.1-0.16-0.1-0.25s0.04-0.18,0.1-0.25
					c0.141-0.131,0.36-0.131,0.49,0c0.07,0.07,0.11,0.16,0.11,0.25s-0.04,0.18-0.101,0.25C23.43,14.062,23.34,14.101,23.249,14.101z
					"/>
				<path fill="#8BDCFC" d="M20.499,17.351c-0.09,0-0.18-0.039-0.25-0.1c-0.06-0.07-0.1-0.16-0.1-0.25s0.04-0.18,0.1-0.25
					c0.141-0.131,0.36-0.131,0.5,0c0.061,0.07,0.101,0.16,0.101,0.25s-0.04,0.18-0.101,0.25
					C20.68,17.312,20.59,17.351,20.499,17.351z"/>
				<path fill="#8BDCFC" d="M14.749,17.351c-0.09,0-0.18-0.039-0.25-0.1c-0.06-0.07-0.1-0.16-0.1-0.25c0-0.1,0.04-0.189,0.11-0.25
					c0.109-0.12,0.35-0.131,0.489,0c0.061,0.061,0.101,0.15,0.101,0.25c0,0.09-0.04,0.18-0.101,0.25
					C14.93,17.312,14.84,17.351,14.749,17.351z"/>
				<path fill="#8BDCFC" d="M5.999,11.851c-0.09,0-0.18-0.039-0.25-0.1c-0.06-0.07-0.1-0.16-0.1-0.25s0.04-0.18,0.1-0.25
					c0.131-0.131,0.36-0.131,0.49,0c0.07,0.061,0.11,0.15,0.11,0.25c0,0.09-0.04,0.18-0.101,0.25
					C6.18,11.812,6.09,11.851,5.999,11.851z"/>
				<path fill="#8BDCFC" d="M6.999,2.851c-0.09,0-0.17-0.039-0.239-0.1c-0.07-0.07-0.11-0.16-0.11-0.25s0.04-0.18,0.1-0.25
					c0.131-0.131,0.36-0.131,0.49,0c0.07,0.07,0.11,0.16,0.11,0.25s-0.04,0.18-0.101,0.25C7.18,2.812,7.09,2.851,6.999,2.851z"/>
				<path fill="#8BDCFC" d="M9.999,8.351c-0.09,0-0.18-0.039-0.25-0.1c-0.06-0.07-0.1-0.16-0.1-0.25s0.04-0.18,0.1-0.25
					c0.131-0.131,0.36-0.131,0.49,0c0.07,0.07,0.11,0.16,0.11,0.25s-0.04,0.18-0.101,0.25C10.18,8.312,10.09,8.351,9.999,8.351z"/>
				<path fill="#8BDCFC" d="M14.249,8.351c-0.09,0-0.18-0.039-0.25-0.1c-0.06-0.07-0.1-0.16-0.1-0.25c0-0.1,0.04-0.189,0.11-0.25
					c0.109-0.12,0.35-0.131,0.489,0c0.061,0.061,0.101,0.15,0.101,0.25c0,0.09-0.04,0.18-0.101,0.25
					C14.43,8.312,14.34,8.351,14.249,8.351z"/>
				<path fill="#8BDCFC" d="M25.749,7.101c-0.09,0-0.18-0.039-0.25-0.1c-0.06-0.07-0.1-0.16-0.1-0.25s0.04-0.18,0.1-0.25
					c0.141-0.131,0.36-0.131,0.49,0c0.07,0.07,0.11,0.16,0.11,0.25s-0.04,0.18-0.101,0.25C25.93,7.062,25.84,7.101,25.749,7.101z"/>
				<path fill="#8BDCFC" d="M36.999,7.601c-0.09,0-0.18-0.039-0.25-0.1c-0.06-0.07-0.1-0.16-0.1-0.25s0.04-0.18,0.1-0.25
					c0.131-0.131,0.36-0.131,0.5,0c0.061,0.07,0.101,0.16,0.101,0.25s-0.04,0.18-0.101,0.25C37.18,7.562,37.09,7.601,36.999,7.601z"
					/>
				<path fill="#8BDCFC" d="M37.499,4.351c-0.09,0-0.18-0.039-0.25-0.1c-0.06-0.07-0.1-0.16-0.1-0.25c0-0.1,0.04-0.189,0.11-0.25
					c0.12-0.131,0.359-0.131,0.489,0c0.061,0.061,0.101,0.15,0.101,0.25c0,0.09-0.04,0.18-0.101,0.25
					C37.68,4.312,37.59,4.351,37.499,4.351z"/>
				<path fill="#8BDCFC" d="M43.249,2.351c-0.09,0-0.18-0.039-0.25-0.1c-0.06-0.07-0.1-0.16-0.1-0.25s0.04-0.18,0.1-0.25
					c0.131-0.131,0.36-0.131,0.5,0c0.061,0.07,0.101,0.16,0.101,0.25s-0.04,0.18-0.101,0.25C43.419,2.312,43.34,2.351,43.249,2.351z
					"/>
				<path fill="#8BDCFC" d="M49.499,8.351c-0.09,0-0.18-0.039-0.25-0.1c-0.069-0.07-0.1-0.16-0.1-0.25s0.03-0.18,0.1-0.25
					c0.141-0.131,0.37-0.131,0.5,0c0.061,0.07,0.101,0.16,0.101,0.25s-0.04,0.18-0.101,0.25C49.68,8.312,49.59,8.351,49.499,8.351z"
					/>
				<path fill="#8BDCFC" d="M45.999,9.351c-0.09,0-0.18-0.039-0.25-0.1c-0.06-0.07-0.1-0.16-0.1-0.25s0.04-0.18,0.1-0.25
					c0.141-0.131,0.36-0.131,0.5,0c0.061,0.07,0.101,0.16,0.101,0.25s-0.04,0.18-0.101,0.25C46.18,9.312,46.1,9.351,45.999,9.351z"
					/>
				<path fill="#8BDCFC" d="M35.749,11.101c-0.09,0-0.18-0.039-0.25-0.1c-0.06-0.07-0.1-0.16-0.1-0.25c0-0.1,0.04-0.18,0.1-0.25
					c0.141-0.131,0.36-0.131,0.49,0c0.07,0.07,0.11,0.16,0.11,0.25s-0.04,0.18-0.101,0.25C35.93,11.062,35.84,11.101,35.749,11.101z
					"/>
				<path fill="#8BDCFC" d="M39.249,15.101c-0.09,0-0.18-0.039-0.25-0.1c-0.06-0.07-0.1-0.16-0.1-0.25s0.04-0.18,0.1-0.25
					c0.141-0.131,0.36-0.131,0.49,0c0.07,0.07,0.11,0.16,0.11,0.25s-0.04,0.18-0.101,0.25C39.43,15.062,39.34,15.101,39.249,15.101z
					"/>
				<path fill="#8BDCFC" d="M24.749,18.101c-0.09,0-0.18-0.039-0.25-0.1c-0.06-0.07-0.1-0.16-0.1-0.25s0.04-0.18,0.1-0.25
					c0.141-0.131,0.36-0.131,0.49,0c0.07,0.07,0.11,0.16,0.11,0.25s-0.04,0.18-0.101,0.25C24.93,18.062,24.84,18.101,24.749,18.101z
					"/>
				<path fill="#8BDCFC" d="M8.249,27.351c-0.09,0-0.18-0.039-0.25-0.1c-0.06-0.07-0.1-0.16-0.1-0.25s0.04-0.18,0.1-0.25
					c0.131-0.131,0.36-0.131,0.49,0c0.07,0.07,0.11,0.16,0.11,0.25s-0.04,0.18-0.101,0.25C8.43,27.312,8.34,27.351,8.249,27.351z"/>
				<path fill="#8BDCFC" d="M15.999,31.851c-0.09,0-0.18-0.039-0.25-0.1c-0.06-0.07-0.1-0.16-0.1-0.25s0.04-0.18,0.1-0.25
					c0.12-0.12,0.36-0.131,0.5,0c0.061,0.07,0.101,0.16,0.101,0.25s-0.04,0.18-0.101,0.25C16.18,31.812,16.09,31.851,15.999,31.851z
					"/>
				<path fill="#8BDCFC" d="M10.499,33.601c-0.09,0-0.18-0.039-0.25-0.1c-0.06-0.07-0.1-0.16-0.1-0.25c0-0.1,0.04-0.189,0.11-0.25
					c0.109-0.12,0.35-0.131,0.489,0c0.061,0.061,0.101,0.15,0.101,0.25s-0.04,0.18-0.101,0.25
					C10.68,33.562,10.59,33.601,10.499,33.601z"/>
				<path fill="#8BDCFC" d="M5.249,37.101c-0.09,0-0.18-0.039-0.25-0.1c-0.06-0.07-0.1-0.16-0.1-0.25s0.04-0.18,0.1-0.25
					c0.12-0.12,0.37-0.131,0.5,0c0.061,0.07,0.101,0.15,0.101,0.25c0,0.09-0.04,0.18-0.101,0.25
					C5.43,37.062,5.34,37.101,5.249,37.101z"/>
				<path fill="#8BDCFC" d="M3.249,20.601c-0.09,0-0.18-0.039-0.25-0.1c-0.06-0.07-0.1-0.16-0.1-0.25s0.04-0.18,0.1-0.25
					c0.12-0.12,0.36-0.131,0.5,0c0.061,0.07,0.101,0.16,0.101,0.25s-0.04,0.18-0.101,0.25C3.43,20.562,3.34,20.601,3.249,20.601z"/>
				<path fill="#8BDCFC" d="M20.499,30.851c-0.09,0-0.18-0.039-0.25-0.1c-0.06-0.07-0.1-0.16-0.1-0.25c0-0.1,0.04-0.189,0.11-0.25
					c0.13-0.131,0.35-0.131,0.489,0c0.061,0.061,0.101,0.15,0.101,0.25c0,0.09-0.04,0.18-0.101,0.25
					C20.68,30.812,20.59,30.851,20.499,30.851z"/>
				<path fill="#8BDCFC" d="M17.499,35.601c-0.09,0-0.18-0.039-0.25-0.1c-0.06-0.07-0.1-0.16-0.1-0.25s0.04-0.18,0.1-0.25
					c0.141-0.131,0.36-0.131,0.5,0c0.061,0.07,0.101,0.16,0.101,0.25s-0.04,0.18-0.101,0.25
					C17.68,35.562,17.59,35.601,17.499,35.601z"/>
				<path fill="#8BDCFC" d="M15.999,39.101c-0.09,0-0.18-0.039-0.25-0.1c-0.06-0.07-0.1-0.16-0.1-0.25c0-0.1,0.04-0.189,0.11-0.25
					c0.109-0.12,0.35-0.131,0.489,0c0.061,0.061,0.101,0.15,0.101,0.25c0,0.09-0.04,0.18-0.101,0.25
					C16.18,39.062,16.1,39.101,15.999,39.101z"/>
				<path fill="#8BDCFC" d="M12.749,41.351c-0.09,0-0.18-0.039-0.25-0.1c-0.06-0.07-0.1-0.16-0.1-0.25c0-0.1,0.04-0.189,0.11-0.25
					c0.109-0.12,0.35-0.131,0.489,0c0.061,0.061,0.101,0.15,0.101,0.25c0,0.09-0.04,0.18-0.101,0.25
					C12.93,41.312,12.84,41.351,12.749,41.351z"/>
				<path fill="#8BDCFC" d="M12.749,46.601c-0.09,0-0.18-0.039-0.25-0.1c-0.06-0.07-0.1-0.16-0.1-0.25c0-0.1,0.04-0.189,0.11-0.25
					c0.109-0.12,0.35-0.131,0.489,0c0.061,0.061,0.101,0.15,0.101,0.25c0,0.09-0.04,0.18-0.101,0.25
					C12.93,46.562,12.84,46.601,12.749,46.601z"/>
				<path fill="#8BDCFC" d="M5.749,48.601c-0.09,0-0.18-0.039-0.25-0.1c-0.06-0.07-0.1-0.16-0.1-0.25s0.04-0.18,0.1-0.25
					c0.12-0.12,0.37-0.131,0.5,0c0.061,0.07,0.101,0.16,0.101,0.25s-0.04,0.18-0.101,0.25C5.93,48.562,5.84,48.601,5.749,48.601z"/>
				<path fill="#8BDCFC" d="M10.999,54.601c-0.09,0-0.18-0.039-0.25-0.1c-0.06-0.07-0.1-0.16-0.1-0.25s0.04-0.18,0.1-0.25
					c0.12-0.12,0.37-0.131,0.5,0c0.061,0.07,0.101,0.16,0.101,0.25s-0.04,0.18-0.101,0.25C11.18,54.562,11.09,54.601,10.999,54.601z
					"/>
				<path fill="#8BDCFC" d="M15.499,58.601c-0.09,0-0.18-0.039-0.25-0.1c-0.06-0.07-0.1-0.16-0.1-0.25s0.04-0.18,0.1-0.25
					c0.131-0.131,0.37-0.131,0.5,0c0.061,0.07,0.101,0.16,0.101,0.25s-0.04,0.18-0.101,0.25
					C15.68,58.562,15.59,58.601,15.499,58.601z"/>
				<path fill="#8BDCFC" d="M5.999,63.601c-0.09,0-0.18-0.039-0.25-0.1c-0.06-0.07-0.1-0.16-0.1-0.25s0.04-0.18,0.1-0.25
					c0.12-0.12,0.36-0.131,0.5,0c0.061,0.061,0.101,0.15,0.101,0.25c0,0.09-0.04,0.18-0.101,0.25
					C6.18,63.562,6.09,63.601,5.999,63.601z"/>
				<path fill="#8BDCFC" d="M2.249,62.101c-0.09,0-0.18-0.039-0.25-0.1c-0.06-0.07-0.1-0.16-0.1-0.25s0.04-0.18,0.1-0.25
					c0.131-0.12,0.36-0.131,0.49,0c0.07,0.07,0.11,0.15,0.11,0.25c0,0.09-0.04,0.18-0.101,0.25
					C2.43,62.062,2.34,62.101,2.249,62.101z"/>
				<path fill="#8BDCFC" d="M8.999,68.101c-0.09,0-0.18-0.039-0.25-0.1c-0.06-0.07-0.1-0.16-0.1-0.25s0.04-0.18,0.1-0.25
					c0.131-0.131,0.351-0.131,0.49,0c0.07,0.07,0.11,0.16,0.11,0.25s-0.04,0.18-0.101,0.25C9.18,68.062,9.1,68.101,8.999,68.101z"/>
				<path fill="#8BDCFC" d="M13.499,69.601c-0.09,0-0.18-0.039-0.25-0.1c-0.06-0.07-0.1-0.16-0.1-0.25s0.04-0.18,0.1-0.25
					c0.12-0.12,0.37-0.131,0.5,0c0.061,0.07,0.101,0.16,0.101,0.25s-0.04,0.18-0.101,0.25C13.68,69.562,13.59,69.601,13.499,69.601z
					"/>
				<path fill="#8BDCFC" d="M21.499,68.601c-0.09,0-0.18-0.039-0.25-0.1c-0.06-0.07-0.1-0.16-0.1-0.25c0-0.1,0.04-0.189,0.11-0.25
					c0.12-0.131,0.359-0.131,0.489,0c0.061,0.061,0.101,0.15,0.101,0.25c0,0.09-0.04,0.18-0.101,0.25
					C21.68,68.562,21.59,68.601,21.499,68.601z"/>
				<path fill="#8BDCFC" d="M22.999,65.851c-0.09,0-0.18-0.039-0.25-0.1c-0.06-0.07-0.1-0.16-0.1-0.25s0.04-0.18,0.1-0.25
					c0.131-0.131,0.36-0.131,0.5,0c0.061,0.07,0.101,0.16,0.101,0.25s-0.04,0.18-0.101,0.25C23.18,65.812,23.1,65.851,22.999,65.851
					z"/>
				<path fill="#8BDCFC" d="M22.249,60.101c-0.09,0-0.18-0.039-0.25-0.1c-0.06-0.07-0.1-0.16-0.1-0.25s0.04-0.18,0.1-0.25
					c0.12-0.12,0.36-0.131,0.5,0c0.061,0.07,0.101,0.16,0.101,0.25s-0.04,0.18-0.101,0.25C22.43,60.062,22.35,60.101,22.249,60.101z
					"/>
				<path fill="#8BDCFC" d="M24.249,57.601c-0.09,0-0.18-0.039-0.25-0.1c-0.06-0.07-0.1-0.16-0.1-0.25c0-0.1,0.04-0.18,0.1-0.25
					c0.12-0.12,0.36-0.131,0.5,0c0.061,0.07,0.101,0.15,0.101,0.25c0,0.09-0.04,0.18-0.101,0.25
					C24.43,57.562,24.35,57.601,24.249,57.601z"/>
				<path fill="#8BDCFC" d="M26.249,47.851c-0.09,0-0.18-0.039-0.25-0.1c-0.06-0.07-0.1-0.16-0.1-0.25s0.04-0.18,0.1-0.25
					c0.131-0.131,0.36-0.131,0.5,0c0.061,0.07,0.101,0.16,0.101,0.25s-0.04,0.18-0.101,0.25
					C26.43,47.812,26.34,47.851,26.249,47.851z"/>
				<path fill="#8BDCFC" d="M25.749,43.601c-0.09,0-0.18-0.039-0.25-0.1c-0.06-0.07-0.1-0.16-0.1-0.25s0.04-0.18,0.1-0.25
					c0.131-0.131,0.36-0.131,0.5,0c0.061,0.07,0.101,0.16,0.101,0.25s-0.04,0.18-0.101,0.25
					C25.93,43.562,25.84,43.601,25.749,43.601z"/>
				<path fill="#8BDCFC" d="M32.249,31.101c-0.09,0-0.18-0.039-0.25-0.1c-0.06-0.07-0.1-0.16-0.1-0.25c0-0.1,0.04-0.189,0.11-0.25
					c0.12-0.131,0.35-0.131,0.489,0c0.061,0.061,0.101,0.15,0.101,0.25c0,0.09-0.04,0.18-0.101,0.25
					C32.43,31.062,32.34,31.101,32.249,31.101z"/>
				<path fill="#8BDCFC" d="M34.249,27.851c-0.09,0-0.18-0.039-0.25-0.1c-0.06-0.07-0.1-0.16-0.1-0.25s0.03-0.18,0.1-0.25
					c0.131-0.131,0.36-0.131,0.5,0c0.061,0.07,0.101,0.16,0.101,0.25s-0.04,0.18-0.101,0.25
					C34.43,27.812,34.35,27.851,34.249,27.851z"/>
				<path fill="#8BDCFC" d="M41.749,25.851c-0.09,0-0.18-0.039-0.25-0.1c-0.06-0.07-0.1-0.16-0.1-0.25s0.04-0.18,0.1-0.25
					c0.131-0.131,0.37-0.131,0.5,0c0.061,0.07,0.101,0.16,0.101,0.25s-0.04,0.18-0.101,0.25
					C41.93,25.812,41.84,25.851,41.749,25.851z"/>
				<path fill="#8BDCFC" d="M42.999,20.851c-0.09,0-0.18-0.039-0.25-0.109c-0.06-0.061-0.1-0.141-0.1-0.24
					c0-0.09,0.04-0.18,0.1-0.25c0.131-0.131,0.36-0.131,0.5,0c0.061,0.07,0.101,0.16,0.101,0.25c0,0.1-0.04,0.18-0.11,0.25
					C43.18,20.812,43.09,20.851,42.999,20.851z"/>
				<path fill="#8BDCFC" d="M36.499,19.351c-0.09,0-0.18-0.039-0.25-0.1c-0.069-0.08-0.1-0.16-0.1-0.25s0.03-0.18,0.1-0.24
					c0.16-0.15,0.37-0.141,0.5-0.01c0.061,0.07,0.101,0.16,0.101,0.25s-0.04,0.18-0.101,0.25
					C36.68,19.312,36.59,19.351,36.499,19.351z"/>
				<path fill="#8BDCFC" d="M27.749,22.351c-0.09,0-0.18-0.039-0.25-0.1c-0.06-0.07-0.1-0.16-0.1-0.25s0.04-0.18,0.1-0.25
					c0.131-0.131,0.37-0.131,0.5,0c0.061,0.07,0.101,0.16,0.101,0.25s-0.04,0.18-0.101,0.25
					C27.93,22.312,27.84,22.351,27.749,22.351z"/>
				<path fill="#8BDCFC" d="M51.999,22.101c-0.1,0-0.189-0.039-0.25-0.109c-0.06-0.061-0.1-0.15-0.1-0.24s0.04-0.18,0.1-0.25
					c0.141-0.131,0.36-0.131,0.49,0c0.07,0.07,0.11,0.16,0.11,0.25s-0.04,0.18-0.101,0.25C52.18,22.062,52.1,22.101,51.999,22.101z"
					/>
				<path fill="#8BDCFC" d="M43.249,17.851c-0.09,0-0.189-0.039-0.25-0.1c-0.06-0.07-0.1-0.16-0.1-0.25s0.04-0.18,0.1-0.25
					c0.12-0.12,0.36-0.131,0.5,0c0.061,0.07,0.101,0.16,0.101,0.25s-0.04,0.18-0.101,0.25C43.43,17.812,43.34,17.851,43.249,17.851z
					"/>
				<path fill="#8BDCFC" d="M50.499,18.101c-0.1,0-0.18-0.039-0.25-0.1c-0.06-0.07-0.1-0.16-0.1-0.25s0.04-0.18,0.1-0.25
					c0.141-0.131,0.36-0.131,0.49,0c0.07,0.07,0.11,0.16,0.11,0.25s-0.04,0.18-0.101,0.25C50.68,18.062,50.59,18.101,50.499,18.101z
					"/>
				<path fill="#8BDCFC" d="M59.499,17.351c-0.09,0-0.18-0.039-0.25-0.1c-0.06-0.07-0.1-0.16-0.1-0.25c0-0.1,0.04-0.189,0.11-0.25
					c0.109-0.12,0.35-0.131,0.489,0c0.061,0.061,0.101,0.15,0.101,0.25c0,0.09-0.04,0.18-0.101,0.25
					C59.68,17.312,59.59,17.351,59.499,17.351z"/>
				<path fill="#8BDCFC" d="M58.249,14.101c-0.1,0-0.18-0.039-0.25-0.1c-0.06-0.07-0.1-0.16-0.1-0.25s0.04-0.18,0.1-0.25
					c0.141-0.131,0.36-0.131,0.49,0c0.07,0.07,0.11,0.16,0.11,0.25s-0.04,0.18-0.101,0.25C58.43,14.062,58.34,14.101,58.249,14.101z
					"/>
				<path fill="#8BDCFC" d="M61.499,11.101c-0.09,0-0.18-0.039-0.25-0.1c-0.06-0.07-0.1-0.16-0.1-0.25c0-0.1,0.04-0.189,0.11-0.25
					c0.109-0.12,0.359-0.131,0.489,0.01c0.061,0.051,0.101,0.141,0.101,0.24c0,0.09-0.04,0.18-0.101,0.25
					C61.68,11.062,61.59,11.101,61.499,11.101z"/>
				<path fill="#8BDCFC" d="M58.749,7.601c-0.09,0-0.18-0.039-0.25-0.1c-0.069-0.07-0.1-0.16-0.1-0.25s0.03-0.18,0.1-0.24
					c0.15-0.15,0.36-0.141,0.49-0.01c0.07,0.07,0.11,0.15,0.11,0.25c0,0.09-0.04,0.18-0.101,0.25
					C58.93,7.562,58.84,7.601,58.749,7.601z"/>
				<path fill="#8BDCFC" d="M59.999,4.851c-0.09,0-0.189-0.039-0.25-0.109c-0.06-0.061-0.1-0.15-0.1-0.24
					c0-0.1,0.04-0.189,0.11-0.25c0.109-0.12,0.35-0.131,0.489,0c0.061,0.061,0.101,0.15,0.101,0.25c0,0.09-0.04,0.18-0.101,0.25
					C60.18,4.812,60.09,4.851,59.999,4.851z"/>
				<path fill="#8BDCFC" d="M67.499,6.101c-0.09,0-0.18-0.039-0.25-0.1c-0.06-0.061-0.1-0.15-0.1-0.25s0.04-0.18,0.1-0.25
					c0.131-0.12,0.37-0.131,0.5,0c0.061,0.07,0.101,0.16,0.101,0.25s-0.04,0.18-0.101,0.25C67.68,6.062,67.59,6.101,67.499,6.101z"
					/>
				<path fill="#8BDCFC" d="M70.749,8.601c-0.09,0-0.18-0.039-0.25-0.1c-0.06-0.061-0.1-0.15-0.1-0.25s0.04-0.18,0.1-0.25
					c0.131-0.12,0.36-0.131,0.49,0c0.07,0.07,0.11,0.16,0.11,0.25s-0.04,0.18-0.101,0.25C70.93,8.562,70.84,8.601,70.749,8.601z"/>
				<path fill="#8BDCFC" d="M65.749,9.851c-0.09,0-0.18-0.039-0.25-0.1c-0.06-0.07-0.1-0.16-0.1-0.25c0-0.1,0.04-0.18,0.1-0.25
					c0.12-0.12,0.37-0.131,0.5,0c0.061,0.07,0.101,0.16,0.101,0.25s-0.04,0.18-0.101,0.25C65.93,9.812,65.84,9.851,65.749,9.851z"/>
				<path fill="#8BDCFC" d="M60.249,23.851c-0.09,0-0.18-0.039-0.25-0.1c-0.06-0.07-0.1-0.16-0.1-0.25s0.04-0.18,0.1-0.25
					c0.12-0.131,0.37-0.131,0.5,0c0.061,0.07,0.101,0.16,0.101,0.25s-0.04,0.18-0.101,0.25C60.43,23.812,60.34,23.851,60.249,23.851
					z"/>
				<path fill="#8BDCFC" d="M55.499,23.851c-0.09,0-0.18-0.039-0.25-0.1c-0.06-0.07-0.1-0.16-0.1-0.25s0.04-0.18,0.1-0.25
					c0.12-0.12,0.37-0.131,0.5,0c0.061,0.07,0.101,0.16,0.101,0.25s-0.04,0.18-0.101,0.25C55.68,23.812,55.59,23.851,55.499,23.851z
					"/>
				<path fill="#8BDCFC" d="M55.499,18.851c-0.09,0-0.189-0.039-0.25-0.109c-0.06-0.061-0.1-0.15-0.1-0.24
					c0-0.1,0.04-0.189,0.11-0.25c0.109-0.12,0.35-0.131,0.489,0c0.061,0.061,0.101,0.15,0.101,0.25c0,0.09-0.04,0.18-0.101,0.25
					C55.68,18.812,55.59,18.851,55.499,18.851z"/>
				<path fill="#8BDCFC" d="M64.999,25.851c-0.09,0-0.18-0.039-0.25-0.1c-0.06-0.07-0.1-0.16-0.1-0.25c0-0.1,0.04-0.189,0.11-0.25
					c0.109-0.12,0.35-0.131,0.489,0c0.061,0.061,0.101,0.15,0.101,0.25c0,0.09-0.04,0.18-0.101,0.25
					C65.18,25.812,65.09,25.851,64.999,25.851z"/>
				<path fill="#8BDCFC" d="M57.749,30.851c-0.1,0-0.189-0.039-0.25-0.109c-0.06-0.061-0.1-0.15-0.1-0.24
					c0-0.1,0.04-0.189,0.11-0.25c0.109-0.12,0.35-0.131,0.489,0c0.061,0.061,0.101,0.15,0.101,0.25c0,0.09-0.04,0.18-0.101,0.25
					C57.93,30.812,57.84,30.851,57.749,30.851z"/>
				<path fill="#8BDCFC" d="M52.749,32.851c-0.09,0-0.18-0.039-0.25-0.109c-0.06-0.061-0.1-0.15-0.1-0.24
					c0-0.1,0.04-0.189,0.11-0.25c0.109-0.12,0.35-0.131,0.489,0c0.061,0.061,0.101,0.15,0.101,0.25c0,0.09-0.04,0.18-0.101,0.25
					C52.93,32.812,52.84,32.851,52.749,32.851z"/>
				<path fill="#8BDCFC" d="M47.499,33.851c-0.09,0-0.18-0.039-0.25-0.109c-0.06-0.061-0.1-0.15-0.1-0.24
					c0-0.1,0.04-0.189,0.11-0.25c0.109-0.12,0.35-0.131,0.489,0c0.061,0.061,0.101,0.15,0.101,0.25c0,0.09-0.04,0.18-0.101,0.25
					C47.68,33.812,47.59,33.851,47.499,33.851z"/>
				<path fill="#8BDCFC" d="M44.249,39.351c-0.09,0-0.18-0.039-0.25-0.109c-0.06-0.061-0.1-0.15-0.1-0.24s0.04-0.18,0.1-0.25
					c0.141-0.131,0.36-0.131,0.5,0c0.061,0.07,0.101,0.15,0.101,0.25s-0.04,0.189-0.11,0.25
					C44.43,39.312,44.34,39.351,44.249,39.351z"/>
				<path fill="#8BDCFC" d="M33.999,41.601c-0.09,0-0.18-0.039-0.25-0.1c-0.06-0.07-0.1-0.16-0.1-0.25s0.04-0.18,0.1-0.25
					c0.141-0.131,0.36-0.131,0.5,0c0.061,0.07,0.101,0.16,0.101,0.25s-0.04,0.18-0.101,0.25
					C34.18,41.562,34.09,41.601,33.999,41.601z"/>
				<path fill="#8BDCFC" d="M40.749,48.101c-0.09,0-0.18-0.039-0.25-0.1c-0.06-0.07-0.1-0.16-0.1-0.25s0.04-0.18,0.1-0.25
					c0.141-0.131,0.36-0.131,0.49,0c0.07,0.061,0.11,0.16,0.11,0.25s-0.04,0.18-0.101,0.25C40.93,48.062,40.84,48.101,40.749,48.101
					z"/>
				<path fill="#8BDCFC" d="M45.749,52.351c-0.09,0-0.18-0.039-0.25-0.1c-0.06-0.07-0.1-0.16-0.1-0.25c0-0.1,0.04-0.189,0.11-0.25
					c0.12-0.131,0.359-0.131,0.489,0c0.061,0.061,0.101,0.15,0.101,0.25c0,0.09-0.04,0.18-0.101,0.25
					C45.93,52.312,45.84,52.351,45.749,52.351z"/>
				<path fill="#8BDCFC" d="M46.499,56.851c-0.09,0-0.18-0.039-0.25-0.1c-0.06-0.07-0.1-0.16-0.1-0.25s0.04-0.18,0.1-0.25
					c0.15-0.141,0.36-0.131,0.49,0c0.07,0.07,0.11,0.16,0.11,0.25s-0.04,0.18-0.101,0.25C46.68,56.812,46.59,56.851,46.499,56.851z"
					/>
				<path fill="#8BDCFC" d="M41.999,59.601c-0.09,0-0.18-0.039-0.239-0.1c-0.07-0.07-0.11-0.16-0.11-0.25s0.04-0.18,0.1-0.25
					c0.141-0.131,0.36-0.131,0.5,0c0.061,0.07,0.101,0.16,0.101,0.25s-0.04,0.18-0.101,0.25
					C42.18,59.562,42.09,59.601,41.999,59.601z"/>
				<path fill="#8BDCFC" d="M39.999,62.851c-0.09,0-0.18-0.039-0.25-0.1c-0.06-0.07-0.1-0.16-0.1-0.25s0.04-0.18,0.1-0.25
					c0.131-0.131,0.37-0.131,0.5,0c0.061,0.07,0.101,0.16,0.101,0.25s-0.04,0.18-0.101,0.25C40.18,62.812,40.1,62.851,39.999,62.851
					z"/>
				<path fill="#8BDCFC" d="M35.999,62.851c-0.09,0-0.18-0.039-0.25-0.1c-0.06-0.07-0.1-0.16-0.1-0.25c0-0.1,0.04-0.189,0.11-0.25
					c0.12-0.131,0.35-0.131,0.489,0c0.061,0.061,0.101,0.15,0.101,0.25c0,0.09-0.04,0.18-0.101,0.25
					C36.18,62.812,36.09,62.851,35.999,62.851z"/>
				<path fill="#8BDCFC" d="M36.499,52.851c-0.09,0-0.18-0.039-0.25-0.1c-0.069-0.07-0.1-0.16-0.1-0.25s0.04-0.18,0.1-0.25
					c0.141-0.131,0.381-0.131,0.5,0.01c0.061,0.051,0.101,0.141,0.101,0.24c0,0.09-0.04,0.18-0.101,0.25
					C36.68,52.812,36.59,52.851,36.499,52.851z"/>
				<path fill="#8BDCFC" d="M29.999,63.601c-0.09,0-0.18-0.039-0.239-0.1c-0.07-0.07-0.11-0.16-0.11-0.25
					c0-0.1,0.04-0.189,0.11-0.25c0.12-0.12,0.359-0.131,0.489,0c0.061,0.061,0.101,0.15,0.101,0.25c0,0.09-0.04,0.18-0.101,0.25
					C30.18,63.562,30.09,63.601,29.999,63.601z"/>
				<path fill="#8BDCFC" d="M31.499,68.601c-0.09,0-0.18-0.039-0.25-0.1c-0.06-0.07-0.1-0.16-0.1-0.25s0.04-0.18,0.1-0.25
					c0.131-0.131,0.36-0.131,0.5,0c0.061,0.07,0.101,0.16,0.101,0.25s-0.04,0.18-0.101,0.25
					C31.68,68.562,31.59,68.601,31.499,68.601z"/>
				<path fill="#8BDCFC" d="M36.999,71.101c-0.09,0-0.18-0.039-0.25-0.1c-0.06-0.061-0.1-0.16-0.1-0.25c0-0.1,0.04-0.189,0.11-0.25
					c0.12-0.12,0.359-0.131,0.489,0c0.061,0.061,0.101,0.15,0.101,0.25c0,0.09-0.04,0.189-0.101,0.25
					C37.18,71.062,37.09,71.101,36.999,71.101z"/>
				<path fill="#8BDCFC" d="M62.999,57.101c-0.09,0-0.18-0.039-0.25-0.1c-0.06-0.07-0.1-0.16-0.1-0.25c0-0.1,0.04-0.189,0.11-0.25
					c0.109-0.12,0.35-0.131,0.489,0c0.061,0.061,0.101,0.15,0.101,0.25c0,0.09-0.04,0.18-0.101,0.25
					C63.18,57.062,63.09,57.101,62.999,57.101z"/>
				<path fill="#8BDCFC" d="M59.999,50.851c-0.1,0-0.189-0.039-0.25-0.109c-0.06-0.061-0.1-0.15-0.1-0.24s0.04-0.189,0.11-0.25
					c0.12-0.131,0.35-0.131,0.479,0c0.07,0.07,0.11,0.16,0.11,0.25s-0.04,0.18-0.101,0.25C60.18,50.812,60.1,50.851,59.999,50.851z"
					/>
				<path fill="#8BDCFC" d="M54.499,50.601c-0.09,0-0.18-0.039-0.25-0.1c-0.06-0.07-0.1-0.15-0.1-0.25s0.04-0.189,0.1-0.25
					c0.141-0.131,0.36-0.131,0.49,0c0.07,0.07,0.11,0.16,0.11,0.25s-0.04,0.18-0.101,0.24C54.68,50.562,54.6,50.601,54.499,50.601z"
					/>
				<path fill="#8BDCFC" d="M54.749,41.851c-0.09,0-0.18-0.039-0.25-0.109c-0.06-0.051-0.1-0.15-0.1-0.24s0.04-0.18,0.1-0.25
					c0.131-0.131,0.36-0.131,0.5,0c0.061,0.07,0.101,0.16,0.101,0.25s-0.04,0.189-0.11,0.25
					C54.93,41.812,54.84,41.851,54.749,41.851z"/>
				<path fill="#8BDCFC" d="M62.499,42.351c-0.09,0-0.18-0.039-0.25-0.1c-0.06-0.07-0.1-0.16-0.1-0.25s0.04-0.18,0.1-0.25
					c0.131-0.131,0.36-0.131,0.5,0c0.061,0.07,0.101,0.16,0.101,0.25s-0.04,0.18-0.101,0.25
					C62.68,42.312,62.59,42.351,62.499,42.351z"/>
				<path fill="#8BDCFC" d="M66.999,47.601c-0.09,0-0.18-0.039-0.239-0.1c-0.07-0.07-0.11-0.16-0.11-0.25s0.04-0.18,0.1-0.25
					c0.131-0.131,0.36-0.131,0.49,0c0.08,0.07,0.11,0.16,0.11,0.25s-0.04,0.18-0.101,0.25C67.18,47.562,67.09,47.601,66.999,47.601z
					"/>
				<path fill="#8BDCFC" d="M69.499,54.351c-0.09,0-0.18-0.039-0.239-0.1c-0.07-0.07-0.11-0.16-0.11-0.25s0.04-0.18,0.1-0.25
					c0.131-0.131,0.36-0.131,0.49,0c0.07,0.07,0.11,0.16,0.11,0.25s-0.04,0.18-0.101,0.25C69.68,54.312,69.59,54.351,69.499,54.351z
					"/>
				<path fill="#8BDCFC" d="M63.499,61.851c-0.09,0-0.18-0.039-0.239-0.1c-0.07-0.07-0.11-0.16-0.11-0.25s0.04-0.18,0.1-0.25
					c0.131-0.131,0.36-0.131,0.49,0c0.08,0.07,0.11,0.16,0.11,0.25s-0.04,0.18-0.101,0.25C63.68,61.812,63.59,61.851,63.499,61.851z
					"/>
				<path fill="#8BDCFC" d="M70.249,61.101c-0.09,0-0.18-0.039-0.25-0.1c-0.06-0.07-0.1-0.16-0.1-0.25c0-0.1,0.04-0.189,0.11-0.25
					c0.1-0.12,0.35-0.131,0.489,0c0.061,0.061,0.101,0.15,0.101,0.25c0,0.09-0.04,0.18-0.101,0.25
					C70.43,61.062,70.34,61.101,70.249,61.101z"/>
				<path fill="#8BDCFC" d="M64.749,65.601c-0.09,0-0.18-0.039-0.25-0.1c-0.06-0.07-0.1-0.16-0.1-0.25s0.04-0.18,0.1-0.25
					c0.12-0.131,0.37-0.131,0.5,0.01c0.061,0.061,0.101,0.15,0.101,0.24s-0.04,0.18-0.101,0.25
					C64.93,65.562,64.84,65.601,64.749,65.601z"/>
				<path fill="#8BDCFC" d="M65.749,68.351c-0.09,0-0.18-0.039-0.25-0.1c-0.06-0.07-0.1-0.16-0.1-0.25s0.04-0.18,0.1-0.25
					c0.12-0.131,0.37-0.131,0.5,0c0.061,0.07,0.101,0.16,0.101,0.25s-0.04,0.18-0.101,0.25C65.93,68.312,65.84,68.351,65.749,68.351
					z"/>
				<path fill="#8BDCFC" d="M62.499,70.351c-0.09,0-0.18-0.039-0.25-0.1c-0.06-0.07-0.1-0.16-0.1-0.25s0.04-0.189,0.11-0.25
					c0.109-0.12,0.359-0.131,0.489,0.01c0.061,0.051,0.101,0.141,0.101,0.24c0,0.09-0.04,0.18-0.101,0.25
					C62.68,70.312,62.59,70.351,62.499,70.351z"/>
				<path fill="#8BDCFC" d="M52.749,69.851c-0.1,0-0.189-0.039-0.25-0.1c-0.06-0.07-0.1-0.16-0.1-0.25s0.04-0.18,0.1-0.25
					c0.141-0.131,0.36-0.131,0.49,0c0.07,0.07,0.11,0.16,0.11,0.25s-0.04,0.18-0.101,0.25C52.93,69.812,52.85,69.851,52.749,69.851z
					"/>
				<path fill="#8BDCFC" d="M44.749,66.601c-0.1,0-0.18-0.039-0.25-0.109c-0.06-0.061-0.1-0.15-0.1-0.24c0-0.1,0.04-0.189,0.11-0.25
					c0.109-0.12,0.35-0.131,0.489,0c0.061,0.061,0.101,0.15,0.101,0.25c0,0.09-0.04,0.18-0.101,0.25
					C44.93,66.562,44.84,66.601,44.749,66.601z"/>
				<path fill="#8BDCFC" d="M28.499,71.351c-0.09,0-0.18-0.039-0.25-0.1c-0.06-0.061-0.1-0.15-0.1-0.25s0.04-0.189,0.11-0.25
					c0.12-0.131,0.35-0.131,0.489,0c0.061,0.061,0.101,0.15,0.101,0.25s-0.04,0.189-0.11,0.25
					C28.68,71.312,28.59,71.351,28.499,71.351z"/>
				<path fill="#8BDCFC" d="M2.999,29.601c-0.09,0-0.18-0.039-0.25-0.1c-0.06-0.07-0.1-0.16-0.1-0.25s0.04-0.18,0.1-0.25
					c0.12-0.12,0.36-0.131,0.5,0c0.061,0.07,0.101,0.16,0.101,0.25s-0.04,0.18-0.101,0.25C3.18,29.562,3.09,29.601,2.999,29.601z"/>
				<path fill="#8BDCFC" d="M13.249,5.101c-0.09,0-0.18-0.039-0.25-0.109c-0.06-0.051-0.1-0.141-0.1-0.24
					c0-0.09,0.04-0.189,0.1-0.25c0.131-0.131,0.36-0.131,0.49,0c0.07,0.07,0.11,0.16,0.11,0.25c0,0.1-0.04,0.189-0.11,0.25
					C13.43,5.062,13.34,5.101,13.249,5.101z"/>
				<path fill="#8BDCFC" d="M70.249,34.601c-0.09,0-0.18-0.039-0.25-0.1c-0.06-0.07-0.1-0.16-0.1-0.25c0-0.1,0.04-0.189,0.11-0.25
					c0.109-0.12,0.35-0.131,0.489,0c0.061,0.061,0.101,0.15,0.101,0.25c0,0.09-0.04,0.18-0.101,0.25
					C70.43,34.562,70.34,34.601,70.249,34.601z"/>
				<path fill="#8BDCFC" d="M71.249,41.351c-0.09,0-0.18-0.039-0.25-0.1c-0.06-0.07-0.1-0.16-0.1-0.25s0.04-0.18,0.1-0.25
					c0.131-0.131,0.36-0.131,0.5,0c0.061,0.07,0.101,0.16,0.101,0.25s-0.04,0.18-0.101,0.25
					C71.43,41.312,71.34,41.351,71.249,41.351z"/>
				<path fill="#8BDCFC" d="M0.999,51.851c-0.09,0-0.18-0.039-0.25-0.1c-0.06-0.07-0.1-0.16-0.1-0.25c0-0.1,0.04-0.189,0.11-0.25
					c0.109-0.12,0.35-0.131,0.489,0c0.061,0.061,0.101,0.15,0.101,0.25c0,0.09-0.04,0.18-0.101,0.25
					C1.18,51.812,1.09,51.851,0.999,51.851z"/>
				<path fill="#8BDCFC" d="M71.999,23.601c-0.09,0-0.18-0.039-0.25-0.1c-0.06-0.07-0.1-0.16-0.1-0.25s0.04-0.18,0.1-0.25
					c0.12-0.12,0.36-0.131,0.5,0c0.061,0.07,0.101,0.16,0.101,0.25s-0.04,0.18-0.101,0.25C72.18,23.562,72.09,23.601,71.999,23.601z
					"/>
				<path fill="#8BDCFC" d="M68.999,26.601c-0.09,0-0.18-0.039-0.25-0.1c-0.06-0.07-0.1-0.16-0.1-0.25s0.04-0.18,0.1-0.25
					c0.12-0.131,0.36-0.131,0.5,0c0.061,0.07,0.101,0.16,0.101,0.25s-0.03,0.18-0.101,0.25C69.18,26.562,69.09,26.601,68.999,26.601
					z"/>
				<path fill="#8BDCFC" d="M68.499,60.351c-0.09,0-0.18-0.039-0.25-0.1c-0.06-0.07-0.1-0.16-0.1-0.25c0-0.1,0.04-0.18,0.1-0.25
					c0.12-0.12,0.37-0.131,0.5,0c0.061,0.07,0.101,0.16,0.101,0.25s-0.04,0.18-0.101,0.25C68.68,60.312,68.59,60.351,68.499,60.351z
					"/>
				<path fill="#8BDCFC" d="M71.499,68.351c-0.09,0-0.18-0.039-0.25-0.1c-0.06-0.07-0.1-0.16-0.1-0.25s0.04-0.18,0.1-0.25
					c0.12-0.131,0.36-0.131,0.5,0c0.061,0.07,0.101,0.16,0.101,0.25s-0.03,0.18-0.101,0.25C71.68,68.312,71.59,68.351,71.499,68.351
					z"/>
				<path fill="#8BDCFC" d="M0.499,57.851c-0.09,0-0.18-0.039-0.25-0.1c-0.06-0.07-0.1-0.16-0.1-0.25s0.04-0.18,0.1-0.25
					c0.12-0.12,0.36-0.131,0.5,0c0.061,0.07,0.101,0.16,0.101,0.25s-0.04,0.18-0.101,0.25C0.68,57.812,0.59,57.851,0.499,57.851z"/>
				<path fill="#8BDCFC" d="M2.749,71.351c-0.09,0-0.18-0.039-0.25-0.1c-0.06-0.07-0.1-0.16-0.1-0.25s0.04-0.18,0.1-0.25
					c0.131-0.131,0.36-0.131,0.49,0c0.07,0.07,0.11,0.16,0.11,0.25s-0.04,0.18-0.101,0.25C2.93,71.312,2.84,71.351,2.749,71.351z"/>
				<path fill="#8BDCFC" d="M70.249,24.101c-0.09,0-0.18-0.039-0.25-0.1c-0.06-0.07-0.1-0.16-0.1-0.25c0-0.1,0.04-0.189,0.11-0.25
					c0.109-0.12,0.35-0.131,0.489,0c0.061,0.061,0.101,0.15,0.101,0.25c0,0.09-0.04,0.18-0.101,0.25
					C70.43,24.062,70.34,24.101,70.249,24.101z"/>
				<path fill="#8BDCFC" d="M1.249,16.851c-0.09,0-0.18-0.039-0.25-0.1c-0.06-0.07-0.1-0.16-0.1-0.25s0.04-0.18,0.1-0.25
					c0.12-0.12,0.36-0.131,0.5,0c0.061,0.07,0.101,0.16,0.101,0.25s-0.04,0.18-0.101,0.25C1.43,16.812,1.34,16.851,1.249,16.851z"/>
				<path fill="#8BDCFC" d="M17.999,13.151c-0.17,0-0.33-0.07-0.46-0.19c-0.12-0.13-0.189-0.29-0.189-0.46s0.069-0.34,0.189-0.46
					c0.24-0.24,0.681-0.24,0.92,0c0.12,0.12,0.19,0.29,0.19,0.46s-0.07,0.34-0.19,0.46C18.34,13.081,18.169,13.151,17.999,13.151z"
					/>
				<path fill="#8BDCFC" d="M29.249,11.151c-0.17,0-0.34-0.07-0.46-0.19c-0.12-0.13-0.189-0.29-0.189-0.46s0.069-0.34,0.189-0.46
					c0.25-0.25,0.67-0.24,0.92,0c0.12,0.12,0.19,0.29,0.19,0.46s-0.07,0.33-0.19,0.46C29.579,11.081,29.419,11.151,29.249,11.151z"
					/>
				<path fill="#8BDCFC" d="M29.249,3.651c-0.17,0-0.34-0.07-0.46-0.19S28.6,3.171,28.6,3.001c0-0.18,0.069-0.34,0.189-0.46
					c0.24-0.24,0.681-0.24,0.92,0c0.12,0.12,0.19,0.29,0.19,0.46s-0.07,0.34-0.19,0.46C29.579,3.581,29.419,3.651,29.249,3.651z"/>
				<path fill="#8BDCFC" d="M40.249,10.651c-0.17,0-0.33-0.07-0.46-0.19c-0.12-0.13-0.189-0.29-0.189-0.46s0.069-0.34,0.189-0.46
					c0.24-0.24,0.681-0.24,0.92,0c0.12,0.11,0.19,0.28,0.19,0.46c0,0.17-0.07,0.33-0.19,0.46
					C40.59,10.581,40.419,10.651,40.249,10.651z"/>
				<path fill="#8BDCFC" d="M44.999,12.151c-0.18,0-0.34-0.07-0.46-0.201c-0.12-0.119-0.189-0.279-0.189-0.449
					s0.069-0.34,0.189-0.46c0.24-0.24,0.681-0.24,0.92,0c0.12,0.11,0.19,0.28,0.19,0.46s-0.07,0.34-0.2,0.46
					C45.34,12.081,45.18,12.151,44.999,12.151z"/>
				<path fill="#8BDCFC" d="M47.249,23.151c-0.17,0-0.34-0.07-0.46-0.19s-0.189-0.29-0.189-0.46s0.069-0.34,0.189-0.46
					c0.23-0.24,0.681-0.24,0.92,0c0.12,0.12,0.19,0.29,0.19,0.46s-0.07,0.34-0.19,0.46C47.59,23.081,47.419,23.151,47.249,23.151z"
					/>
				<path fill="#8BDCFC" d="M54.749,7.151c-0.18,0-0.34-0.07-0.46-0.19S54.1,6.671,54.1,6.501s0.069-0.34,0.189-0.46
					c0.23-0.24,0.69-0.24,0.92,0c0.12,0.12,0.19,0.28,0.19,0.46c0,0.17-0.07,0.34-0.19,0.46C55.09,7.081,54.93,7.151,54.749,7.151z"
					/>
				<path fill="#8BDCFC" d="M63.999,6.901c-0.17,0-0.34-0.07-0.46-0.19s-0.189-0.29-0.189-0.46s0.069-0.34,0.189-0.46
					c0.24-0.24,0.681-0.24,0.92,0c0.12,0.12,0.19,0.29,0.19,0.46s-0.07,0.34-0.19,0.46C64.34,6.831,64.169,6.901,63.999,6.901z"/>
				<path fill="#8BDCFC" d="M64.999,2.901c-0.17,0-0.34-0.07-0.46-0.19c-0.12-0.13-0.189-0.29-0.189-0.46s0.069-0.34,0.189-0.46
					c0.25-0.24,0.67-0.24,0.92,0c0.12,0.13,0.19,0.29,0.19,0.46s-0.06,0.33-0.18,0.449C65.34,2.831,65.169,2.901,64.999,2.901z"/>
				<path fill="#8BDCFC" d="M69.499,18.401c-0.17,0-0.34-0.07-0.46-0.19s-0.189-0.29-0.189-0.46s0.069-0.34,0.189-0.46
					c0.24-0.24,0.67-0.25,0.92,0c0.12,0.12,0.19,0.29,0.19,0.46s-0.07,0.34-0.19,0.46C69.84,18.331,69.669,18.401,69.499,18.401z"/>
				<path fill="#8BDCFC" d="M7.999,47.401c-0.18,0-0.34-0.07-0.46-0.19c-0.12-0.13-0.189-0.29-0.189-0.46s0.069-0.34,0.189-0.46
					c0.24-0.24,0.681-0.24,0.92,0c0.12,0.12,0.19,0.29,0.19,0.46s-0.07,0.33-0.19,0.46C8.34,47.331,8.18,47.401,7.999,47.401z"/>
				<path fill="#8BDCFC" d="M4.999,57.151c-0.18,0-0.34-0.07-0.46-0.19s-0.189-0.29-0.189-0.46s0.069-0.34,0.189-0.46
					c0.25-0.25,0.681-0.24,0.92,0c0.12,0.12,0.19,0.29,0.19,0.46s-0.07,0.34-0.19,0.46C5.34,57.081,5.18,57.151,4.999,57.151z"/>
				<path fill="#8BDCFC" d="M2.249,67.401c-0.17,0-0.34-0.07-0.46-0.19c-0.12-0.13-0.189-0.29-0.189-0.46s0.069-0.34,0.189-0.46
					c0.24-0.24,0.681-0.24,0.92,0c0.12,0.12,0.19,0.29,0.19,0.46s-0.07,0.33-0.19,0.46C2.59,67.331,2.419,67.401,2.249,67.401z"/>
				<path fill="#8BDCFC" d="M17.749,70.151c-0.17,0-0.34-0.07-0.46-0.19c-0.12-0.13-0.189-0.29-0.189-0.46s0.069-0.34,0.189-0.46
					c0.24-0.24,0.681-0.24,0.92,0c0.12,0.12,0.19,0.29,0.19,0.46s-0.07,0.33-0.19,0.46C18.09,70.081,17.919,70.151,17.749,70.151z"
					/>
				<path fill="#8BDCFC" d="M19.249,62.651c-0.17,0-0.34-0.07-0.46-0.19s-0.189-0.29-0.189-0.46c0-0.18,0.069-0.34,0.189-0.46
					c0.23-0.24,0.681-0.25,0.92,0c0.12,0.12,0.19,0.29,0.19,0.46s-0.07,0.33-0.19,0.46C19.59,62.581,19.419,62.651,19.249,62.651z"
					/>
				<path fill="#8BDCFC" d="M20.999,45.651c-0.17,0-0.34-0.07-0.46-0.19s-0.189-0.29-0.189-0.46c0-0.18,0.069-0.34,0.189-0.46
					c0.23-0.24,0.681-0.25,0.92,0c0.12,0.12,0.19,0.29,0.19,0.46s-0.07,0.33-0.19,0.46C21.34,45.581,21.18,45.651,20.999,45.651z"/>
				<path fill="#8BDCFC" d="M28.499,51.401c-0.17,0-0.34-0.07-0.46-0.19s-0.189-0.29-0.189-0.46s0.069-0.34,0.189-0.46
					c0.24-0.24,0.681-0.25,0.92,0c0.12,0.12,0.19,0.29,0.19,0.46s-0.07,0.33-0.19,0.46C28.84,51.331,28.68,51.401,28.499,51.401z"/>
				<path fill="#8BDCFC" d="M33.999,60.651c-0.17,0-0.34-0.07-0.46-0.19s-0.189-0.29-0.189-0.46c0-0.18,0.069-0.34,0.189-0.46
					c0.24-0.24,0.681-0.24,0.92,0c0.12,0.11,0.19,0.28,0.19,0.46s-0.07,0.34-0.19,0.46C34.34,60.581,34.169,60.651,33.999,60.651z"
					/>
				<path fill="#8BDCFC" d="M34.249,67.151c-0.18,0-0.34-0.07-0.46-0.19s-0.189-0.29-0.189-0.46s0.069-0.34,0.189-0.46
					c0.25-0.25,0.681-0.24,0.92,0c0.12,0.12,0.19,0.28,0.19,0.46s-0.07,0.34-0.19,0.46C34.59,67.081,34.419,67.151,34.249,67.151z"
					/>
				<path fill="#8BDCFC" d="M41.749,55.401c-0.17,0-0.34-0.07-0.46-0.19s-0.189-0.29-0.189-0.46s0.069-0.34,0.189-0.46
					c0.24-0.24,0.681-0.24,0.92,0c0.12,0.12,0.19,0.29,0.19,0.46s-0.07,0.34-0.19,0.46C42.09,55.331,41.919,55.401,41.749,55.401z"
					/>
				<path fill="#8BDCFC" d="M52.249,60.151c-0.17,0-0.34-0.07-0.46-0.19s-0.189-0.29-0.189-0.46s0.069-0.34,0.189-0.46
					c0.23-0.24,0.681-0.24,0.92,0c0.12,0.12,0.19,0.29,0.19,0.46s-0.07,0.34-0.19,0.46C52.59,60.081,52.419,60.151,52.249,60.151z"
					/>
				<path fill="#8BDCFC" d="M54.999,65.651c-0.17,0-0.34-0.07-0.46-0.19c-0.12-0.13-0.189-0.29-0.189-0.46
					c0-0.18,0.069-0.34,0.189-0.46c0.23-0.24,0.681-0.24,0.92,0c0.12,0.12,0.19,0.28,0.19,0.46c0,0.17-0.07,0.33-0.19,0.46
					C55.34,65.581,55.169,65.651,54.999,65.651z"/>
				<path fill="#8BDCFC" d="M25.249,24.901c-0.17,0-0.34-0.07-0.46-0.19c-0.12-0.13-0.189-0.29-0.189-0.46s0.069-0.34,0.189-0.46
					c0.23-0.24,0.681-0.24,0.92,0c0.12,0.12,0.19,0.29,0.19,0.46s-0.07,0.33-0.19,0.46C25.59,24.831,25.419,24.901,25.249,24.901z"
					/>
				<path fill="#8BDCFC" d="M35.249,23.651c-0.18,0-0.34-0.07-0.46-0.19s-0.189-0.29-0.189-0.46s0.069-0.34,0.189-0.46
					c0.24-0.24,0.681-0.24,0.92,0c0.12,0.12,0.19,0.28,0.19,0.46s-0.07,0.34-0.19,0.46C35.59,23.581,35.43,23.651,35.249,23.651z"/>
				<path fill="#8BDCFC" d="M44.999,29.901c-0.17,0-0.34-0.07-0.46-0.19s-0.189-0.29-0.189-0.46s0.069-0.34,0.189-0.46
					c0.23-0.24,0.69-0.24,0.92,0c0.12,0.11,0.19,0.28,0.19,0.46s-0.07,0.34-0.2,0.46C45.34,29.831,45.169,29.901,44.999,29.901z"/>
				<path fill="#8BDCFC" d="M51.999,43.401c-0.17,0-0.34-0.07-0.46-0.19s-0.189-0.29-0.189-0.46s0.069-0.34,0.189-0.46
					c0.23-0.24,0.67-0.25,0.92,0c0.12,0.12,0.19,0.28,0.19,0.46c0,0.17-0.07,0.34-0.19,0.46
					C52.34,43.331,52.169,43.401,51.999,43.401z"/>
				<path fill="#8BDCFC" d="M66.999,52.151c-0.17,0-0.34-0.07-0.46-0.19s-0.189-0.29-0.189-0.46c0-0.18,0.069-0.34,0.2-0.46
					c0.22-0.229,0.67-0.24,0.909,0c0.12,0.12,0.19,0.29,0.19,0.46s-0.07,0.34-0.19,0.46C67.34,52.081,67.169,52.151,66.999,52.151z"
					/>
				<path fill="#8BDCFC" d="M47.249,48.151c-0.17,0-0.34-0.07-0.46-0.19s-0.189-0.29-0.189-0.46s0.069-0.34,0.189-0.46
					c0.23-0.24,0.681-0.24,0.92,0c0.12,0.12,0.19,0.29,0.19,0.46s-0.07,0.34-0.19,0.46C47.59,48.081,47.419,48.151,47.249,48.151z"
					/>
				<path fill="#8BDCFC" d="M36.999,44.901c-0.17,0-0.34-0.07-0.46-0.19c-0.12-0.13-0.189-0.29-0.189-0.46s0.069-0.34,0.189-0.46
					c0.24-0.24,0.681-0.24,0.92,0c0.12,0.12,0.19,0.29,0.19,0.46s-0.07,0.33-0.19,0.46C37.34,44.831,37.169,44.901,36.999,44.901z"
					/>
				<path fill="#8BDCFC" d="M16.999,28.901c-0.17,0-0.34-0.07-0.46-0.19s-0.189-0.29-0.189-0.46s0.069-0.34,0.189-0.46
					c0.25-0.24,0.681-0.24,0.92,0c0.12,0.12,0.19,0.29,0.19,0.46s-0.07,0.34-0.19,0.46C17.34,28.831,17.18,28.901,16.999,28.901z"/>
				<path fill="#8BDCFC" d="M11.249,37.151c-0.17,0-0.34-0.07-0.46-0.19s-0.189-0.29-0.189-0.46c0-0.18,0.069-0.34,0.189-0.46
					c0.25-0.25,0.69-0.24,0.92,0c0.12,0.12,0.19,0.29,0.19,0.46s-0.07,0.34-0.19,0.46C11.59,37.081,11.419,37.151,11.249,37.151z"/>
				<path fill="#8BDCFC" d="M67.499,31.151c-0.17,0-0.34-0.07-0.46-0.19c-0.12-0.13-0.189-0.29-0.189-0.46s0.069-0.34,0.189-0.46
					c0.24-0.24,0.681-0.24,0.92,0c0.12,0.12,0.19,0.28,0.19,0.46c0,0.17-0.07,0.34-0.19,0.46
					C67.84,31.081,67.669,31.151,67.499,31.151z"/>
				<path fill="#8BDCFC" d="M7.249,16.151c-0.18,0-0.34-0.07-0.46-0.201C6.669,15.841,6.6,15.671,6.6,15.501s0.069-0.34,0.189-0.46
					c0.24-0.24,0.681-0.25,0.92,0c0.12,0.12,0.19,0.29,0.19,0.46s-0.07,0.34-0.19,0.46C7.59,16.081,7.43,16.151,7.249,16.151z"/>
				<path fill="#8BDCFC" d="M8.499,5.651c-0.17,0-0.33-0.07-0.46-0.19c-0.12-0.12-0.189-0.29-0.189-0.46
					c0-0.18,0.069-0.34,0.189-0.46c0.24-0.24,0.681-0.25,0.92,0c0.12,0.12,0.19,0.28,0.19,0.46c0,0.17-0.07,0.34-0.19,0.46
					C8.84,5.581,8.669,5.651,8.499,5.651z"/>
				<path fill="#8BDCFC" d="M3.499,2.901c-0.17,0-0.34-0.07-0.46-0.19c-0.12-0.13-0.189-0.29-0.189-0.46s0.069-0.34,0.189-0.46
					c0.24-0.24,0.67-0.24,0.92,0c0.12,0.12,0.19,0.29,0.19,0.46s-0.07,0.33-0.19,0.46C3.84,2.831,3.669,2.901,3.499,2.901z"/>
				<path fill="#8BDCFC" d="M66.499,37.651c-0.17,0-0.34-0.07-0.46-0.19s-0.189-0.29-0.189-0.46s0.069-0.34,0.189-0.46
					c0.24-0.24,0.681-0.24,0.92,0c0.12,0.12,0.19,0.28,0.19,0.46c0,0.17-0.07,0.34-0.19,0.46
					C66.84,37.581,66.68,37.651,66.499,37.651z"/>
				<path fill="#8BDCFC" d="M43.999,63.401c-0.17,0-0.34-0.07-0.46-0.19c-0.12-0.13-0.189-0.29-0.189-0.46s0.069-0.34,0.189-0.46
					c0.23-0.24,0.67-0.25,0.92,0c0.12,0.12,0.19,0.29,0.19,0.46s-0.07,0.33-0.19,0.46C44.34,63.331,44.169,63.401,43.999,63.401z"/>
				<path fill="#8BDCFC" d="M25.749,70.401c-0.17,0-0.34-0.07-0.46-0.19c-0.12-0.13-0.189-0.29-0.189-0.46s0.069-0.34,0.189-0.46
					c0.25-0.25,0.681-0.24,0.92,0c0.12,0.12,0.19,0.29,0.19,0.46s-0.07,0.33-0.19,0.46C26.09,70.331,25.919,70.401,25.749,70.401z"
					/>
				<path fill="#8BDCFC" d="M21.999,42.151c-0.17,0-0.34-0.07-0.46-0.19s-0.189-0.28-0.189-0.46s0.069-0.34,0.189-0.46
					c0.24-0.24,0.67-0.24,0.92,0c0.12,0.12,0.19,0.29,0.19,0.46s-0.07,0.34-0.19,0.46C22.34,42.081,22.169,42.151,21.999,42.151z"/>
				<path fill="#8BDCFC" d="M23.999,29.401c-0.17,0-0.34-0.07-0.46-0.19c-0.12-0.13-0.189-0.29-0.189-0.46s0.069-0.34,0.189-0.46
					c0.23-0.24,0.681-0.25,0.92,0c0.12,0.12,0.19,0.28,0.19,0.46c0,0.17-0.07,0.34-0.19,0.46
					C24.34,29.331,24.169,29.401,23.999,29.401z"/>
				<path fill="#8BDCFC" d="M41.499,34.901c-0.17,0-0.34-0.07-0.46-0.19s-0.189-0.29-0.189-0.46s0.069-0.34,0.189-0.46
					c0.24-0.24,0.681-0.24,0.92,0c0.12,0.12,0.19,0.29,0.19,0.46s-0.07,0.33-0.19,0.46C41.84,34.831,41.669,34.901,41.499,34.901z"
					/>
				<path fill="#8BDCFC" d="M67.499,44.151c-0.17,0-0.34-0.07-0.46-0.19c-0.12-0.13-0.189-0.29-0.189-0.46s0.069-0.34,0.189-0.46
					c0.24-0.24,0.681-0.24,0.92,0c0.12,0.12,0.19,0.28,0.19,0.46c0,0.17-0.07,0.34-0.19,0.46
					C67.84,44.081,67.669,44.151,67.499,44.151z"/>
				<path fill="#8BDCFC" d="M53.249,15.401c-0.17,0-0.34-0.07-0.46-0.19s-0.189-0.29-0.189-0.46s0.069-0.34,0.189-0.46
					c0.24-0.24,0.681-0.24,0.92,0c0.12,0.12,0.19,0.29,0.19,0.46s-0.07,0.33-0.19,0.46C53.59,15.331,53.419,15.401,53.249,15.401z"
					/>
				<path fill="#8BDCFC" d="M33.999,16.401c-0.17,0-0.34-0.07-0.46-0.19c-0.12-0.13-0.189-0.29-0.189-0.46
					c0-0.18,0.069-0.34,0.189-0.46c0.24-0.24,0.69-0.24,0.92,0c0.12,0.12,0.19,0.28,0.19,0.46c0,0.17-0.07,0.34-0.19,0.46
					C34.34,16.331,34.169,16.401,33.999,16.401z"/>
				<path fill="#8BDCFC" d="M12.749,19.651c-0.17,0-0.34-0.07-0.46-0.19s-0.189-0.29-0.189-0.46s0.069-0.34,0.189-0.46
					c0.25-0.25,0.681-0.24,0.92,0c0.12,0.12,0.19,0.29,0.19,0.46s-0.07,0.34-0.19,0.46C13.09,19.581,12.919,19.651,12.749,19.651z"
					/>
				<path fill="#8BDCFC" d="M49.499,4.901c-0.17,0-0.34-0.07-0.46-0.19s-0.189-0.29-0.189-0.46s0.069-0.34,0.189-0.46
					c0.24-0.24,0.67-0.24,0.92,0c0.12,0.12,0.19,0.29,0.19,0.46s-0.07,0.34-0.19,0.46C49.84,4.831,49.669,4.901,49.499,4.901z"/>
				<path fill="#8BDCFC" d="M58.999,21.151c-0.17,0-0.34-0.07-0.46-0.19s-0.189-0.29-0.189-0.46s0.069-0.34,0.189-0.46
					c0.25-0.24,0.67-0.24,0.92,0c0.12,0.12,0.19,0.28,0.19,0.46c0,0.17-0.07,0.34-0.19,0.46
					C59.34,21.081,59.169,21.151,58.999,21.151z"/>
				<path fill="#8BDCFC" d="M67.499,57.651c-0.17,0-0.34-0.07-0.46-0.19c-0.12-0.13-0.189-0.29-0.189-0.46s0.069-0.34,0.189-0.46
					c0.24-0.24,0.681-0.24,0.92,0c0.12,0.12,0.19,0.28,0.19,0.46c0,0.17-0.07,0.34-0.19,0.46
					C67.84,57.581,67.669,57.651,67.499,57.651z"/>
				<path fill="#8BDCFC" d="M5.249,70.151c-0.18,0-0.34-0.07-0.46-0.19S4.6,69.671,4.6,69.501s0.069-0.34,0.189-0.46
					c0.25-0.25,0.681-0.24,0.92,0c0.12,0.12,0.19,0.29,0.19,0.46s-0.07,0.34-0.19,0.46C5.59,70.081,5.43,70.151,5.249,70.151z"/>
				<path fill="#8BDCFC" d="M2.749,13.651c-0.18,0-0.34-0.07-0.46-0.201C2.169,13.341,2.1,13.171,2.1,13.001s0.069-0.34,0.189-0.46
					c0.24-0.25,0.681-0.24,0.92,0c0.12,0.12,0.19,0.29,0.19,0.46s-0.07,0.34-0.19,0.46C3.09,13.581,2.93,13.651,2.749,13.651z"/>
				<path fill="#8BDCFC" d="M16.499,3.651c-0.17,0-0.34-0.07-0.46-0.19s-0.189-0.29-0.189-0.46s0.069-0.34,0.189-0.46
					c0.24-0.24,0.681-0.24,0.92,0c0.12,0.12,0.19,0.29,0.19,0.46s-0.07,0.34-0.19,0.46C16.84,3.581,16.669,3.651,16.499,3.651z"/>
				<path fill="#8BDCFC" d="M40.499,4.901c-0.17,0-0.34-0.07-0.46-0.19s-0.189-0.29-0.189-0.46s0.069-0.34,0.189-0.46
					c0.25-0.24,0.681-0.24,0.92,0c0.12,0.12,0.19,0.28,0.19,0.46c0,0.17-0.07,0.34-0.19,0.46C40.84,4.831,40.669,4.901,40.499,4.901
					z"/>
				<path fill="#8BDCFC" d="M2.749,32.401c-0.18,0-0.34-0.07-0.46-0.19S2.1,31.921,2.1,31.751s0.069-0.34,0.189-0.46
					c0.24-0.24,0.69-0.24,0.92,0c0.12,0.12,0.19,0.29,0.19,0.46s-0.07,0.34-0.19,0.46C3.09,32.331,2.919,32.401,2.749,32.401z"/>
				<path fill="#8BDCFC" d="M7.499,25.401c-0.18,0-0.34-0.07-0.46-0.19s-0.189-0.29-0.189-0.46s0.069-0.34,0.189-0.46
					c0.24-0.24,0.681-0.24,0.92,0c0.12,0.12,0.19,0.28,0.19,0.46c0,0.17-0.07,0.34-0.19,0.46C7.84,25.331,7.68,25.401,7.499,25.401z
					"/>
				<path fill="#8BDCFC" d="M3.999,47.151c-0.17,0-0.34-0.07-0.46-0.19c-0.12-0.13-0.189-0.29-0.189-0.46s0.069-0.34,0.189-0.46
					c0.23-0.24,0.67-0.25,0.92,0c0.12,0.12,0.19,0.29,0.19,0.46s-0.07,0.33-0.19,0.46C4.34,47.081,4.18,47.151,3.999,47.151z"/>
				<path fill="#8BDCFC" d="M10.999,50.901c-0.17,0-0.34-0.07-0.46-0.19c-0.12-0.13-0.189-0.29-0.189-0.46
					c0-0.18,0.069-0.34,0.189-0.46c0.24-0.24,0.681-0.24,0.92,0c0.12,0.12,0.19,0.29,0.19,0.46s-0.07,0.33-0.19,0.46
					C11.34,50.831,11.169,50.901,10.999,50.901z"/>
				<path fill="#8BDCFC" d="M9.999,60.151c-0.18,0-0.34-0.07-0.46-0.19s-0.189-0.29-0.189-0.46s0.069-0.34,0.189-0.46
					c0.24-0.24,0.681-0.24,0.92,0c0.12,0.12,0.19,0.29,0.19,0.46s-0.07,0.34-0.19,0.46C10.34,60.081,10.18,60.151,9.999,60.151z"/>
				<path fill="#8BDCFC" d="M13.499,66.151c-0.17,0-0.34-0.07-0.46-0.19c-0.12-0.13-0.189-0.29-0.189-0.46
					c0-0.18,0.069-0.34,0.189-0.46c0.24-0.24,0.681-0.25,0.92,0c0.12,0.12,0.19,0.29,0.19,0.46s-0.07,0.33-0.19,0.46
					C13.84,66.081,13.669,66.151,13.499,66.151z"/>
				<path fill="#8BDCFC" d="M21.999,53.651c-0.17,0-0.34-0.07-0.46-0.19s-0.189-0.28-0.189-0.46s0.069-0.35,0.2-0.46
					c0.22-0.24,0.67-0.24,0.909,0c0.12,0.12,0.19,0.29,0.19,0.46s-0.07,0.33-0.19,0.46C22.34,53.581,22.169,53.651,21.999,53.651z"
					/>
				<path fill="#8BDCFC" d="M31.249,37.901c-0.17,0-0.34-0.07-0.46-0.19c-0.12-0.13-0.189-0.29-0.189-0.46s0.069-0.34,0.189-0.46
					c0.24-0.24,0.681-0.24,0.92,0c0.12,0.12,0.19,0.29,0.19,0.46s-0.07,0.33-0.19,0.46C31.59,37.831,31.419,37.901,31.249,37.901z"
					/>
				<path fill="#8BDCFC" d="M25.999,34.401c-0.17,0-0.34-0.07-0.46-0.19s-0.189-0.29-0.189-0.46s0.069-0.34,0.189-0.46
					c0.25-0.25,0.681-0.24,0.92,0c0.12,0.12,0.19,0.29,0.19,0.46s-0.07,0.34-0.19,0.46C26.34,34.331,26.169,34.401,25.999,34.401z"
					/>
				<path fill="#8BDCFC" d="M37.249,28.901c-0.17,0-0.34-0.07-0.46-0.19c-0.12-0.13-0.189-0.29-0.189-0.46s0.069-0.34,0.189-0.46
					c0.24-0.24,0.67-0.24,0.92,0c0.12,0.12,0.19,0.29,0.19,0.46s-0.07,0.33-0.19,0.46C37.59,28.831,37.419,28.901,37.249,28.901z"/>
				<path fill="#8BDCFC" d="M61.749,16.901c-0.17,0-0.34-0.07-0.46-0.19c-0.12-0.13-0.189-0.29-0.189-0.46s0.069-0.34,0.189-0.46
					c0.24-0.24,0.681-0.24,0.92,0c0.12,0.12,0.19,0.28,0.19,0.46c0,0.17-0.07,0.34-0.19,0.46
					C62.09,16.831,61.919,16.901,61.749,16.901z"/>
				<path fill="#8BDCFC" d="M61.249,27.401c-0.18,0-0.34-0.07-0.46-0.19c-0.12-0.13-0.189-0.29-0.189-0.46s0.069-0.34,0.189-0.46
					c0.24-0.24,0.681-0.24,0.92,0c0.12,0.12,0.19,0.29,0.19,0.46s-0.07,0.34-0.19,0.46C61.59,27.331,61.43,27.401,61.249,27.401z"/>
				<path fill="#8BDCFC" d="M58.749,57.401c-0.17,0-0.34-0.07-0.46-0.19c-0.12-0.13-0.189-0.29-0.189-0.46s0.069-0.34,0.189-0.46
					c0.24-0.24,0.681-0.24,0.92,0c0.12,0.12,0.19,0.29,0.19,0.46s-0.07,0.33-0.19,0.46C59.09,57.331,58.919,57.401,58.749,57.401z"
					/>
				<path fill="#8BDCFC" d="M59.249,44.651c-0.18,0-0.34-0.07-0.46-0.19s-0.189-0.29-0.189-0.46s0.069-0.34,0.189-0.46
					c0.24-0.24,0.681-0.24,0.92,0c0.12,0.12,0.19,0.29,0.19,0.46s-0.07,0.34-0.19,0.46C59.59,44.581,59.43,44.651,59.249,44.651z"/>
				<path fill="#8BDCFC" d="M55.749,35.901c-0.17,0-0.34-0.07-0.46-0.19c-0.12-0.13-0.189-0.29-0.189-0.46s0.069-0.34,0.189-0.46
					c0.24-0.24,0.681-0.24,0.92,0c0.12,0.12,0.19,0.29,0.19,0.46s-0.07,0.33-0.19,0.46C56.09,35.831,55.919,35.901,55.749,35.901z"
					/>
				<path fill="#8BDCFC" d="M69.249,70.901c-0.17,0-0.33-0.07-0.46-0.19c-0.12-0.12-0.189-0.29-0.189-0.46s0.069-0.34,0.189-0.46
					c0.23-0.229,0.681-0.24,0.92,0c0.12,0.12,0.19,0.29,0.19,0.46s-0.07,0.34-0.19,0.46C69.59,70.831,69.419,70.901,69.249,70.901z"
					/>
				<path fill="#8BDCFC" d="M60.749,66.151c-0.17,0-0.34-0.07-0.46-0.19s-0.189-0.29-0.189-0.46s0.069-0.34,0.189-0.46
					c0.24-0.24,0.681-0.25,0.92,0c0.12,0.12,0.19,0.28,0.19,0.46c0,0.17-0.07,0.34-0.19,0.46
					C61.09,66.081,60.919,66.151,60.749,66.151z"/>
				<path fill="#8BDCFC" d="M44.499,71.651c-0.17,0-0.34-0.07-0.46-0.19s-0.189-0.29-0.189-0.46s0.069-0.34,0.189-0.46
					c0.24-0.24,0.69-0.24,0.92,0c0.12,0.12,0.19,0.29,0.19,0.46s-0.07,0.34-0.19,0.46C44.84,71.581,44.669,71.651,44.499,71.651z"/>
				<path fill="#8BDCFC" d="M24.499,1.401c-0.17,0-0.34-0.07-0.46-0.19s-0.189-0.29-0.189-0.46c0-0.18,0.069-0.34,0.189-0.46
					c0.23-0.24,0.681-0.25,0.92,0c0.12,0.12,0.19,0.29,0.19,0.46s-0.07,0.33-0.19,0.46C24.84,1.331,24.68,1.401,24.499,1.401z"/>
			</g>
			<g>
				<path fill="#8BDCFC" d="M-0.001,23.601c-0.09,0-0.18-0.039-0.25-0.1c-0.06-0.07-0.1-0.16-0.1-0.25s0.04-0.18,0.1-0.25
					c0.12-0.12,0.36-0.131,0.5,0c0.061,0.07,0.101,0.16,0.101,0.25s-0.04,0.18-0.101,0.25C0.18,23.562,0.09,23.601-0.001,23.601z"/>
			</g>
		</g>
	</g>
</g>
<g>
</g>
<g>
</g>
<g>
</g>
<g>
</g>
<g>
</g>
<g>
</g>
<g>
</g>
<g>
</g>
<g>
</g>
<g>
</g>
<g>
</g>
<g>
</g>
<g>
</g>
<g>
</g>
<g>
</g>
</svg>
