<?xml version="1.0" encoding="utf-8"?>
<!-- Generator: Adobe Illustrator 16.2.0, SVG Export Plug-In . SVG Version: 6.00 Build 0)  -->
<!DOCTYPE svg PUBLIC "-//W3C//DTD SVG 1.1//EN" "http://www.w3.org/Graphics/SVG/1.1/DTD/svg11.dtd">
<svg version="1.1" id="Layer_2" xmlns="http://www.w3.org/2000/svg" xmlns:xlink="http://www.w3.org/1999/xlink" x="0px" y="0px"
	 width="264.165px" height="75.15px" viewBox="-7.083 87.425 264.165 75.15" enable-background="new -7.083 87.425 264.165 75.15"
	 xml:space="preserve">
<g>
	<g>
		<path fill="#FFFFFF" d="M34.953,106.924c3.667,0.081,5.039,6.19,8.494,4.824c-4.958-1.272-2.16-6.044,0.985-7.793
			c3.058-1.614,8.241-1.877,10.627,1.13l0,0l0,0c1.306-5.346,16.38-4.199,20.396-4.082c7.031,0.339,13.643,1.354,19.288,5.686
			c3.021,2.291,5.458,5.523,7.243,8.899l0,0c0.048,0.213,0.18,0.297,0.229,0.517c0,0-1.778-8.422-9.207-12.571
			c0,0-5.909-5.998-21.682-7.208c0,0-15.429,0.314-21.258,2.79c0,0-9.909,3.07-14.263,7.043L34.953,106.924z"/>
		<g>
			<path fill="#FFFFFF" d="M34.385,107.779c11.633-10.206,30.842-13.39,45.653-10.093c6.7,1.486,12.977,4.992,17.517,10.184
				c2.454,2.809,4.003,6.233,4.861,9.831c0.531,2.223,0.572,4.522,0.388,6.783c-0.179,2.222-1.596,5.174-1.173,7.346
				c-0.817-4.248-7.255-5.975-10.672-6.882c-6.372-1.693-12.434-0.965-18.924-0.984c-8.704-0.023-17.551-2.063-25.792-4.683
				c-4.104-1.309-8.482-2.377-12.161-4.695c-4.464-2.815-0.014-1.003,1.236-0.776c1.771,0.322,3.047-0.421,4.86,0.333
				c0.236,0.095,0.503-0.223,0.361-0.427c-0.695-1.034-1.385-2.182-2.38-2.945c-0.385-0.292-4.6-2.421-3.623-2.99
				c0.336-0.195,0.056-0.737-0.279-0.54c-0.961,0.56-0.717,0.332-1.348,1.19c-0.129,0.168-0.006,0.387,0.165,0.453
				c0.865,0.32,8.5,4.531,5.338,4.181c-1.648-0.181-3.118,0.232-4.792-0.301c-0.651-0.21-1.247-0.463-1.929-0.538
				c-0.128-0.019-0.27,0.089-0.302,0.215c-0.653,2.748,7.955,5.255,9.586,5.759c6.904,2.136,13.66,4.588,20.886,5.357
				c3.861,0.408,7.732,1.004,11.625,1.015c3.916,0.015,7.677-0.654,11.602-0.127c5.145,0.699,14.896,2.078,16.103,8.292
				c0.06,0.301,0.507,0.316,0.585,0.016c2.053-8.035,2.563-15.511-1.937-22.792c-3.684-5.981-10.105-9.791-16.571-12.001
				c-7.751-2.638-16.313-2.307-24.3-1.145c-8.946,1.303-18.1,4.469-24.991,10.518C33.687,107.595,34.093,108.042,34.385,107.779
				L34.385,107.779z"/>
		</g>
		<g>
			<path fill="#FFFFFF" d="M101.224,132.314c0.094,7.74-1.966,15.197-3.068,22.816c-0.384,2.664-0.189,1.16-0.759-0.484
				c-0.548-1.586-1.184-3.125-1.847-4.672c-1.334-3.105-2.995-6.031-5.469-8.338c-1.618-1.52-4.183-2.396-6.327-2.672
				c-2.42-0.318-4.507,0.223-1.011-2.086c2.086-1.369,4.535-2.168,6.9-2.854c3.733-1.102,9.043-2.313,6.479-7.313
				c-0.184-0.357-0.711-0.07-0.541,0.273c2.878,5.609-5.906,6.221-8.583,7.227c-2.875,1.088-5.358,2.488-7.67,4.5
				c-0.199,0.195-0.066,0.531,0.194,0.547c6.289,0.158,10.627,2.074,13.854,7.656c1.974,3.422,3.295,7.27,4.47,11.012
				c0.105,0.334,0.561,0.291,0.603-0.057c0.878-8.566,3.473-16.873,3.38-25.531C101.827,131.939,101.219,131.914,101.224,132.314
				L101.224,132.314z"/>
		</g>
		<g>
			<path fill="#FFFFFF" d="M94.902,133.795c1.85-0.363,2.368,2.266,3.125,3.477c0.69,1.098,1.717,1.52,2.968,1.322
				c0.389-0.045,0.249-0.645-0.129-0.586c-3.487,0.518-2.625-5.502-6.09-4.799C94.392,133.281,94.517,133.871,94.902,133.795
				L94.902,133.795z"/>
		</g>
		<g>
			<path fill="#FFFFFF" d="M93.98,133.398c-3.037,0.268-5.821,1.436-8.541,2.76c-0.354,0.166-0.074,0.697,0.276,0.531
				c2.625-1.266,5.313-2.434,8.245-2.686C94.343,133.969,94.367,133.365,93.98,133.398L93.98,133.398z"/>
		</g>
		<g>
			<path fill="#FFFFFF" d="M94.981,133.977c-2.031,0.801-4.094,1.527-6.045,2.525c-0.349,0.174-0.069,0.711,0.28,0.543
				c1.947-1.004,4.009-1.729,6.044-2.535C95.618,134.359,95.338,133.832,94.981,133.977L94.981,133.977z"/>
		</g>
		<g>
			<path fill="#FFFFFF" d="M95.477,134.662c-2.289,1.066-3.917,2.936-5.62,4.748c-0.262,0.283,0.14,0.736,0.408,0.463
				c1.666-1.793,3.241-3.637,5.488-4.678C96.106,135.033,95.829,134.504,95.477,134.662L95.477,134.662z"/>
		</g>
		<g>
			<path fill="#FFFFFF" d="M95.64,135.891c-0.873,0.551-1.592,1.283-2.377,1.951c-0.302,0.24,0.115,0.691,0.407,0.445
				c0.743-0.637,1.422-1.338,2.242-1.865C96.243,136.217,95.965,135.668,95.64,135.891L95.64,135.891z"/>
		</g>
		<g>
			<path fill="#FFFFFF" d="M96.975,136.076c-1.748,2.006-2.902,4.305-4.032,6.693c-0.169,0.35,0.338,0.676,0.505,0.322
				c1.109-2.328,2.224-4.611,3.931-6.57C97.629,136.229,97.224,135.779,96.975,136.076L96.975,136.076z"/>
		</g>
		<g>
			<path fill="#FFFFFF" d="M96.91,137.631c-0.463,0.732-0.919,1.475-1.243,2.293c-0.146,0.365,0.438,0.543,0.577,0.176
				c0.306-0.764,0.748-1.447,1.175-2.158C97.633,137.613,97.119,137.303,96.91,137.631L96.91,137.631z"/>
		</g>
		<g>
			<path fill="#FFFFFF" d="M97.841,138.215c-1.291,2.471-1.674,5.127-2.078,7.838c-0.06,0.395,0.546,0.412,0.602,0.021
				c0.389-2.609,0.741-5.17,1.989-7.535C98.532,138.182,98.028,137.869,97.841,138.215L97.841,138.215z"/>
		</g>
		<g>
			<path fill="#FFFFFF" d="M98.957,139.104c-0.657,1.434-0.949,2.98-1.319,4.502c-0.097,0.373,0.483,0.563,0.578,0.176
				c0.346-1.471,0.618-2.965,1.25-4.354C99.628,139.08,99.119,138.746,98.957,139.104L98.957,139.104z"/>
		</g>
		<g>
			<path fill="#FFFFFF" d="M99.922,139.059c-0.833,3.467-1.518,6.953-1.894,10.496c-0.04,0.381,0.562,0.406,0.602,0.025
				c0.366-3.498,1.041-6.936,1.868-10.34C100.597,138.865,100.018,138.691,99.922,139.059L99.922,139.059z"/>
		</g>
		<g>
			<path fill="#FFFFFF" d="M73.405,95.954c1.871-2.964,3.9-5.653,6.87-7.574c1.729-1.122,2.226,2.217,2.521,2.994
				c0.316,0.823,1.157,1.391,1.833,1.866c0.723,0.5,1.673,0.779,2.481,1.069c0.566,0.192,1.133,0.387,1.688,0.595
				c0.056,0.015,5.005,2.644,2.538,3.313c-1.053,0.289-2.351,0.127-3.44,0.126c-0.222,0.003-1.767,0.279-1.955,0.156
				c-0.328-0.207-0.652,0.313-0.324,0.519c0.672,0.424,2.063-0.066,2.87-0.066c1.258-0.001,2.652,0.131,3.809-0.45
				c1.955-0.977-1.855-3.578-2.51-3.843c-2.94-1.213-6.285-1.622-6.833-5.386c-0.133-0.913-0.492-1.812-1.577-1.845
				c-3.512-0.118-6.937,5.744-8.481,8.208C72.682,95.965,73.193,96.282,73.405,95.954L73.405,95.954z"/>
		</g>
		<g>
			<path fill="#FFFFFF" d="M54.701,122.137c1.509,4.367,1.88,9.47,5.845,12.419c0.192,0.146,0.445-0.029,0.463-0.242
				c0.159-2.217-0.099-4.445,0.298-6.65c0.272-1.509,0.725-2.846,0.425-4.379c-0.067-0.383-0.658-0.248-0.583,0.137
				c0.361,1.869-0.445,3.807-0.651,5.682c-0.183,1.709,0.032,3.473-0.093,5.189c0.157-0.084,0.308-0.166,0.463-0.238
				c-3.799-2.836-4.131-7.871-5.577-12.046C55.167,121.644,54.573,121.769,54.701,122.137L54.701,122.137z"/>
		</g>
		<g>
			<path fill="#FFFFFF" d="M78.922,124.511c2.936,2.047,3.699,5.559,4.952,8.708c0.082,0.205,0.326,0.18,0.475,0.084
				c2.819-2.014,2.278-6.32,5.268-8.172c0.331-0.21,0.06-0.736-0.275-0.538c-2.951,1.833-2.612,5.722-4.998,7.974
				c0.168-0.152-1.825-4.527-2.04-4.979c-0.703-1.459-1.729-2.663-3.063-3.587C78.921,123.781,78.602,124.287,78.922,124.511
				L78.922,124.511z"/>
		</g>
		<g>
			<path fill="#FFFFFF" d="M97.291,129.002c0.689,1.521-0.03,2.865-1.336,3.713c-0.327,0.219-0.05,0.756,0.275,0.539
				c1.608-1.035,2.429-2.695,1.597-4.525C97.664,128.37,97.136,128.656,97.291,129.002L97.291,129.002z"/>
		</g>
		<g>
			<path fill="#FFFFFF" d="M87.914,120.941c4.526-1.156,9.529,1.672,12.576,4.895c0.261,0.279,0.708-0.129,0.441-0.422
				c-3.19-3.363-8.404-6.271-13.149-5.06C87.404,120.444,87.534,121.038,87.914,120.941L87.914,120.941z"/>
		</g>
		<path fill="#FFFFFF" d="M64.641,108.17c5.665-2.208,13.805-0.976,19.632,0.106c5.659,1.35,14.357,4.056,17.801,9.235
			c0.136,0.087,0.318,0.386,0.318,0.386c-2.011-1.832-5.704-3.057-8.451-3.108c1.206,1.324,2.689,2.822,2.992,4.697
			c-3.551-2.628-7.048-2.97-10.843-4.625c1.599-0.484,3.337-0.876,4.935-1.363c-6.654-4.783-18.948-6.223-26.684-5.143"/>
		<g>
			<path fill="#FFFFFF" d="M50.003,105.746c2.015,3.109,0.719,6.791-1.048,9.688c-0.202,0.331,0.309,0.66,0.508,0.326
				c1.878-3.078,3.208-7.013,1.079-10.293C50.331,105.138,49.792,105.417,50.003,105.746L50.003,105.746z"/>
		</g>
		<g>
			<path fill="#FFFFFF" d="M43.521,112.913c-0.085,0.803-0.921,3.223,0.305,3.703c2.298,0.89,5.937-0.072,8.201-0.762
				c2.578-0.791,4.13-2.894,4.718-5.411c0.661-2.81-1.31-4.874-2.377-7.224c-0.162-0.366-0.697-0.077-0.534,0.278
				c0.497,1.105,1.13,2.101,1.744,3.146c2.295,3.921-0.979,7.789-4.612,8.898c-1.095,0.333-2.743,0.365-3.901,0.566
				c-1.369,0.617-2.452,0.28-3.233-1.002c0.021-0.714,0.221-1.46,0.299-2.168C44.171,112.547,43.563,112.533,43.521,112.913
				L43.521,112.913z"/>
		</g>
		<g>
			<path fill="#FFFFFF" d="M56.031,105.887c0.362-0.584,0.721-1.158,1.085-1.741c0.21-0.33-0.305-0.656-0.508-0.318
				c-0.366,0.574-0.729,1.158-1.094,1.739C55.309,105.895,55.816,106.219,56.031,105.887L56.031,105.887z"/>
		</g>
		<g>
			<path fill="#FFFFFF" d="M56.846,110.682c3.818,0.965-1.271,6.394-3.083,7.242c-0.355,0.165-0.074,0.704,0.278,0.537
				c2.229-1.043,7.656-7.183,2.983-8.359C56.645,110.003,56.469,110.583,56.846,110.682L56.846,110.682z"/>
		</g>
		<g>
			<path fill="#FFFFFF" d="M53.971,115.434c-1.229,1.597-3.04,2.599-5.077,2.458c-0.389-0.026-0.406,0.576-0.025,0.605
				c2.259,0.157,4.253-0.978,5.612-2.737C54.725,115.45,54.213,115.125,53.971,115.434L53.971,115.434z"/>
		</g>
		<g>
			<path fill="#FFFFFF" d="M43.782,106.663c-0.686,0.098-1.292,0.629-1.534,1.272c-0.301,0.81,0.418,1.454,1.146,1.6
				c1.691,0.325,1.843-2.444,0.33-2.82c-0.38-0.096-0.553,0.49-0.178,0.583c0.814,0.202,0.9,1.826-0.064,1.635
				c-1.298-0.25-0.427-1.55,0.435-1.684C44.301,107.197,44.164,106.606,43.782,106.663L43.782,106.663z"/>
		</g>
		<g>
			<path fill="#FFFFFF" d="M42.689,107.903c1.163-1.699,3.643-1.256,4.59,0.413c0.189,0.342,0.727,0.063,0.534-0.278
				c-1.182-2.081-4.214-2.54-5.639-0.461C41.954,107.9,42.467,108.225,42.689,107.903L42.689,107.903z"/>
		</g>
		<g>
			<path fill="#FFFFFF" d="M56.708,122.905c1.44,3.763,1.547,7.878,3.383,11.503c0.172,0.35,0.708,0.068,0.531-0.281
				c-1.823-3.617-1.937-7.75-3.376-11.5C57.103,122.261,56.572,122.544,56.708,122.905L56.708,122.905z"/>
		</g>
		<g>
			<path fill="#FFFFFF" d="M59.045,123.21c0.836,3.59,0.135,7.323,0.972,10.909c0.088,0.377,0.673,0.242,0.587-0.139
				c-0.839-3.586-0.134-7.313-0.966-10.905C59.549,122.693,58.96,122.83,59.045,123.21L59.045,123.21z"/>
		</g>
		<g>
			<path fill="#FFFFFF" d="M59.891,109.816c0.044,0.033,0.093,0.058,0.135,0.085c0.329,0.214,0.646-0.302,0.318-0.511
				c-0.042-0.026-0.082-0.053-0.126-0.086C59.883,109.1,59.565,109.61,59.891,109.816L59.891,109.816z"/>
		</g>
		<g>
			<path fill="#FFFFFF" d="M61.724,109.378c0.068-0.016,0.143-0.03,0.218-0.049c0.379-0.086,0.244-0.679-0.137-0.592
				c-0.074,0.016-0.142,0.032-0.215,0.051C61.212,108.876,61.343,109.468,61.724,109.378L61.724,109.378z"/>
		</g>
		<g>
			<path fill="#FFFFFF" d="M61.903,111.654c0.328,0.212,0.646-0.305,0.318-0.512C61.895,110.936,61.575,111.445,61.903,111.654
				L61.903,111.654z"/>
		</g>
		<g>
			<path fill="#FFFFFF" d="M58.115,108.507c0.329,0.207,0.653-0.305,0.325-0.514C58.112,107.788,57.787,108.3,58.115,108.507
				L58.115,108.507z"/>
		</g>
		<g>
			<path fill="#FFFFFF" d="M59.722,106.533c0.33,0.213,0.655-0.305,0.325-0.514C59.719,105.812,59.393,106.325,59.722,106.533
				L59.722,106.533z"/>
		</g>
		<g>
			<path fill="#FFFFFF" d="M62.313,105.372c0.049,0.026,0.09,0.052,0.131,0.079c0.329,0.212,0.653-0.306,0.326-0.514
				c-0.048-0.023-0.089-0.051-0.133-0.083C62.31,104.644,61.982,105.158,62.313,105.372L62.313,105.372z"/>
		</g>
		<g>
			<path fill="#FFFFFF" d="M61.535,107.493c0.329,0.211,0.653-0.303,0.326-0.51C61.534,106.775,61.207,107.289,61.535,107.493
				L61.535,107.493z"/>
		</g>
		<g>
			<path fill="#FFFFFF" d="M60.415,108.092c0.337,0.212,0.653-0.304,0.325-0.512C60.414,107.373,60.086,107.886,60.415,108.092
				L60.415,108.092z"/>
		</g>
		<g>
			<path fill="#FFFFFF" d="M59.748,103.939c-0.006,0.031-0.02,0.063-0.024,0.094c0.054-0.058,0.101-0.115,0.153-0.181
				c-0.008,0.003-0.012,0.004-0.018,0.007c0.136,0.046,0.272,0.084,0.4,0.131c-0.03-0.052-0.041-0.13-0.053-0.191
				c-0.083-0.386-0.672-0.252-0.586,0.13c0.027,0.114,0.049,0.239,0.11,0.339c0.085,0.151,0.244,0.199,0.405,0.131
				c0.177-0.072,0.191-0.275,0.212-0.441C60.399,103.569,59.797,103.552,59.748,103.939L59.748,103.939z"/>
		</g>
		<g>
			<path fill="#FFFFFF" d="M62.008,103.49c0.328,0.208,0.646-0.303,0.317-0.508C61.997,102.768,61.681,103.284,62.008,103.49
				L62.008,103.49z"/>
		</g>
		<g>
			<path fill="#FFFFFF" d="M64.087,103.127c0.045,0.027,0.093,0.059,0.136,0.085c0.328,0.21,0.646-0.302,0.319-0.511
				c-0.044-0.027-0.085-0.059-0.128-0.086C64.088,102.408,63.761,102.922,64.087,103.127L64.087,103.127z"/>
		</g>
		<g>
			<path fill="#FFFFFF" d="M65.255,104.256c-0.033,0.049-0.063,0.104-0.093,0.152c-0.213,0.331,0.303,0.656,0.507,0.319
				c0.031-0.048,0.066-0.096,0.094-0.15C65.969,104.249,65.464,103.928,65.255,104.256c-0.033,0.049-0.063,0.104-0.093,0.152
				c-0.213,0.331,0.303,0.656,0.507,0.319c0.031-0.048,0.066-0.096,0.094-0.15C65.969,104.249,65.464,103.928,65.255,104.256
				L65.255,104.256z"/>
		</g>
		<g>
			<path fill="#FFFFFF" d="M65.06,106.005c0.107-0.211,0.083-0.419-0.086-0.586c-0.272-0.27-0.717,0.14-0.443,0.407
				c0.003-0.047,0.01-0.096,0.019-0.148C64.365,106.028,64.879,106.348,65.06,106.005L65.06,106.005z"/>
		</g>
		<g>
			<path fill="#FFFFFF" d="M63.384,104.555c0.327,0.206,0.648-0.306,0.319-0.518C63.375,103.829,63.056,104.342,63.384,104.555
				L63.384,104.555z"/>
		</g>
		<g>
			<path fill="#FFFFFF" d="M58.874,105.809c0.33,0.208,0.655-0.305,0.327-0.512S58.548,105.604,58.874,105.809L58.874,105.809z"/>
		</g>
		<g>
			<path fill="#FFFFFF" d="M56.443,106.136c0.329,0.208,0.654-0.304,0.324-0.51C56.438,105.413,56.116,105.931,56.443,106.136
				L56.443,106.136z"/>
		</g>
		<g>
			<path fill="#FFFFFF" d="M58.559,103.361c0.329,0.207,0.646-0.304,0.318-0.512C58.545,102.635,58.229,103.15,58.559,103.361
				L58.559,103.361z"/>
		</g>
		<g>
			<path fill="#FFFFFF" d="M60.758,102.516c0.328,0.206,0.654-0.306,0.326-0.514C60.755,101.787,60.429,102.308,60.758,102.516
				L60.758,102.516z"/>
		</g>
		<g>
			<path fill="#FFFFFF" d="M64.563,101.779c-0.007-0.006-0.016-0.013-0.022-0.018c-0.332-0.211-0.65,0.305-0.321,0.512
				c0.057,0.039,0.125,0.08,0.185,0.116c0.327,0.208,0.646-0.302,0.318-0.51c-0.009-0.005-0.015-0.009-0.023-0.015
				c-0.329-0.208-0.649,0.304-0.322,0.512c0.01,0.002,0.018,0.007,0.027,0.013c0.327,0.208,0.646-0.302,0.318-0.51
				c-0.06-0.037-0.117-0.081-0.181-0.118c-0.332-0.211-0.65,0.305-0.321,0.512c0.009,0.004,0.016,0.011,0.024,0.016
				C64.57,102.498,64.891,101.985,64.563,101.779L64.563,101.779z"/>
		</g>
		<g>
			<path fill="#FFFFFF" d="M67.273,102.17c0.027-0.043,0.058-0.087,0.085-0.136c0.208-0.329-0.302-0.649-0.509-0.319
				c-0.025,0.042-0.058,0.085-0.083,0.135C66.56,102.18,67.069,102.5,67.273,102.17L67.273,102.17z"/>
		</g>
		<g>
			<path fill="#FFFFFF" d="M69.907,102.142c0.328,0.208,0.655-0.304,0.327-0.514C69.898,101.423,69.58,101.936,69.907,102.142
				L69.907,102.142z"/>
		</g>
		<g>
			<path fill="#FFFFFF" d="M71.91,101.912c0.33,0.213,0.651-0.305,0.32-0.511C71.904,101.193,71.582,101.706,71.91,101.912
				L71.91,101.912z"/>
		</g>
		<g>
			<path fill="#FFFFFF" d="M74.715,101.293c-0.009-0.005-0.019-0.011-0.024-0.015c-0.329-0.208-0.652,0.305-0.323,0.51
				c0.063,0.044,0.119,0.082,0.189,0.123c0.326,0.208,0.644-0.305,0.317-0.519c-0.009-0.005-0.017-0.008-0.025-0.013
				c-0.331-0.21-0.648,0.303-0.32,0.509c0.011,0.012,0.017,0.016,0.028,0.022c0.326,0.208,0.644-0.305,0.317-0.519
				c-0.058-0.036-0.125-0.07-0.183-0.113c-0.329-0.208-0.652,0.305-0.323,0.51c0.011,0.004,0.02,0.017,0.029,0.022
				C74.725,102.017,75.047,101.506,74.715,101.293L74.715,101.293z"/>
		</g>
		<g>
			<path fill="#FFFFFF" d="M75.456,102.483c0.333,0.208,0.654-0.303,0.324-0.511C75.452,101.758,75.126,102.277,75.456,102.483
				L75.456,102.483z"/>
		</g>
		<g>
			<path fill="#FFFFFF" d="M74.749,103.798c0.009-0.022,0.009-0.009-0.005,0.05c0.041-0.075,0.068-0.144,0.103-0.218
				c-0.014,0.012-0.023,0.019-0.032,0.026c0.097-0.023,0.199-0.037,0.295-0.059c-0.024-0.012-0.043-0.016-0.063-0.022
				c-0.369-0.113-0.546,0.469-0.175,0.58c0.022,0.006,0.04,0.011,0.063,0.024c0.095,0.026,0.221,0.004,0.287-0.066
				c0.128-0.135,0.147-0.271,0.12-0.444C75.267,103.277,74.681,103.415,74.749,103.798L74.749,103.798z"/>
		</g>
		<g>
			<path fill="#FFFFFF" d="M72.964,104.083c0.336,0.205,0.655-0.306,0.328-0.512C72.961,103.362,72.637,103.874,72.964,104.083
				L72.964,104.083z"/>
		</g>
		<g>
			<path fill="#FFFFFF" d="M70.495,104.761c0.331,0.208,0.655-0.306,0.329-0.512C70.49,104.041,70.169,104.554,70.495,104.761
				L70.495,104.761z"/>
		</g>
		<g>
			<path fill="#FFFFFF" d="M68.399,104.55c0.33,0.213,0.648-0.305,0.319-0.511C68.39,103.83,68.07,104.341,68.399,104.55
				L68.399,104.55z"/>
		</g>
		<g>
			<path fill="#FFFFFF" d="M68.555,103.711c0.329,0.212,0.647-0.303,0.318-0.51C68.543,102.994,68.227,103.504,68.555,103.711
				L68.555,103.711z"/>
		</g>
		<g>
			<path fill="#FFFFFF" d="M71.638,103.241c0.326,0.208,0.653-0.305,0.321-0.512C71.629,102.512,71.309,103.032,71.638,103.241
				L71.638,103.241z"/>
		</g>
		<g>
			<path fill="#FFFFFF" d="M73.766,103.096c0.049,0.025,0.094,0.059,0.139,0.085c0.327,0.208,0.652-0.308,0.323-0.512
				c-0.05-0.033-0.092-0.06-0.134-0.084C73.768,102.375,73.439,102.888,73.766,103.096L73.766,103.096z"/>
		</g>
		<g>
			<path fill="#FFFFFF" d="M77.968,103.519c0.328,0.207,0.651-0.307,0.323-0.521C77.96,102.79,77.636,103.303,77.968,103.519
				L77.968,103.519z"/>
		</g>
		<g>
			<path fill="#FFFFFF" d="M79.25,104.141c0.327,0.206,0.648-0.305,0.318-0.512C79.239,103.416,78.919,103.932,79.25,104.141
				L79.25,104.141z"/>
		</g>
		<g>
			<path fill="#FFFFFF" d="M81.563,104.3c0.328,0.209,0.655-0.305,0.321-0.519C81.552,103.575,81.233,104.086,81.563,104.3
				L81.563,104.3z"/>
		</g>
		<g>
			<path fill="#FFFFFF" d="M83.693,104.158c0.338,0.205,0.655-0.307,0.329-0.513C83.691,103.431,83.367,103.95,83.693,104.158
				L83.693,104.158z"/>
		</g>
		<g>
			<path fill="#FFFFFF" d="M82.453,103.177c0.329,0.209,0.655-0.305,0.318-0.512C82.442,102.454,82.126,102.971,82.453,103.177
				L82.453,103.177z"/>
		</g>
		<g>
			<path fill="#FFFFFF" d="M80.435,102.834c0.332,0.211,0.654-0.306,0.325-0.514C80.435,102.115,80.104,102.625,80.435,102.834
				L80.435,102.834z"/>
		</g>
		<g>
			<path fill="#FFFFFF" d="M78.205,102.543c0.33,0.21,0.655-0.304,0.326-0.52C78.201,101.817,77.876,102.331,78.205,102.543
				L78.205,102.543z"/>
		</g>
		<g>
			<path fill="#FFFFFF" d="M79.801,103.556c0.331,0.209,0.653-0.302,0.322-0.518C79.795,102.831,79.471,103.345,79.801,103.556
				L79.801,103.556z"/>
		</g>
		<g>
			<path fill="#FFFFFF" d="M82.857,103.432c0.323,0.207,0.645-0.305,0.315-0.517C82.845,102.709,82.52,103.221,82.857,103.432
				L82.857,103.432z"/>
		</g>
		<g>
			<path fill="#FFFFFF" d="M85.034,103.507c0.329,0.208,0.648-0.302,0.32-0.516C85.024,102.782,84.704,103.296,85.034,103.507
				L85.034,103.507z"/>
		</g>
		<g>
			<path fill="#FFFFFF" d="M86.884,104.117c0.327,0.207,0.648-0.305,0.316-0.511C86.874,103.392,86.557,103.91,86.884,104.117
				L86.884,104.117z"/>
		</g>
		<g>
			<path fill="#FFFFFF" d="M88.689,105.081c0.335,0.206,0.655-0.305,0.324-0.521C88.688,104.354,88.361,104.867,88.689,105.081
				L88.689,105.081z"/>
		</g>
		<g>
			<path fill="#FFFFFF" d="M89.986,106.272c0.331,0.212,0.648-0.306,0.319-0.512C89.981,105.553,89.662,106.062,89.986,106.272
				L89.986,106.272z"/>
		</g>
		<g>
			<path fill="#FFFFFF" d="M86.755,106.097c0.331,0.207,0.648-0.304,0.319-0.516C86.747,105.373,86.427,105.885,86.755,106.097
				L86.755,106.097z"/>
		</g>
		<g>
			<path fill="#FFFFFF" d="M85.261,105.517c0.327,0.208,0.646-0.303,0.316-0.511C85.25,104.799,84.93,105.31,85.261,105.517
				L85.261,105.517z"/>
		</g>
		<g>
			<path fill="#FFFFFF" d="M84.195,104.842c0.331,0.21,0.646-0.301,0.319-0.508C84.186,104.127,83.867,104.638,84.195,104.842
				L84.195,104.842z"/>
		</g>
		<g>
			<path fill="#FFFFFF" d="M86.778,105.175c0.329,0.207,0.648-0.304,0.317-0.516C86.768,104.448,86.445,104.959,86.778,105.175
				L86.778,105.175z"/>
		</g>
		<g>
			<path fill="#FFFFFF" d="M88.987,105.468c0.03-0.043,0.063-0.088,0.088-0.135c0.206-0.329-0.303-0.65-0.511-0.321
				c-0.031,0.043-0.055,0.093-0.083,0.136C88.268,105.48,88.782,105.798,88.987,105.468L88.987,105.468z"/>
		</g>
		<g>
			<path fill="#FFFFFF" d="M90.672,105.774c0.202,0.107,0.414,0.084,0.581-0.088c0.268-0.273-0.135-0.72-0.41-0.445
				c0.054,0.005,0.102,0.017,0.156,0.019C90.651,105.082,90.333,105.592,90.672,105.774L90.672,105.774z"/>
		</g>
		<g>
			<path fill="#FFFFFF" d="M92.584,107.171c0.041,0.032,0.087,0.059,0.135,0.084c0.326,0.207,0.646-0.304,0.316-0.509
				c-0.042-0.028-0.092-0.06-0.132-0.086C92.574,106.452,92.256,106.962,92.584,107.171L92.584,107.171z"/>
		</g>
		<g>
			<path fill="#FFFFFF" d="M94.577,108.439c0.325,0.207,0.653-0.306,0.324-0.512C94.57,107.714,94.249,108.231,94.577,108.439
				L94.577,108.439z"/>
		</g>
		<g>
			<path fill="#FFFFFF" d="M95.87,109.63c0.045,0.033,0.09,0.06,0.136,0.084c0.328,0.213,0.647-0.305,0.317-0.512
				c-0.042-0.025-0.083-0.059-0.13-0.084C95.862,108.911,95.544,109.421,95.87,109.63L95.87,109.63z"/>
		</g>
		<g>
			<path fill="#FFFFFF" d="M97.962,111.331c0.33,0.212,0.65-0.307,0.324-0.511C97.956,110.609,97.631,111.123,97.962,111.331
				L97.962,111.331z"/>
		</g>
		<g>
			<path fill="#FFFFFF" d="M98.957,112.712c0.328,0.207,0.654-0.303,0.32-0.511C98.945,111.987,98.629,112.504,98.957,112.712
				L98.957,112.712z"/>
		</g>
		<g>
			<path fill="#FFFFFF" d="M100.035,113.953c0.33,0.212,0.646-0.304,0.32-0.513C100.025,113.236,99.708,113.746,100.035,113.953
				L100.035,113.953z"/>
		</g>
		<g>
			<path fill="#FFFFFF" d="M96.579,111.764c0.328,0.206,0.647-0.305,0.321-0.512C96.567,111.04,96.251,111.556,96.579,111.764
				L96.579,111.764z"/>
		</g>
		<g>
			<path fill="#FFFFFF" d="M95.279,110.568c0.337,0.212,0.654-0.305,0.325-0.513C95.277,109.848,94.95,110.361,95.279,110.568
				L95.279,110.568z"/>
		</g>
		<g>
			<path fill="#FFFFFF" d="M93.022,109.135c0.328,0.208,0.656-0.305,0.328-0.511C93.021,108.416,92.694,108.93,93.022,109.135
				L93.022,109.135z"/>
		</g>
		<g>
			<path fill="#FFFFFF" d="M91.294,108.037c0.331,0.216,0.655-0.305,0.326-0.512C91.292,107.319,90.965,107.83,91.294,108.037
				L91.294,108.037z"/>
		</g>
		<g>
			<path fill="#FFFFFF" d="M90.135,106.933c0.33,0.205,0.647-0.307,0.316-0.519C90.124,106.205,89.805,106.717,90.135,106.933
				L90.135,106.933z"/>
		</g>
		<g>
			<path fill="#FFFFFF" d="M93.042,108.211c0.331,0.208,0.654-0.303,0.33-0.511C93.042,107.494,92.717,108.007,93.042,108.211
				L93.042,108.211z"/>
		</g>
		<g>
			<path fill="#FFFFFF" d="M94.167,109.195c0.072-0.015,0.147-0.032,0.216-0.046c0.385-0.089,0.249-0.683-0.13-0.597
				c-0.075,0.016-0.151,0.035-0.217,0.049C93.654,108.69,93.79,109.283,94.167,109.195L94.167,109.195z"/>
		</g>
		<g>
			<path fill="#FFFFFF" d="M96.368,110.323c0.33,0.209,0.654-0.304,0.324-0.518C96.364,109.595,96.037,110.11,96.368,110.323
				L96.368,110.323z"/>
		</g>
		<g>
			<path fill="#FFFFFF" d="M96.943,110.876c0.337,0.208,0.656-0.303,0.329-0.515C96.938,110.151,96.617,110.671,96.943,110.876
				L96.943,110.876z"/>
		</g>
		<g>
			<path fill="#FFFFFF" d="M95.193,108.643c0.33,0.208,0.648-0.304,0.319-0.518C95.185,107.917,94.862,108.43,95.193,108.643
				L95.193,108.643z"/>
		</g>
		<g>
			<path fill="#FFFFFF" d="M93.101,106.942c0.329,0.208,0.653-0.304,0.323-0.517C93.093,106.215,92.771,106.729,93.101,106.942
				L93.101,106.942z"/>
		</g>
		<g>
			<path fill="#FFFFFF" d="M91.152,105.894c0.336,0.207,0.652-0.306,0.326-0.512C91.148,105.167,90.827,105.687,91.152,105.894
				L91.152,105.894z"/>
		</g>
		<g>
			<path fill="#FFFFFF" d="M88.295,104.824c0.327,0.208,0.649-0.302,0.318-0.511C88.287,104.108,87.965,104.618,88.295,104.824
				L88.295,104.824z"/>
		</g>
		<g>
			<path fill="#FFFFFF" d="M88.458,106.052c0.329,0.206,0.646-0.305,0.319-0.518C88.447,105.327,88.129,105.837,88.458,106.052
				L88.458,106.052z"/>
		</g>
		<g>
			<path fill="#FFFFFF" d="M89.186,107.26c0.326,0.205,0.642-0.306,0.318-0.512C89.173,106.539,88.855,107.05,89.186,107.26
				L89.186,107.26z"/>
		</g>
		<g>
			<path fill="#FFFFFF" d="M80.874,106.29c0.327,0.211,0.646-0.306,0.319-0.513C80.863,105.57,80.542,106.079,80.874,106.29
				L80.874,106.29z"/>
		</g>
		<g>
			<path fill="#FFFFFF" d="M82.271,106.431c0.325,0.205,0.652-0.308,0.325-0.513C82.266,105.708,81.941,106.221,82.271,106.431
				L82.271,106.431z"/>
		</g>
		<g>
			<path fill="#FFFFFF" d="M82.509,105.457c0.33,0.212,0.646-0.303,0.321-0.513C82.501,104.739,82.181,105.25,82.509,105.457
				L82.509,105.457z"/>
		</g>
		<g>
			<path fill="#FFFFFF" d="M81.47,103.879c-0.023,0.049-0.052,0.091-0.085,0.132c-0.206,0.334,0.301,0.659,0.512,0.329
				c0.027-0.05,0.054-0.091,0.081-0.134C82.191,103.873,81.676,103.549,81.47,103.879L81.47,103.879z"/>
		</g>
		<g>
			<path fill="#FFFFFF" d="M79.058,105.333c0.328,0.206,0.652-0.313,0.328-0.517C79.05,104.606,78.73,105.118,79.058,105.333
				L79.058,105.333z"/>
		</g>
		<g>
			<path fill="#FFFFFF" d="M75.844,105.718c0.326,0.209,0.644-0.302,0.32-0.51C75.836,105.001,75.517,105.511,75.844,105.718
				L75.844,105.718z"/>
		</g>
		<g>
			<path fill="#FFFFFF" d="M74.531,105.443c0.328,0.213,0.646-0.303,0.319-0.51C74.52,104.725,74.193,105.237,74.531,105.443
				L74.531,105.443z"/>
		</g>
		<g>
			<path fill="#FFFFFF" d="M78.01,105.227c0.329,0.209,0.655-0.305,0.322-0.518C78.007,104.499,77.68,105.013,78.01,105.227
				L78.01,105.227z"/>
		</g>
		<g>
			<path fill="#FFFFFF" d="M78.699,106.789c0.336,0.206,0.656-0.305,0.327-0.514C78.697,106.063,78.372,106.581,78.699,106.789
				L78.699,106.789z"/>
		</g>
		<g>
			<path fill="#FFFFFF" d="M76.831,105.037c0.326,0.206,0.647-0.303,0.318-0.513C76.82,104.311,76.5,104.828,76.831,105.037
				L76.831,105.037z"/>
		</g>
		<g>
			<path fill="#FFFFFF" d="M70.792,106.071c0.328,0.208,0.654-0.304,0.318-0.516C70.781,105.348,70.462,105.858,70.792,106.071
				L70.792,106.071z"/>
		</g>
		<g>
			<path fill="#FFFFFF" d="M67.607,106.11c0.331,0.209,0.65-0.304,0.321-0.517C67.6,105.387,67.278,105.898,67.607,106.11
				L67.607,106.11z"/>
		</g>
		<g>
			<path fill="#FFFFFF" d="M65.768,107.562c0.326,0.206,0.654-0.308,0.32-0.511C65.761,106.842,65.441,107.354,65.768,107.562
				L65.768,107.562z"/>
		</g>
		<g>
			<path fill="#FFFFFF" d="M63.988,109.799c0.331,0.215,0.655-0.305,0.326-0.513C63.988,109.081,63.662,109.592,63.988,109.799
				L63.988,109.799z"/>
		</g>
		<g>
			<path fill="#FFFFFF" d="M64.562,111.851c0.333,0.206,0.655-0.308,0.329-0.512C64.561,111.129,64.234,111.642,64.562,111.851
				L64.562,111.851z"/>
		</g>
		<g>
			<path fill="#FFFFFF" d="M63.3,108.238c0.327,0.212,0.653-0.305,0.318-0.512C63.29,107.521,62.972,108.031,63.3,108.238
				L63.3,108.238z"/>
		</g>
		<g>
			<path fill="#FFFFFF" d="M62.579,112.168c0.069-0.015,0.146-0.033,0.212-0.047c0.383-0.093,0.251-0.683-0.127-0.595
				c-0.077,0.016-0.151,0.035-0.218,0.049C62.063,111.661,62.199,112.248,62.579,112.168L62.579,112.168z"/>
		</g>
		<g>
			<path fill="#FFFFFF" d="M59.785,112.389c-0.018,0.031-0.041,0.063-0.06,0.096c-0.21,0.332,0.297,0.659,0.508,0.326
				c0.022-0.031,0.04-0.068,0.06-0.103C60.505,112.377,59.99,112.059,59.785,112.389c-0.018,0.031-0.041,0.063-0.06,0.096
				c-0.21,0.332,0.297,0.659,0.508,0.326c0.022-0.031,0.04-0.068,0.06-0.103C60.505,112.377,59.99,112.059,59.785,112.389
				L59.785,112.389z"/>
		</g>
		<g>
			<path fill="#FFFFFF" d="M59.976,112.25c-0.188,0.062-0.338,0.178-0.523,0.239c-0.367,0.119-0.235,0.711,0.137,0.592
				c0.183-0.069,0.336-0.175,0.519-0.235C60.475,112.726,60.345,112.131,59.976,112.25L59.976,112.25z"/>
		</g>
		<g>
			<path fill="#FFFFFF" d="M58.659,114.458c0.328,0.209,0.646-0.303,0.317-0.51C58.649,113.742,58.324,114.256,58.659,114.458
				L58.659,114.458z"/>
		</g>
		<g>
			<path fill="#FFFFFF" d="M86.516,107.641c0.026-0.041,0.05-0.088,0.082-0.133c0.207-0.329-0.303-0.657-0.506-0.328
				c-0.035,0.05-0.061,0.094-0.086,0.136C85.791,107.648,86.308,107.973,86.516,107.641L86.516,107.641z"/>
		</g>
		<g>
			<path fill="#FFFFFF" d="M89.983,108.357c-0.047-0.024-0.094-0.059-0.135-0.085c-0.328-0.206-0.654,0.306-0.325,0.512
				c0.049,0.032,0.09,0.058,0.131,0.085C89.986,109.082,90.31,108.563,89.983,108.357L89.983,108.357z"/>
		</g>
		<g>
			<path fill="#FFFFFF" d="M91.373,109.4c0.329,0.206,0.652-0.307,0.321-0.52C91.367,108.675,91.042,109.187,91.373,109.4
				L91.373,109.4z"/>
		</g>
		<g>
			<path fill="#FFFFFF" d="M101.143,118.402c0.331,0.212,0.654-0.302,0.328-0.511C101.14,117.681,100.816,118.196,101.143,118.402
				L101.143,118.402z"/>
		</g>
		<g>
			<path fill="#FFFFFF" d="M102.084,121.057c0.33,0.204,0.653-0.307,0.323-0.517C102.08,120.335,101.757,120.852,102.084,121.057
				L102.084,121.057z"/>
		</g>
		<g>
			<path fill="#FFFFFF" d="M102.043,122.917c-0.025,0.043-0.051,0.092-0.082,0.137c-0.208,0.328,0.302,0.653,0.508,0.328
				c0.03-0.056,0.06-0.094,0.085-0.139C102.768,122.916,102.253,122.587,102.043,122.917L102.043,122.917z"/>
		</g>
		<g>
			<path fill="#FFFFFF" d="M101.964,125.094c0.328,0.209,0.653-0.296,0.327-0.501C101.963,124.38,101.633,124.884,101.964,125.094
				L101.964,125.094z"/>
		</g>
		<g>
			<path fill="#FFFFFF" d="M100.694,119.424c0.328,0.21,0.645-0.307,0.319-0.511C100.685,118.707,100.364,119.215,100.694,119.424
				L100.694,119.424z"/>
		</g>
		<g>
			<path fill="#FFFFFF" d="M101.042,123.014c0.325,0.206,0.653-0.302,0.323-0.509C101.034,122.287,100.714,122.812,101.042,123.014
				L101.042,123.014z"/>
		</g>
		<g>
			<path fill="#FFFFFF" d="M101.501,125.557c0.329,0.205,0.645-0.31,0.319-0.518C101.489,124.828,101.169,125.337,101.501,125.557
				L101.501,125.557z"/>
		</g>
		<g>
			<path fill="#FFFFFF" d="M101.18,128.713c0.333,0.213,0.658-0.296,0.332-0.501C101.172,127.992,100.854,128.508,101.18,128.713
				L101.18,128.713z"/>
		</g>
		<g>
			<path fill="#FFFFFF" d="M101.211,129.863c0.329,0.211,0.653-0.314,0.325-0.516C101.203,129.145,100.88,129.643,101.211,129.863
				L101.211,129.863z"/>
		</g>
		<g>
			<path fill="#FFFFFF" d="M101.935,127.508c0.331,0.22,0.654-0.295,0.327-0.502C101.938,126.794,101.604,127.303,101.935,127.508
				L101.935,127.508z"/>
		</g>
		<g>
			<path fill="#FFFFFF" d="M74.965,96.112c1.266-1.447,2.436-2.997,4.023-4.099c0.317-0.22,0.041-0.763-0.278-0.542
				c-1.641,1.137-2.844,2.7-4.153,4.186C74.307,95.95,74.711,96.401,74.965,96.112L74.965,96.112z"/>
		</g>
		<g>
			<path fill="#FFFFFF" d="M76.284,96.38c1.317-0.957,2.667-1.836,4.141-2.523c0.355-0.161,0.074-0.701-0.275-0.536
				c-1.527,0.705-2.915,1.622-4.272,2.609C75.562,96.16,75.97,96.604,76.284,96.38L76.284,96.38z"/>
		</g>
		<g>
			<path fill="#FFFFFF" d="M78.428,96.81c1.607-1.498,3.833-1.986,5.91-2.457c0.38-0.088,0.249-0.68-0.131-0.593
				c-2.17,0.499-4.5,1.028-6.183,2.602C77.737,96.628,78.139,97.072,78.428,96.81L78.428,96.81z"/>
		</g>
		<g>
			<path fill="#FFFFFF" d="M80.681,97.014c1.017-0.538,2.044-1.022,3.162-1.287c0.381-0.093,0.252-0.682-0.128-0.589
				c-1.171,0.274-2.253,0.774-3.312,1.336C80.06,96.658,80.337,97.191,80.681,97.014L80.681,97.014z"/>
		</g>
		<g>
			<path fill="#FFFFFF" d="M82.658,97.71c2.014-1.095,4.247-1.301,6.489-1.373c0.388-0.009,0.418-0.613,0.024-0.604
				c-2.346,0.069-4.685,0.294-6.789,1.435C82.036,97.355,82.317,97.894,82.658,97.71L82.658,97.71z"/>
		</g>
		<g>
			<path fill="#FFFFFF" d="M84.688,98.62c1.517-0.561,3.115-0.81,4.702-1.064c0.386-0.065,0.25-0.649-0.134-0.595
				c-1.643,0.264-3.279,0.54-4.843,1.12C84.048,98.22,84.329,98.753,84.688,98.62L84.688,98.62z"/>
		</g>
		<path fill="#FFFFFF" d="M58.55,117.248c1.479-3.82,9.918-3.886,12.962-1.822c0.654,0.415,2.389,2.042,1.399,2.996
			c-0.703,0.489-2.521-0.798-3.2-0.963c-2.426-0.747-4.924-0.743-7.438-0.493c-1.2,0.031-3.29,0.429-3.959,0.659"/>
	</g>
	<g>
		<path fill="#FFFFFF" d="M195.846,111.672c2.393,0,4.117,0.364,5.283,1.307c1.426,1.069,2.24,2.747,2.24,4.926
			c0,4.487-2.994,6.547-6.156,6.971c-0.453,0.075-0.941,0.075-1.268,0.075l-2.051-0.537v4.597c0,2.847,0.271,3.085,2.865,3.323
			v1.135h-9.389v-1.135c2.262-0.238,2.535-0.477,2.535-3.323v-12.846c0-2.854-0.273-3.053-2.354-3.322v-1.17H195.846z
			 M193.895,123.074c0.355,0.165,0.996,0.333,1.621,0.333c1.127,0,3.535-0.867,3.535-5.401c0-3.791-1.936-5.027-3.775-5.027
			c-0.568,0-0.924,0.164-1.109,0.332c-0.188,0.203-0.271,0.541-0.271,1.044V123.074z"/>
		<path fill="#FFFFFF" d="M205.094,133.469v-1.071c1.922-0.238,2.02-0.502,2.02-2.287v-8.146c0-1.941-0.152-2.151-1.75-2.285v-1.037
			h7.396v1.037c-1.697,0.134-1.879,0.476-1.879,2.285v1.91c0.637-0.066,1.092-0.1,1.633-0.1c4.164,0,5.855,1.537,5.855,4.623
			c0,4.034-3.5,5.071-6.707,5.071H205.094z M210.881,130.32c0,1.636,0.367,1.874,1.209,1.874c1.209,0,2.205-1.037,2.205-3.657
			c0-2.574-1.064-3.489-2.719-3.489c-0.299,0-0.428,0-0.695,0.027V130.32z M218.486,133.469v-1.071
			c1.662-0.142,1.779-0.441,1.779-2.287v-8.146c0-1.846-0.086-2.151-1.723-2.241v-1.081h7.309v1.081
			c-1.596,0.09-1.725,0.361-1.725,2.241v8.146c0,1.879,0.156,2.146,1.725,2.287v1.071H218.486z"/>
		<path fill="#FFFFFF" d="M241.539,125.522c0,5.635-3.406,8.348-6.877,8.348c-4.191,0-6.756-3.821-6.727-9.157
			c0-3.552,1.084-6.439,2.65-8.722c1.449-2.108,2.746-3.116,4.145-3.787c0.781-0.469,1.381-0.77,2.676-1.17
			c1.242-0.409,2.053-0.675,2.723-1.21c0.242-0.197,0.385-0.135,0.385,0.165c0,1.542-0.541,3.259-1.838,4.092
			c-0.758,0.472-2.111,0.913-3.588,1.141c-1.902,0.339-2.896,0.81-3.35,1.51c-0.482,0.771-0.611,1.878-0.371,3.388l0.07,0.067
			c1.027-1.006,2.352-1.947,3.977-1.947C239.402,118.239,241.539,121.665,241.539,125.522z M232.818,120.76
			c-0.482,0.633-0.807,1.505-0.807,3.753c0.023,5.069,1.295,8.006,2.92,8.006c1.152,0,2.318-0.799,2.318-6.231
			c0-4.198-1.139-6.635-2.676-6.635C233.904,119.653,233.461,120.023,232.818,120.76z"/>
		<path fill="#FFFFFF" d="M253.791,133.87c-0.809,0-1.453-0.306-1.836-0.7c-0.428-0.412-0.643-0.836-0.781-1.25
			c-1.156,0.838-2.566,1.95-3.137,1.95c-2.564,0-4.074-2.211-4.074-4.288c0-1.745,0.717-2.583,2.291-3.23
			c1.783-0.738,4.105-1.538,4.789-2.204v-1.015c0-2.106-0.713-3.277-1.838-3.277c-0.387,0-0.727,0.192-0.996,0.599
			c-0.355,0.475-0.627,1.275-0.869,2.312c-0.215,0.876-0.643,1.144-1.266,1.144c-0.785,0-1.869-0.803-1.869-1.681
			c0-0.612,0.357-1.037,1.055-1.601c1.139-0.879,3.291-2.047,5-2.39c1.238,0,2.15,0.3,2.965,0.975
			c1.293,1.107,1.564,2.554,1.564,4.429v5.533c0,1.537,0.484,1.982,0.969,1.982c0.355,0,0.699-0.145,1.025-0.271l0.299,1.07
			L253.791,133.87z M251.043,125.45c-0.537,0.304-1.053,0.673-1.65,1.049c-0.943,0.529-1.426,1.13-1.426,2.275
			c0,1.871,1.125,2.585,1.809,2.585c0.428,0,0.754-0.138,1.268-0.538V125.45z"/>
	</g>
	<g>
		<path fill="#FFFFFF" d="M9.93,149.889c-0.354,1.462-1.064,3.782-1.54,4.854c-0.71,0.18-3.238,0.797-5.113,0.797
			c-7.306,0-10.36-5.292-10.36-10.146c0-6.259,4.342-10.647,10.913-10.647c2.226,0,4.262,0.656,5.008,0.838
			c0.24,1.674,0.439,3.088,0.625,5.008l-1.009,0.217c-0.916-3.639-3.03-4.709-5.144-4.709c-3.989,0-6.188,4.193-6.188,8.688
			c0,5.618,2.725,9.31,6.456,9.31c2.289,0,3.994-1.618,5.397-4.7L9.93,149.889z"/>
		<path fill="#FFFFFF" d="M19.939,147.661c2.318,0.27,3.961,1.145,3.961,3.295c0,3.051-2.967,4.123-6.618,4.123H11.04v-0.982
			c1.758-0.188,1.895-0.49,1.895-2.475v-7.025c0-1.609-0.167-1.986-1.673-2.111v-0.915h7.746c2.367,0,4.071,0.796,4.071,3
			c0,1.891-1.651,2.679-3.14,3.021V147.661z M16.864,147.284c1.846,0,2.642-0.729,2.642-2.302c0-1.699-0.856-2.318-2.144-2.318
			c-0.773,0-1.021,0.218-1.021,1.041v3.579H16.864z M16.341,151.989c0,1.646,0.445,1.952,1.349,1.952c1.157,0,2.471-0.86,2.471-2.87
			c0-1.863-1.066-2.68-3.128-2.68h-0.691V151.989z"/>
		<path fill="#FFFFFF" d="M36.661,152.049c-1.678,2.783-3.822,3.389-4.943,3.389c-3.659,0-5.695-3.014-5.695-6.529
			c0-2.318,0.882-4.285,2.037-5.536c1.207-1.343,2.72-2.164,4.232-2.164c2.532,0,4.479,2.407,4.454,4.921
			c0,0.604-0.162,1.012-0.795,1.091c-0.496,0.064-3.845,0.372-6.548,0.49c0.145,3.272,1.761,4.919,3.719,4.919
			c1.068,0,2.085-0.387,3.045-1.313L36.661,152.049z M29.546,146.267c1.121-0.027,2.141-0.05,3.268-0.088
			c0.409-0.023,0.544-0.089,0.579-0.605c0-1.556-0.608-3.155-1.675-3.155C30.667,142.418,29.708,143.833,29.546,146.267z"/>
		<path fill="#FFFFFF" d="M55.053,155.079c-1.262,0-2.279-0.157-3.076-1.804c-0.608-1.2-1.069-2.6-1.403-3.43
			c-0.436-1.064-0.908-1.557-1.563-1.489v3.719c0,1.596,0.111,1.866,1.624,2.021v0.982h-6.653v-0.982
			c1.479-0.155,1.643-0.426,1.643-2.021v-3.719c-0.685-0.067-1.316,0.425-1.754,1.489c-0.445,1.006-0.88,2.259-1.352,3.43
			c-0.742,1.714-1.758,1.804-3.023,1.804h-2.362v-0.982c1.042-0.05,1.43-0.461,2.257-2.107c0.797-1.689,1.257-2.617,1.73-3.269
			c0.578-0.88,1.429-1.256,2.061-1.437v-0.144c-0.466-0.407-0.931-1.012-1.344-1.696c-0.771-1.248-1.488-1.912-2.341-1.912H38.97
			c-0.709,0-1.039-0.441-1.039-1.01c0-0.709,0.603-1.288,1.427-1.288c1.152,0,1.922,1.159,2.445,1.945
			c0.553,0.927,1.435,2.434,1.872,2.976c0.795,0.847,1.316,1.129,1.949,1.166v-2.751c0-1.636-0.165-1.871-1.536-2.015v-0.985h6.401
			v0.985c-1.367,0.184-1.478,0.379-1.478,2.015v2.751c0.631-0.037,1.206-0.319,1.923-1.104c0.494-0.517,1.402-2.11,1.921-2.96
			c0.524-0.863,1.294-2.022,2.447-2.022c0.934,0,1.377,0.604,1.377,1.376c0,0.646-0.331,0.98-0.965,0.98h-0.633
			c-0.875,0-1.54,0.63-2.335,1.916c-0.386,0.622-0.824,1.227-1.29,1.634v0.144c0.629,0.181,1.452,0.557,2.06,1.465
			c0.409,0.623,0.906,1.551,1.735,3.24c0.795,1.646,1.181,2.058,2.252,2.107v0.982H55.053z"/>
		<path fill="#FFFFFF" d="M67.679,155.438c-0.743,0-1.316-0.273-1.672-0.631c-0.389-0.376-0.585-0.76-0.718-1.136
			c-1.045,0.76-2.335,1.767-2.858,1.767c-2.336,0-3.71-2.02-3.71-3.903c0-1.594,0.657-2.353,2.083-2.933
			c1.628-0.671,3.741-1.406,4.374-2.012v-0.927c0-1.915-0.659-2.999-1.679-2.999c-0.357,0-0.657,0.189-0.905,0.566
			c-0.325,0.413-0.574,1.146-0.795,2.106c-0.193,0.792-0.582,1.036-1.154,1.036c-0.717,0-1.7-0.736-1.7-1.531
			c0-0.556,0.325-0.946,0.957-1.47c1.042-0.797,3.001-1.864,4.567-2.164c1.128,0,1.947,0.274,2.693,0.886
			c1.181,0.997,1.426,2.32,1.426,4.035v5.047c0,1.389,0.436,1.801,0.882,1.801c0.332,0,0.632-0.132,0.935-0.255l0.273,0.964
			L67.679,155.438z M65.176,147.766c-0.491,0.277-0.961,0.626-1.505,0.955c-0.854,0.487-1.302,1.036-1.302,2.078
			c0,1.716,1.02,2.354,1.654,2.354c0.382,0,0.688-0.122,1.154-0.498V147.766z"/>
		<path fill="#FFFFFF" d="M77.995,155.079v-0.982c1.588-0.217,1.672-0.426,1.672-2.048v-2.753h-0.578
			c-0.574,0-1.068,0.167-1.375,0.732c-0.388,0.686-0.688,1.716-1.097,3.038c-0.546,1.766-1.401,2.013-2.616,2.013h-3.046v-0.982
			c0.466-0.05,1.123-0.155,1.481-0.732c0.334-0.58,0.578-1.226,0.907-2.087c0.358-0.978,0.991-2.069,3.051-2.676v-0.067
			c-2.529-0.491-3.486-1.801-3.486-3.422c0-2.627,2.143-3.542,5.052-3.542h6.934v0.985c-1.708,0.184-1.82,0.326-1.82,2.015v7.479
			c0,1.471,0.086,1.859,1.762,2.048v0.982H77.995z M79.667,143.896c0-0.857-0.106-1.13-0.989-1.13c-1.178,0-2.198,0.982-2.198,2.592
			c0,1.041,0.326,1.862,1.068,2.319c0.526,0.343,1.104,0.441,1.679,0.441h0.44V143.896z"/>
	</g>
	<g>
		<path fill="#FFFFFF" d="M175.578,105.395c0,0,0.662,4.121,5.217,2.688c5.053-1.599,2.699-10.707-12.346-7.83
			c-10.695,2.037-26.773,15.086-25.888,33.572c0,0,0.993-25.419,26.386-32.381c10.488-2.881,14.385,3.064,11.863,4.91
			c-2.201,1.597-4.711-1.133-2.869-2.899c-12.959-1.198-26.897,12.711-23.021,28.724c2.955,12.21,16.178,16.263,16.178,16.263
			s-15.777-6.108-13.766-22.74c0.746-3.914,3.117-9.789,10.527-12.581c4.846-1.825,7.01,0.83,5.924,1.814
			c-0.977,0.851-2.33-0.337-1.561-1.259c-4.533,0.002-8.924,3.872-9.871,8.866c-1.313,1.084-2.496,2.428-3.439,4.022
			c0,0,7.34-10.246,19.494-7.363c4.969,1.185,4.93,4.538,3.414,4.72c-1.313,0.164-1.59-1.528-0.379-1.835
			c-4.852-3.437-14.291-0.874-17.113,6.589c-2.143,5.698,2.059,10.389,2.059,10.389s-3.262-4.271-1.205-9.381
			c1.082-1.562,2.631-3.042,4.66-4.296c4.357-2.692,7.088-0.532,6.215,0.63c-0.727,1.023-2.313,0.122-1.771-0.92
			c-6.113,1.186-10.27,9.328-5.934,16.034c3.332,5.099,10.041,5.194,10.041,5.194s-8.398-0.684-9.98-8.708
			c-1.344-6.581,2.992-10.895,5.111-11.327c0,0,0.982,1.774,2.818,0.505c2.061-1.394-0.475-5.16-6.887-1.875
			c-0.834,0.423-1.637,0.983-2.451,1.708c0.088-0.069,0.16-0.176,0.252-0.276c4.641-5.303,11.01-5.174,12.703-4.036
			c0,0-0.838,1.878,1.387,2.312c2.457,0.479,4.021-3.812-2.824-6.033c-3.391-1.095-9.301-0.6-14.137,2.464
			c1.539-4.199,5.135-6.34,6.855-6.361c0,0,0.525,1.936,2.604,1.052c2.328-0.973,0.727-5.196-6.283-3.156
			c-3.127,0.901-7.027,3.949-9.18,8.289C161.885,109.881,171.57,105.05,175.578,105.395z"/>
		<path fill="#FFFFFF" d="M170.227,144.974c0,0,7.326,5.537,20.08,0.303c13.938-5.729,19.805-6.75,29.516-3.404
			c0,0-10.129-3.051-19.807,1.09C191.936,146.422,180.234,152.724,170.227,144.974z"/>
		<path fill="#FFFFFF" d="M100.125,156.819c11.954-3.756,28.023-12.881,35.669-28.189c6.102-12.241,14.031-23.665,25.574-27.01
			c0,0-10.071,2.808-18.146,17.85c-4.059,7.579-6.87,19.126-19.757,28.105C114.468,153.833,100.125,156.819,100.125,156.819z"/>
		<path fill="#FFFFFF" d="M67.481,159.001c0,0,29.737,7.165,54.955-8.761c19.279-12.205,27.404-11.45,31.764-6.8
			c8.209,8.77,23.021,17.696,44.645,4.887c0,0-18.9,14.571-40.191,4.887c-12.699-5.777-18.229-4.799-30.188,1.138
			C117.575,159.756,92.548,167.041,67.481,159.001z"/>
	</g>
	<path fill="#FFFFFF" d="M171.771,98.167c0,0.001-1.229-0.089-3.326,0.158c-0.525,0.065-1.109,0.126-1.73,0.251
		c-0.631,0.107-1.297,0.226-2.012,0.402c-0.35,0.084-0.723,0.169-1.094,0.254c-0.379,0.111-0.756,0.224-1.154,0.341
		c-0.789,0.218-1.602,0.493-2.439,0.799c-0.855,0.271-1.709,0.646-2.586,1.03c-0.9,0.363-1.785,0.809-2.705,1.267
		c-0.457,0.231-0.934,0.446-1.381,0.705c-0.457,0.265-0.918,0.533-1.383,0.801c-0.465,0.27-0.922,0.542-1.398,0.817
		c-0.461,0.308-0.926,0.61-1.391,0.919c-0.924,0.608-1.883,1.22-2.785,1.946c-0.896,0.708-1.861,1.368-2.738,2.144
		c-0.9,0.759-1.793,1.526-2.707,2.295c-0.85,0.821-1.718,1.653-2.572,2.478l-0.65,0.623l-0.32,0.309L137.133,116l-1.246,1.338
		c-0.831,0.888-1.658,1.77-2.479,2.646c-1.652,1.747-3.318,3.427-4.959,5.03c-1.619,1.608-3.215,3.138-4.794,4.555
		c-1.539,1.416-3.024,2.742-4.44,3.907c-0.711,0.577-1.387,1.153-2.035,1.684c-0.664,0.509-1.296,0.989-1.893,1.438
		c-1.208,0.893-2.256,1.655-3.189,2.204c-0.454,0.279-0.857,0.54-1.218,0.751c-0.374,0.197-0.689,0.352-0.946,0.487
		c-0.51,0.254-0.789,0.391-0.789,0.391l-0.017-0.035c0,0,0.244-0.178,0.703-0.533c0.223-0.179,0.503-0.376,0.829-0.63
		c0.314-0.264,0.67-0.586,1.075-0.926c0.813-0.674,1.728-1.581,2.815-2.581c1.052-1.03,2.238-2.209,3.513-3.496
		c1.256-1.313,2.626-2.721,4.06-4.222c1.433-1.52,2.939-3.132,4.492-4.786c1.542-1.663,3.134-3.388,4.762-5.139
		c0.805-0.882,1.613-1.769,2.424-2.661l1.219-1.338l0.344-0.385l0.345-0.321l0.669-0.638c0.909-0.851,1.807-1.69,2.713-2.537
		c0.956-0.788,1.896-1.57,2.842-2.347c0.933-0.792,1.979-1.427,2.934-2.137c0.965-0.71,1.99-1.312,2.989-1.915
		c0.499-0.299,0.997-0.603,1.487-0.895c0.514-0.255,1.023-0.509,1.525-0.762c0.503-0.25,1-0.497,1.486-0.745
		c0.498-0.231,1.01-0.424,1.5-0.64c0.973-0.414,1.932-0.821,2.906-1.1c0.955-0.32,1.871-0.621,2.787-0.83
		c0.893-0.238,1.762-0.453,2.602-0.572c0.42-0.075,0.822-0.142,1.223-0.213c0.393-0.042,0.785-0.09,1.152-0.13
		c0.75-0.098,1.457-0.142,2.113-0.153c0.643-0.036,1.24-0.018,1.789-0.006c1.072,0.018,1.91,0.141,2.479,0.222
		c0.58,0.088,0.869,0.165,0.869,0.165L171.771,98.167z"/>
</g>
</svg>
