<?xml version="1.0" encoding="utf-8"?>
<!-- Generator: Adobe Illustrator 16.2.0, SVG Export Plug-In . SVG Version: 6.00 Build 0)  -->
<!DOCTYPE svg PUBLIC "-//W3C//DTD SVG 1.1//EN" "http://www.w3.org/Graphics/SVG/1.1/DTD/svg11.dtd">
<svg version="1.1" id="Layer_1" xmlns="http://www.w3.org/2000/svg" xmlns:xlink="http://www.w3.org/1999/xlink" x="0px" y="0px"
	 width="51px" height="59px" viewBox="0 0 51 59" enable-background="new 0 0 51 59" xml:space="preserve">
<g>
	<g>
		<path fill="none" stroke="#EBF8FF" stroke-width="1.25" d="M111.931,23.174c-1.969,2.344-5.965,4.594-17.289-5.529
			c-4.955-4.43-9.061-4.787-11.453-3.283c-1.492,0.938-2.15,2.906-1.822,3.938c0.547,1.717,2.109,2.297,3.328,1.453
			c-1.123-0.656-0.652-2.244,1.021-1.922c2.439,0.469,2.209,3.719,0.846,5.344c-1.969,2.344-5.965,4.594-17.289-5.529
			c-4.957-4.43-9.063-4.787-11.455-3.283c-1.494,0.938-2.15,2.906-1.82,3.938c0.547,1.717,2.109,2.297,3.326,1.453
			c-1.125-0.656-0.65-2.244,1.023-1.922c2.438,0.469,2.209,3.719,0.846,5.344c-1.971,2.344-5.967,4.594-17.289-5.529"/>
		<path fill="none" stroke="#EBF8FF" stroke-width="1.25" d="M103.099,37.145c-4.957-4.432-9.061-4.787-11.455-3.285
			c-1.492,0.938-2.148,2.906-1.82,3.938c0.547,1.719,2.109,2.297,3.328,1.453c-1.125-0.656-0.652-2.244,1.023-1.922
			c2.438,0.469,2.207,3.721,0.844,5.344c-1.969,2.344-5.965,4.594-17.289-5.527c-4.955-4.432-9.061-4.787-11.453-3.285
			c-1.494,0.938-2.15,2.906-1.822,3.938c0.547,1.719,2.109,2.297,3.33,1.453c-1.125-0.656-0.654-2.244,1.021-1.922
			c2.438,0.469,2.207,3.721,0.846,5.344c-1.971,2.344-5.967,4.594-17.291-5.527c-4.959-4.432-9.063-4.787-11.455-3.285"/>
		<path fill="none" stroke="#EBF8FF" stroke-width="1.25" d="M111.558,56.643c-4.959-4.432-9.063-4.787-11.455-3.285
			c-1.492,0.938-2.148,2.906-1.82,3.938c0.547,1.717,2.109,2.297,3.328,1.453c-1.125-0.656-0.652-2.244,1.021-1.92
			c2.438,0.469,2.209,3.717,0.846,5.342c-1.971,2.344-5.967,4.594-17.289-5.527c-4.957-4.432-9.063-4.787-11.455-3.285
			c-1.49,0.938-2.148,2.906-1.82,3.938c0.547,1.717,2.109,2.297,3.328,1.453c-1.125-0.656-0.654-2.244,1.021-1.92
			c2.438,0.469,2.209,3.717,0.846,5.342c-1.971,2.344-5.965,4.594-17.289-5.527c-4.959-4.432-9.063-4.787-11.457-3.285
			c-1.492,0.938-2.148,2.906-1.82,3.938c0.547,1.717,2.109,2.297,3.328,1.453c-1.125-0.656-0.652-2.244,1.023-1.92
			c2.438,0.469,2.207,3.717,0.842,5.342"/>
	</g>
	<g>
		<rect x="-0.5" y="-0.5" fill="#DEEEF7" width="52" height="60"/>
		<path fill="none" stroke="#EBF8FF" stroke-width="1.25" d="M61.193,23.174c-1.969,2.344-5.965,4.594-17.289-5.529
			c-4.955-4.43-9.061-4.787-11.453-3.283c-1.492,0.938-2.15,2.906-1.822,3.938c0.547,1.717,2.109,2.297,3.328,1.453
			c-1.123-0.656-0.652-2.244,1.021-1.922c2.439,0.469,2.209,3.719,0.846,5.344c-1.969,2.344-5.965,4.594-17.289-5.529
			c-4.958-4.43-9.063-4.787-11.456-3.283c-1.493,0.938-2.149,2.906-1.82,3.938c0.547,1.717,2.109,2.297,3.327,1.453
			c-1.125-0.656-0.651-2.244,1.023-1.922c2.438,0.469,2.208,3.719,0.845,5.344c-1.97,2.344-5.966,4.594-17.289-5.529"/>
		<path fill="none" stroke="#EBF8FF" stroke-width="1.25" d="M52.361,37.145c-4.957-4.432-9.061-4.787-11.455-3.285
			c-1.492,0.938-2.148,2.906-1.82,3.938c0.547,1.719,2.109,2.297,3.328,1.453c-1.125-0.656-0.652-2.244,1.023-1.922
			c2.438,0.469,2.207,3.721,0.844,5.344c-1.969,2.344-5.965,4.594-17.289-5.527c-4.956-4.432-9.061-4.787-11.454-3.285
			c-1.494,0.938-2.149,2.906-1.821,3.938c0.546,1.719,2.109,2.297,3.329,1.453c-1.125-0.656-0.653-2.244,1.021-1.922
			c2.438,0.469,2.208,3.721,0.846,5.344c-1.97,2.344-5.967,4.594-17.291-5.527c-4.958-4.432-9.063-4.787-11.455-3.285"/>
		<path fill="none" stroke="#EBF8FF" stroke-width="1.25" d="M60.82,56.643c-4.959-4.432-9.063-4.787-11.455-3.285
			c-1.492,0.938-2.148,2.906-1.82,3.938c0.547,1.717,2.109,2.297,3.328,1.453c-1.125-0.656-0.652-2.244,1.021-1.92
			c2.438,0.469,2.209,3.717,0.846,5.342c-1.971,2.344-5.967,4.594-17.289-5.527c-4.957-4.432-9.063-4.787-11.455-3.285
			c-1.491,0.938-2.149,2.906-1.82,3.938c0.546,1.717,2.109,2.297,3.328,1.453c-1.125-0.656-0.654-2.244,1.021-1.92
			c2.438,0.469,2.209,3.717,0.846,5.342c-1.971,2.344-5.966,4.594-17.29-5.527c-4.959-4.432-9.063-4.787-11.456-3.285
			c-1.493,0.938-2.148,2.906-1.82,3.938c0.547,1.717,2.109,2.297,3.327,1.453c-1.125-0.656-0.651-2.244,1.023-1.92
			c2.438,0.469,2.208,3.717,0.843,5.342"/>
	</g>
	<g>
		<path fill="none" stroke="#EBF8FF" stroke-width="1.25" d="M10.455,23.174c-1.969,2.344-5.965,4.594-17.289-5.529
			c-4.955-4.43-9.061-4.787-11.453-3.283c-1.492,0.938-2.15,2.906-1.822,3.938c0.547,1.717,2.109,2.297,3.328,1.453
			c-1.123-0.656-0.652-2.244,1.021-1.922c2.439,0.469,2.209,3.719,0.846,5.344c-1.969,2.344-5.965,4.594-17.289-5.529
			c-4.958-4.43-9.063-4.787-11.456-3.283c-1.493,0.938-2.149,2.906-1.82,3.938c0.547,1.717,2.109,2.297,3.327,1.453
			c-1.125-0.656-0.651-2.244,1.023-1.922c2.438,0.469,2.208,3.719,0.845,5.344c-1.97,2.344-5.966,4.594-17.289-5.529"/>
		<path fill="none" stroke="#EBF8FF" stroke-width="1.25" d="M1.623,37.145c-4.957-4.432-9.061-4.787-11.455-3.285
			c-1.492,0.938-2.148,2.906-1.82,3.938c0.547,1.719,2.109,2.297,3.328,1.453c-1.125-0.656-0.652-2.244,1.023-1.922
			c2.438,0.469,2.207,3.721,0.844,5.344c-1.969,2.344-5.965,4.594-17.289-5.527c-4.956-4.432-9.061-4.787-11.454-3.285
			c-1.494,0.938-2.149,2.906-1.821,3.938c0.546,1.719,2.109,2.297,3.329,1.453c-1.125-0.656-0.653-2.244,1.021-1.922
			c2.438,0.469,2.208,3.721,0.846,5.344c-1.97,2.344-5.967,4.594-17.291-5.527c-4.958-4.432-9.063-4.787-11.455-3.285"/>
		<path fill="none" stroke="#EBF8FF" stroke-width="1.25" d="M10.082,56.643c-4.959-4.432-9.063-4.787-11.455-3.285
			c-1.492,0.938-2.148,2.906-1.82,3.938c0.547,1.717,2.109,2.297,3.328,1.453c-1.125-0.656-0.652-2.244,1.021-1.92
			c2.438,0.469,2.209,3.717,0.846,5.342c-1.971,2.344-5.967,4.594-17.289-5.527c-4.957-4.432-9.063-4.787-11.455-3.285
			c-1.491,0.938-2.149,2.906-1.82,3.938c0.546,1.717,2.109,2.297,3.328,1.453c-1.125-0.656-0.654-2.244,1.021-1.92
			c2.438,0.469,2.209,3.717,0.846,5.342c-1.971,2.344-5.966,4.594-17.29-5.527c-4.959-4.432-9.063-4.787-11.456-3.285
			c-1.493,0.938-2.148,2.906-1.82,3.938c0.547,1.717,2.109,2.297,3.327,1.453c-1.125-0.656-0.651-2.244,1.023-1.92
			c2.438,0.469,2.208,3.717,0.843,5.342"/>
	</g>
	<g>
		<path fill="none" stroke="#EBF8FF" stroke-width="1.25" d="M111.558-1.854c-4.959-4.432-9.063-4.787-11.455-3.285
			c-1.492,0.938-2.148,2.906-1.82,3.938c0.547,1.717,2.109,2.297,3.328,1.453c-1.125-0.656-0.652-2.244,1.021-1.92
			c2.438,0.469,2.209,3.717,0.846,5.342c-1.971,2.344-5.967,4.594-17.289-5.527c-4.957-4.432-9.063-4.787-11.455-3.285
			c-1.49,0.938-2.148,2.906-1.82,3.938c0.547,1.717,2.109,2.297,3.328,1.453c-1.125-0.656-0.654-2.244,1.021-1.92
			c2.438,0.469,2.209,3.717,0.846,5.342c-1.971,2.344-5.965,4.594-17.289-5.527c-4.959-4.432-9.063-4.787-11.457-3.285
			c-1.492,0.938-2.148,2.906-1.82,3.938c0.547,1.717,2.109,2.297,3.328,1.453c-1.125-0.656-0.652-2.244,1.023-1.92
			c2.438,0.469,2.207,3.717,0.842,5.342"/>
	</g>
	<g>
		<path fill="none" stroke="#EBF8FF" stroke-width="1.25" d="M60.82-1.854c-4.959-4.432-9.063-4.787-11.455-3.285
			c-1.492,0.938-2.148,2.906-1.82,3.938c0.547,1.717,2.109,2.297,3.328,1.453c-1.125-0.656-0.652-2.244,1.021-1.92
			c2.438,0.469,2.209,3.717,0.846,5.342c-1.971,2.344-5.967,4.594-17.289-5.527c-4.957-4.432-9.063-4.787-11.455-3.285
			c-1.491,0.938-2.149,2.906-1.82,3.938c0.546,1.717,2.109,2.297,3.328,1.453c-1.125-0.656-0.654-2.244,1.021-1.92
			c2.438,0.469,2.209,3.717,0.846,5.342c-1.971,2.344-5.966,4.594-17.29-5.527C5.122-6.285,1.019-6.641-1.375-5.139
			c-1.493,0.938-2.148,2.906-1.82,3.938c0.547,1.717,2.109,2.297,3.327,1.453c-1.125-0.656-0.651-2.244,1.023-1.92
			c2.438,0.469,2.208,3.717,0.843,5.342"/>
	</g>
	<g>
		<path fill="none" stroke="#EBF8FF" stroke-width="1.25" d="M10.082-1.854C5.123-6.285,1.02-6.641-1.373-5.139
			c-1.492,0.938-2.148,2.906-1.82,3.938c0.547,1.717,2.109,2.297,3.328,1.453c-1.125-0.656-0.652-2.244,1.021-1.92
			c2.438,0.469,2.209,3.717,0.846,5.342C0.031,6.018-3.965,8.268-15.287-1.854c-4.957-4.432-9.063-4.787-11.455-3.285
			c-1.491,0.938-2.149,2.906-1.82,3.938c0.546,1.717,2.109,2.297,3.328,1.453c-1.125-0.656-0.654-2.244,1.021-1.92
			c2.438,0.469,2.209,3.717,0.846,5.342c-1.971,2.344-5.966,4.594-17.29-5.527c-4.959-4.432-9.063-4.787-11.456-3.285
			c-1.493,0.938-2.148,2.906-1.82,3.938c0.547,1.717,2.109,2.297,3.327,1.453c-1.125-0.656-0.651-2.244,1.023-1.92
			c2.438,0.469,2.208,3.717,0.843,5.342"/>
	</g>
</g>
<g>
</g>
<g>
</g>
<g>
</g>
<g>
</g>
<g>
</g>
<g>
</g>
<g>
</g>
<g>
</g>
<g>
</g>
<g>
</g>
<g>
</g>
<g>
</g>
<g>
</g>
<g>
</g>
<g>
</g>
</svg>
