<?xml version="1.0" encoding="utf-8"?>
<!-- Generator: Adobe Illustrator 16.2.0, SVG Export Plug-In . SVG Version: 6.00 Build 0)  -->
<!DOCTYPE svg PUBLIC "-//W3C//DTD SVG 1.1//EN" "http://www.w3.org/Graphics/SVG/1.1/DTD/svg11.dtd">
<svg version="1.1" id="Layer_1" xmlns="http://www.w3.org/2000/svg" xmlns:xlink="http://www.w3.org/1999/xlink" x="0px" y="0px"
	 width="30px" height="30px" viewBox="0 0 30 30" enable-background="new 0 0 30 30" xml:space="preserve">
<g>
	<path fill="#FF002C" d="M15,0C6.714,0,0,6.715,0,15s6.714,15,15,15s15-6.715,15-15S23.286,0,15,0z M22.355,18.938
		c0.283,0.285,0.283,0.744,0,1.029l-2.396,2.389c-0.283,0.283-0.743,0.283-1.027,0L15,18.387l-3.938,3.969
		c-0.285,0.283-0.744,0.283-1.028,0l-2.39-2.395c-0.283-0.285-0.283-0.744,0-1.029L11.613,15l-3.969-3.938
		c-0.283-0.285-0.283-0.744,0-1.029l2.396-2.395c0.284-0.285,0.744-0.285,1.027,0l3.933,3.975l3.938-3.969
		c0.283-0.283,0.744-0.283,1.027,0l2.396,2.395c0.283,0.285,0.283,0.744,0,1.029L18.387,15L22.355,18.938z"/>
</g>
<path fill="#B3122E" d="M20.631,1.103C25.037,3.716,28,8.506,28,14c0,8.284-6.716,15-15,15c-1.993,0-3.891-0.397-5.631-1.103
	C9.606,29.225,12.209,30,15,30c8.284,0,15-6.716,15-15C30,8.709,26.123,3.331,20.631,1.103z"/>
<path fill="#B3122E" d="M15.75,0.038C15.5,0.025,15.253,0,15,0C6.716,0,0,6.716,0,15c0,0.253,0.025,0.5,0.038,0.75
	C0.421,7.238,7.238,0.421,15.75,0.038z"/>
<g>
</g>
<g>
</g>
<g>
</g>
<g>
</g>
<g>
</g>
<g>
</g>
<g>
</g>
<g>
</g>
<g>
</g>
<g>
</g>
<g>
</g>
<g>
</g>
<g>
</g>
<g>
</g>
<g>
</g>
</svg>
